<svg width="120" height="103" viewBox="0 0 120 103" fill="none" xmlns="http://www.w3.org/2000/svg">
<path d="M117.362 0.541931H119.505C118.113 3.0244 113.911 9.90164 111.207 10.5762C107.994 11.3777 107.417 8.39585 104.652 12.4969C100.477 18.6876 97.7653 25.7775 93.2398 31.8023C87.1348 39.9304 79.6187 47.2698 72.5884 54.6041C70.664 56.6117 68.4958 58.4752 66.6995 60.5903C67.5131 61.1899 68.791 61.8876 68.9453 62.9786C69.2257 64.9618 65.7503 68.226 64.4765 69.5663C61.3974 72.8069 48.6674 84.5109 44.4615 84.6192C43.0278 84.6561 41.6431 83.3223 40.5715 82.5151C35.3555 85.6859 30.071 88.7378 24.718 91.6709C16.6776 96.1359 8.92578 100.196 -0.00341797 102.646V100.677C5.29131 99.3944 10.837 97.0547 15.6856 94.5672C20.9683 91.8571 26.2087 88.7893 31.3747 85.8515C33.3922 84.7043 38.2048 81.1168 40.2815 80.8033C41.721 80.5859 43.2793 82.1458 44.3433 82.9643C47.093 81.8844 49.4315 79.9669 51.8039 78.244C57.616 74.2566 63.0241 68.9256 67.2661 63.3233C66.1842 62.5883 65.452 62.0119 64.8398 60.8278C64.9515 60.2076 65.0955 59.7304 65.4892 59.2227C66.9146 57.3846 68.8188 55.7822 70.4604 54.1273C73.0862 51.4794 75.5911 48.7008 78.1706 46.0059C80.3077 43.773 82.7093 41.5664 84.5553 39.0891C85.5604 38.4331 86.6613 36.8257 87.4802 35.8992C88.7833 34.4536 90.0198 32.9531 91.1897 31.3977C92.3594 29.8423 93.4578 28.238 94.4851 26.585C96.6462 23.1151 102.555 11.0771 104.842 9.20817C106.302 8.01604 108.351 8.59542 110.063 8.72341C111.093 8.80043 111.363 8.38072 112.077 7.75578C114.143 5.68193 115.874 3.05319 117.362 0.541931Z" fill="black"/>
<path d="M-0.00341797 0.541931H113.234H114.573H117.362C115.874 3.05319 114.143 5.68193 112.077 7.75578C111.363 8.38072 111.093 8.80043 110.063 8.72341C108.351 8.59542 106.302 8.01604 104.842 9.20817C102.555 11.0771 96.6462 23.1151 94.4851 26.585C93.4578 28.238 92.3594 29.8423 91.1897 31.3977C90.0199 32.9531 88.7833 34.4536 87.4802 35.8992C86.6613 36.8257 85.5604 38.4331 84.5553 39.0891C82.7093 41.5664 80.3077 43.773 78.1706 46.0059C75.5911 48.7008 73.0862 51.4794 70.4604 54.1273C68.8188 55.7822 66.9146 57.3846 65.4892 59.2227C65.0955 59.7304 64.9515 60.2076 64.8398 60.8278C65.452 62.0119 66.1842 62.5883 67.2661 63.3233C63.0241 68.9256 57.616 74.2566 51.8039 78.244C49.4315 79.9669 47.093 81.8844 44.3433 82.9643C43.2793 82.1458 41.721 80.5859 40.2815 80.8033C38.2048 81.1168 33.3922 84.7043 31.3747 85.8515C26.2087 88.7893 20.9683 91.8571 15.6856 94.5672C10.837 97.0547 5.29131 99.3944 -0.00341797 100.677V74.7001V73.6691V45.2919V43.5203V37.5182V34.5647V0.541931Z" fill="url(#paint0_linear_2011_2969)"/>
<path d="M70.0892 3.06611C71.3546 2.97087 74.0564 3.39473 74.9395 4.38162C75.3088 4.79434 75.2651 4.99289 75.1637 5.47351L74.7316 5.54028C74.0921 5.01838 73.5278 4.63979 72.7613 4.3241C72.6914 4.29526 72.6207 4.26801 72.55 4.23995C70.0291 3.74991 67.8327 4.1323 65.3411 4.61346C66.8751 3.77049 68.389 3.37964 70.0892 3.06611Z" fill="black"/>
<path d="M113.234 0.541931H114.572H117.362C115.874 3.05319 114.143 5.68193 112.076 7.75578L111.654 7.3206C111.144 7.67069 110.869 7.81069 110.25 7.86533C109.927 7.65568 109.885 7.7413 109.841 7.42852C109.564 5.44237 112.063 2.05204 113.234 0.541931Z" fill="#979597"/>
<path d="M113.234 0.541931H114.572C112.738 2.45633 111.548 4.39867 110.568 6.85985C111.886 5.83423 113.039 4.71486 114.206 3.52193C113.418 4.81355 112.382 6.02309 111.654 7.3206C111.144 7.67069 110.869 7.81069 110.25 7.86533C109.927 7.65568 109.885 7.7413 109.841 7.42852C109.564 5.44237 112.063 2.05204 113.234 0.541931Z" fill="black"/>
<path d="M-0.00341797 34.5647C5.30978 29.1293 13.0597 23.1988 21.0322 23.1543C21.4022 23.1522 21.7619 23.1795 22.1303 23.2109L22.3007 23.4014C21.9406 23.6823 22.1451 23.6105 21.7601 23.6329C14.5933 24.0502 5.95168 30.59 1.40819 35.7958C0.923913 36.3586 0.453378 36.9328 -0.00341797 37.5182V34.5647Z" fill="#979597"/>
<path d="M58.4349 19.867L56.8834 22.4632L56.9886 22.2476L56.5725 22.4763L56.5349 22.6091C56.9263 18.244 63.156 11.4781 66.3978 8.77017C68.1781 7.28308 70.693 5.466 73.1364 5.68028C73.9705 5.75343 74.8 6.21882 75.2955 6.89392C76.032 7.89693 75.9476 9.26383 75.7207 10.4209C74.5108 16.5964 67.1388 24.0745 62.0244 27.3353C61.0364 27.9652 59.7341 28.7766 58.5109 28.5052C58.0895 28.4117 58.0131 28.2791 57.7008 28.0053C57.2087 26.8537 57.4959 25.7623 57.7806 24.5881C58.3418 23.7222 58.9627 22.8952 59.5681 22.0598C59.3895 22.4539 59.2135 22.8492 59.0403 23.2457C58.501 24.4852 57.9215 25.7015 58.4486 27.0435C58.9437 27.4069 59.052 27.4822 59.703 27.4123C63.1222 27.0447 69.7076 19.3862 71.6616 16.7328C73.4103 14.3582 75.2473 11.2543 74.6792 8.19558C74.531 7.39598 74.3014 6.95172 73.625 6.47459C72.954 6.31515 72.4828 6.30082 71.8193 6.54432C66.8272 8.37661 60.5891 15.2285 58.4349 19.867Z" fill="black"/>
<path d="M-0.00292969 43.5203C4.34191 36.6586 11.1573 27.9183 19.6199 26.1301C21.1022 25.8169 22.7972 26.1013 24.0654 26.9399C25.565 27.9316 26.3152 29.6974 26.6342 31.4058C28.2701 40.1665 21.2603 53.202 16.2681 60.1841C13.6661 63.8234 5.57171 73.8238 1.36322 74.7658C0.904507 74.8684 0.452382 74.7696 -0.00292969 74.7001L-0.00292969 73.6692C0.36472 73.8079 0.702343 73.9264 1.10263 73.8903C4.36513 73.5947 11.8689 64.6704 13.798 62.184C19.5122 54.8189 27.161 41.3403 25.8018 31.8566C25.5753 30.2757 24.9886 28.7624 23.6391 27.8156C22.3105 26.8835 20.7946 26.8226 19.2562 27.1821C10.8326 29.1505 4.13018 38.2977 -0.00292969 45.2919L-0.00292969 43.5203Z" fill="black"/>
<path d="M58.4351 19.867C60.5893 15.2286 66.8274 8.37664 71.8195 6.54436C72.483 6.30085 72.9542 6.31518 73.6252 6.47463C74.3016 6.95175 74.5312 7.39601 74.6794 8.19561C75.2475 11.2543 73.4105 14.3583 71.6618 16.7328C69.7078 19.3863 63.1224 27.0447 59.7032 27.4123C59.0522 27.4822 58.9439 27.407 58.4488 27.0436C57.9217 25.7015 58.5012 24.4852 59.0405 23.2458C59.2137 22.8492 59.3897 22.4539 59.5683 22.0599C58.9629 22.8952 58.342 23.7223 57.7808 24.5881C57.8549 22.9629 58.7247 21.496 58.4351 19.867Z" fill="#979597"/>
<path d="M50.9896 77.9388C49.4601 78.82 47.8885 80.5695 46.0272 80.7132C45.5214 80.3951 45.632 80.264 45.5024 79.7069C45.8201 78.8219 46.5892 78.6448 47.0475 77.9251L46.2229 77.5926C45.9923 77.0739 46.1382 76.5886 46.3221 76.0756C47.2805 73.3997 49.7949 70.628 51.7903 68.6569C54.2626 66.215 57.1973 63.7773 60.1796 61.9674C61.5206 61.1538 63.3602 60.7199 64.4766 59.6255C67.3787 56.7812 82.3096 40.1227 84.5558 39.0891C82.7098 41.5663 80.3082 43.773 78.171 46.0059C75.5916 48.7008 73.0866 51.4794 70.4608 54.1272C68.8192 55.7821 66.9151 57.3846 65.4897 59.2227C65.096 59.7303 64.952 60.2076 64.8403 60.8278C65.4524 62.0119 66.1847 62.5883 67.2666 63.3232C63.0246 68.9256 57.6165 74.2566 51.8044 78.2439L50.9896 77.9388Z" fill="#AAA9A9"/>
<path d="M50.9896 77.9388C49.4601 78.82 47.8885 80.5695 46.0272 80.7132C45.5214 80.3951 45.632 80.264 45.5024 79.7069C45.8201 78.8219 46.5892 78.6448 47.0475 77.9251L46.2229 77.5926C45.9923 77.0739 46.1382 76.5886 46.3221 76.0756C47.2805 73.3997 49.7949 70.628 51.7903 68.6569C54.2626 66.215 57.1973 63.7773 60.1796 61.9674C61.5206 61.1538 63.3602 60.7199 64.4766 59.6255C67.3787 56.7812 82.3096 40.1227 84.5558 39.0891C82.7098 41.5663 80.3082 43.773 78.171 46.0059C75.5916 48.7008 73.0866 51.4794 70.4608 54.1272C68.8192 55.7821 66.9151 57.3846 65.4897 59.2227C65.096 59.7303 64.952 60.2076 64.8403 60.8278L64.6324 60.1016C63.6995 60.2023 62.6005 61.0706 61.7862 61.5452C57.0582 64.2979 52.8429 67.564 49.3872 71.8481C47.8615 73.7394 46.6755 75.6614 45.9436 77.9912C46.9666 77.3429 47.9835 76.5639 49.1755 76.2884C50.1289 75.587 51.0314 74.4344 51.875 73.5851C54.605 70.8351 59.3086 65.512 62.889 64.1946C63.3803 64.0137 63.4305 63.9575 63.9271 64.1718C63.9362 64.2463 63.9564 64.3203 63.9545 64.3956C63.9108 66.3476 59.4139 69.9196 57.9239 71.1725C57.4797 72.8886 52.5355 76.4404 50.9896 77.9388Z" fill="#979597"/>
<path d="M49.175 76.2884C50.1284 75.587 51.0309 74.4344 51.8745 73.5851C54.6044 70.8351 59.3081 65.512 62.8884 64.1946C63.3798 64.0137 63.4299 63.9575 63.9266 64.1718C63.9357 64.2463 63.9559 64.3203 63.954 64.3956C63.9103 66.3476 59.4133 69.9196 57.9234 71.1725L57.8576 70.78C59.5057 68.8568 61.2681 66.9849 62.8463 65.0078C59.0565 67.5564 55.7266 70.7503 52.5912 74.0594C50.3606 76.4138 48.1965 79.3167 45.4312 81.0495C45.3526 81.0989 45.2751 81.1502 45.1968 81.2007C46.2186 79.2437 47.7983 77.962 49.175 76.2884Z" fill="black"/>
<path d="M-0.00341797 45.2919C4.12969 38.2976 10.8321 29.1505 19.2557 27.1821C20.7941 26.8225 22.31 26.8835 23.6386 27.8156C24.9881 28.7624 25.5748 30.2757 25.8014 31.8566C27.1605 41.3403 19.5117 54.8189 13.7975 62.184C11.8684 64.6704 4.36464 73.5947 1.10214 73.8903C0.701854 73.9264 0.364231 73.8078 -0.00341797 73.6691V45.2919Z" fill="#979597"/>
<defs>
<linearGradient id="paint0_linear_2011_2969" x1="-6.36871" y1="95.8074" x2="74.4467" y2="-24.8949" gradientUnits="userSpaceOnUse">
<stop stop-color="#9F9CA3"/>
<stop offset="1" stop-color="#BAB9B7"/>
</linearGradient>
</defs>
</svg>
