<svg width="126" height="184" viewBox="0 0 126 184" fill="none" xmlns="http://www.w3.org/2000/svg">
<g clip-path="url(#clip0_2011_2657)">
<path d="M123.52 0.0577741C123.709 0.0484862 123.898 0.0407402 124.087 0.0360962C144.347 -0.501056 166.989 5.01754 184.889 14.5578C194.697 19.7869 204.401 26.9386 212.454 34.6012C237.524 58.4542 251.315 90.1663 252.147 124.706C252.284 130.342 251.858 136.112 251.163 141.703C247.835 168.535 236.036 194.046 217.349 213.656C194.174 237.975 162.52 251.499 129.047 252.306C95.4994 252.907 64.6713 240.496 39.9162 218.05C21.8805 201.697 9.12199 178.649 3.51728 155.065C1.59059 146.957 0.535924 138.69 0.130269 130.373C-1.42215 98.538 10.9938 65.9294 32.3886 42.4526C35.2103 39.3566 38.1217 36.2684 41.221 33.4464C60.3363 16.0439 85.0625 4.61815 110.659 1.10267C114.929 0.515979 119.218 0.259013 123.52 0.0577741Z" fill="#0D1824"/>
<path d="M117.361 4.82864C122.653 4.03639 130.508 3.98764 135.78 4.79055C132.354 5.36493 128.637 4.7357 125.305 5.73972C124.325 5.81894 123.332 6.02767 122.352 6.02463C123.176 5.6285 124.061 5.3832 124.924 5.08611L124.963 4.92157C122.987 4.32434 118.73 5.86618 117.361 4.82864Z" fill="#877D61"/>
<path d="M10.6758 87.1562C11.3953 87.3315 11.8828 87.4561 12.4715 87.9293C12.0391 89.886 11.6255 91.8407 11.0072 93.7488L10.851 93.7559C10.1824 93.5279 9.58227 93.2482 8.95508 92.928L10.6758 87.1562Z" fill="#F9AF5D"/>
<path d="M5.22777 117.749C5.17084 116.009 5.42926 114.174 5.58724 112.44C6.19097 105.813 7.35688 99.3877 8.95458 92.9287C9.58177 93.2484 10.1819 93.5281 10.8505 93.756C9.99301 99.1012 9.06357 104.182 8.85999 109.617C8.77062 112.006 9.48916 117.441 8.76096 119.328C7.59358 118.786 6.43092 118.209 5.22777 117.749Z" fill="#D54E2B"/>
<mask id="mask0_2011_2657" style="mask-type:luminance" maskUnits="userSpaceOnUse" x="15" y="26" width="43" height="49">
<path d="M56.2878 26.8284L57.3799 27.7766C51.4036 31.9048 40.417 40.35 37.0174 46.5993C34.6229 47.8739 29.3374 54.7629 27.9718 57.3357C26.2115 59.9638 24.4386 62.4674 22.9006 65.2437C22.6136 65.7614 22.1745 66.3783 21.9964 66.931C20.1614 69.5127 19.1203 71.7681 17.8264 74.5842C17.2472 74.2334 16.6101 73.9925 15.9873 73.7304C16.756 72.5747 17.3231 71.0111 17.9573 69.7577C19.2037 67.2964 20.5824 64.8465 22.0532 62.5122C28.8684 51.6961 37.3583 41.8745 47.2099 33.7068C50.1367 31.2806 53.2227 29.0724 56.2878 26.8284Z" fill="white"/>
</mask>
<g mask="url(#mask0_2011_2657)">
<path d="M56.2878 26.8277L57.3801 27.7767C51.4037 31.9049 40.4171 40.3493 37.0174 46.5996C34.623 47.8737 29.3375 54.7618 27.9718 57.335C26.2115 59.9635 24.4386 62.4675 22.9007 65.2426C22.6136 65.7614 22.1745 66.3784 21.9963 66.9304C20.1614 69.5119 19.1203 71.7668 17.8263 74.5835C17.2473 74.2335 16.6101 73.9928 15.9873 73.7299C16.7559 72.5748 17.3231 71.0101 17.9573 69.7567C19.2038 67.2956 20.5823 64.8456 22.0532 62.5117C28.8685 51.6947 37.3584 41.8738 47.2099 33.7061C50.1367 31.2796 53.2229 29.0716 56.2878 26.8277Z" fill="url(#paint0_linear_2011_2657)"/>
</g>
<path d="M87.6133 10.9948C96.3595 7.66423 107.995 5.10813 117.362 4.82818C118.731 5.86735 122.988 4.32458 124.964 4.921L124.925 5.08683C124.062 5.38352 123.177 5.62849 122.353 6.02407C120.893 6.31772 118.417 6.51855 117.155 7.12105C117.023 7.05563 116.903 6.95979 116.76 6.92479C115.835 6.69353 106.574 9.59651 105.182 10.0682C103.056 10.7878 96.1284 13.0183 94.8913 14.5854L94.6789 14.5824C92.7466 13.954 90.8664 12.9103 89.0864 11.9365C88.642 11.5683 88.1081 11.2914 87.6133 10.9948Z" fill="#86A08B"/>
<path d="M16.3184 170.542C18.0971 170.985 23.232 171.756 24.5127 172.333C25.6198 173.605 26.7109 174.919 28.0599 175.946C28.9273 176.911 29.8123 177.835 30.7506 178.732C32.469 180.556 35.2103 183.94 37.441 184.917C38.4426 185.733 39.5353 186.528 40.364 187.524C35.3673 187.27 30.397 186.906 25.4894 185.888C22.1435 182.555 18.2553 174.953 16.3184 170.542Z" fill="#5C726B"/>
<path d="M241.594 137.506C241.831 136.751 242.444 135.888 242.821 135.177C243.404 134.08 243.891 132.994 244.333 131.834C244.901 133.449 243.897 137.201 243.512 138.92C241.328 148.708 238.503 158.237 234.151 167.307C220.188 196.403 195.975 219.105 165.371 229.87C141.197 238.374 116.13 238.839 91.5677 231.729C85.8125 230.064 79.9069 228.109 74.4982 225.513C74.1094 225.326 73.7239 225.134 73.3398 224.938C75.0874 225.093 83.1063 226.915 84.0659 226.32C84.1081 226.294 84.1416 226.256 84.179 226.224C86.6256 226.78 88.9444 227.291 91.4497 227.55C112.332 230.515 134.147 229.495 154.217 222.626C182.313 213.01 205.073 196.762 222.574 172.62C226.895 166.659 230.997 160.286 234.242 153.669C235.872 150.829 237.246 147.795 238.592 144.812C239.668 142.431 240.815 140.005 241.594 137.506Z" fill="#13283D"/>
<path d="M225.845 129.041C226.885 128.907 228.044 128.338 228.999 127.932C235.466 125.188 240.323 120.595 245.366 115.875C245.318 116.927 245.249 117.977 245.32 119.029L245.294 119.22C245.309 120.648 245.478 122.333 245.157 123.724C245.107 126.422 245.021 129.212 244.333 131.833C243.892 132.993 243.404 134.08 242.823 135.176C242.445 135.888 241.832 136.751 241.595 137.506C240.815 140.005 239.669 142.431 238.592 144.812C237.246 147.795 235.874 150.829 234.243 153.669C230.997 160.286 226.897 166.659 222.574 172.62C205.075 196.762 182.313 213.01 154.217 222.626C134.147 229.495 112.333 230.515 91.45 227.55C88.9447 227.291 86.6258 226.78 84.1791 226.224C82.5319 225.662 80.8232 225.23 79.1575 224.718L78.8874 224.453C71.4119 222.433 64.5228 219.082 57.6273 215.649C56.3562 214.835 55.0005 214.141 53.823 213.192C53.2096 212.917 52.6064 212.41 52.0459 212.03C50.277 211.209 42.7092 204.929 41.4375 203.348C48.169 204.839 59.3325 205.402 65.9333 203.227C68.9615 204.442 72.0295 205.806 75.1906 206.633C77.6648 207.457 80.176 208.156 82.7028 208.799L82.9966 208.84C92.0929 210.5 101.381 211.181 110.618 210.669C127.888 209.711 144.978 205.808 160.78 198.698C165.47 196.586 169.985 194.135 174.452 191.594C184.4 185.934 194.236 178.784 201.902 170.215C203.519 168.749 204.871 166.999 206.236 165.304C210.189 160.399 213.612 155.256 216.968 149.933C218.38 147.322 220.023 144.636 220.961 141.815C223.086 138.083 224.333 133.722 225.604 129.643L225.845 129.041Z" fill="#1C4366"/>
<path d="M168.122 197.577C177.355 192.624 186.446 187.385 194.838 181.083C198.014 178.699 201.174 176.217 204.237 173.69C205.307 172.806 206.274 171.531 207.444 170.816C208.463 170.194 209.914 169.992 211.053 169.575C215.322 168.015 220.031 166.416 223.735 163.73C226.245 161.909 228.639 159.591 230.707 157.286C231.775 156.097 232.739 154.592 234.005 153.619L234.243 153.669C230.998 160.286 226.896 166.659 222.575 172.62C205.074 196.762 182.313 213.01 154.218 222.626C134.148 229.495 112.333 230.515 91.4505 227.55L91.3252 227.408C91.9519 226.867 95.4851 227.052 96.465 227.021C100.078 226.907 103.698 226.405 107.264 225.833C111.361 225.176 115.476 224.4 119.453 223.202C124.291 221.745 128.921 219.797 133.611 217.94C139.36 215.665 145.094 213.484 151.019 211.707C151.259 212.739 151.515 213.626 152.241 214.427C153.124 215.402 154.261 215.792 155.556 215.836C162.675 216.084 167.696 210.267 173.59 207.344C175.577 206.359 177.69 205.608 179.74 204.769C185.816 202.281 191.714 199.595 196.521 194.997C197.728 193.843 200.071 191.456 200.039 189.679C200.032 189.2 199.843 188.839 199.487 188.525C197.058 186.382 187.082 192.044 184.5 193.238C182.724 194.058 180.868 194.764 179.01 195.371C175.474 196.527 171.789 197.029 168.122 197.577Z" fill="#25577E"/>
<mask id="mask1_2011_2657" style="mask-type:luminance" maskUnits="userSpaceOnUse" x="10" y="4" width="160" height="94">
<path d="M135.78 4.78992L137.778 4.87864C142.879 5.4728 147.907 6.09953 152.897 7.3554C153.637 8.9694 154.281 10.5232 154.71 12.2544C154.913 13.0805 154.939 14.0377 155.222 14.8231C154.854 17.9697 154.222 21.0781 152.733 23.9105L152.715 23.9976C155.663 24.6308 167.646 28.1909 169.313 30.2826C167.445 33.5562 165.187 36.5401 162.864 39.5011C160.851 42.0682 158.813 44.6369 156.579 47.0184C149.546 54.5179 140.111 61.6681 131.191 66.7437C124.975 70.281 118.369 73.168 111.884 76.1738C98.2807 82.4776 84.0908 87.8877 69.6233 91.8417C53.4379 96.2645 34.8869 99.438 18.2315 96.267C16.933 96.013 15.6719 95.5458 14.4163 95.1324C13.3509 94.5651 12.1355 94.1793 11.0071 93.7495C11.6255 91.8409 12.0392 89.8867 12.4715 87.93C11.8827 87.4571 11.3953 87.3318 10.6758 87.1568L11.9187 83.4649L12.5459 81.7239C13.6943 79.0583 14.7444 76.3553 15.9871 73.7304C16.6099 73.9925 17.247 74.2334 17.8261 74.5842C19.1201 71.768 20.1612 69.5127 21.9962 66.9309C22.1742 66.3783 22.6134 65.7613 22.9004 65.2437C24.4384 62.4674 26.2113 59.9638 27.9715 57.3357C29.3372 54.7629 34.6227 47.8739 37.0172 46.5993C40.4167 40.35 51.4034 31.9048 57.3797 27.7766L56.2876 26.8284C57.5944 25.7735 59.1317 24.866 60.5498 23.9666C67.0748 19.8295 73.9254 16.3419 81.0816 13.4337C83.2183 12.5653 85.3964 11.6407 87.6127 10.9944C88.1075 11.2923 88.6415 11.5682 89.0859 11.9369C90.8659 12.9096 92.7461 13.9546 94.6783 14.583L94.8907 14.5854C96.1279 13.0178 103.056 10.7869 105.181 10.0674C106.574 9.59693 115.834 6.69368 116.759 6.92484C116.902 6.96065 117.023 7.05506 117.155 7.12018C118.416 6.51788 120.892 6.31846 122.352 6.02382C123.332 6.02789 124.325 5.81954 125.305 5.73978C128.637 4.7354 132.354 5.36536 135.78 4.78992Z" fill="white"/>
</mask>
<g mask="url(#mask1_2011_2657)">
<path d="M135.78 4.79041L137.778 4.8785C142.879 5.47229 147.907 6.09948 152.897 7.35539C153.637 8.96969 154.281 10.5232 154.709 12.2545C154.913 13.0806 154.939 14.0374 155.223 14.8225C154.854 17.9691 154.222 21.0777 152.734 23.91L152.715 23.9966C155.663 24.6313 167.646 28.191 169.312 30.2822C167.444 33.5564 165.188 36.5405 162.864 39.5018C160.852 42.0683 158.813 44.6363 156.579 47.0175C149.546 54.518 140.111 61.6677 131.192 66.743C124.975 70.2799 118.369 73.1683 111.884 76.1737C98.2808 82.4776 84.0909 87.8869 69.6233 91.8415C53.4379 96.2637 34.8869 99.4377 18.2316 96.2668C16.933 96.0131 15.6718 95.5454 14.4163 95.1323C13.3509 94.5644 12.1355 94.1786 11.0071 93.7489C11.6255 91.8415 12.0392 89.887 12.4715 87.9295C11.8827 87.4572 11.3953 87.3311 10.6758 87.1565L11.9187 83.4647L12.5459 81.7243C13.6943 79.0576 14.7444 76.3544 15.987 73.7302C16.6098 73.993 17.2471 74.2329 17.8261 74.5837C19.1201 71.7682 20.1612 69.513 21.9961 66.9298C22.1743 66.3786 22.6133 65.7605 22.9005 65.2426C24.4384 62.4681 26.2112 59.9638 27.9715 57.3351C29.3372 54.7625 34.6228 47.874 37.0172 46.5999C40.4168 40.3507 51.4034 31.9056 57.3798 27.7764L56.2876 26.8273C57.5944 25.7734 59.1317 24.8667 60.5498 23.9662C67.0747 19.8294 73.9254 16.3427 81.0817 13.433C83.2184 12.5658 85.3964 11.641 87.6127 10.994C88.1077 11.2917 88.6414 11.5681 89.0859 11.9371C90.8659 12.909 92.7462 13.9539 94.6783 14.5826L94.8908 14.5856C96.128 13.0184 103.056 10.7875 105.181 10.0677C106.574 9.59688 115.835 6.69326 116.759 6.92409C116.902 6.96054 117.023 7.0547 117.155 7.12C118.416 6.5171 120.892 6.31816 122.352 6.02354C123.332 6.0281 124.325 5.82004 125.305 5.73956C128.638 4.73574 132.354 5.36445 135.78 4.79041Z" fill="url(#paint1_linear_2011_2657)"/>
</g>
<path d="M47.0505 84.8443C53.1884 83.6052 59.0944 81.9013 65.0633 80.0326C74.9492 76.9367 84.5054 73.3581 93.8996 68.973C98.5398 66.8067 117.025 57.5645 120.865 57.9289L121.035 58.1058C120.91 59.6053 115.24 64.5819 113.949 65.674C111.438 67.7996 108.698 69.7425 105.858 71.4021C101.823 73.762 90.1215 79.0564 85.5472 78.6621C84.9164 78.6083 84.2246 78.4243 83.8363 77.8818C83.6084 77.5628 83.6117 77.2247 83.6923 76.8578C83.9307 75.7669 85.443 74.535 86.2976 73.8647C81.048 75.5411 75.9747 78.0228 70.8621 80.0899C56.257 85.9925 40.5465 90.8066 24.6356 90.1303C20.8104 89.9678 16.0188 89.7898 12.5948 87.9999C12.5529 87.9784 12.5126 87.9533 12.4715 87.9294C11.8827 87.4562 11.3953 87.3308 10.6758 87.1563L11.9187 83.4642L12.5459 81.7233C13.6943 79.0576 14.7443 76.3548 15.9871 73.7297C16.6099 73.9926 17.2471 74.2328 17.8261 74.584L17.8414 74.6748C20.3931 75.6893 23.2651 76.9367 26.001 77.3131C43.3217 81.274 61.0942 76.5747 77.5907 71.2372C77.627 71.659 77.5116 71.72 77.2333 72.045C76.5064 72.8957 75.4856 73.5899 74.5654 74.2148C70.0026 77.3107 64.2458 78.4601 58.9485 79.6514C56.4975 80.2034 53.9618 80.7543 51.6599 81.783C49.9423 82.5501 48.4944 83.6554 47.0505 84.8443Z" fill="white"/>
<path d="M30.1414 82.914C30.5831 82.8641 31.017 82.8246 31.4617 82.8569C32.0446 82.8974 32.3633 83.0024 32.7544 83.4662C32.8484 83.9238 32.8666 84.1962 32.6027 84.6007C31.9236 85.6427 30.932 85.8871 29.7934 86.1179C29.1627 86.119 28.4171 86.1824 27.8026 86.0254C27.3001 85.8975 27.0708 85.6853 26.8174 85.2434C26.8294 85.0302 26.8438 84.8472 26.9571 84.66C27.6059 83.5869 29.0038 83.1979 30.1414 82.914Z" fill="#F9AF5D"/>
<path d="M15.9873 73.7302C16.6101 73.9921 17.2472 74.2331 17.8263 74.5837L17.8415 74.6747C16.429 76.9931 15.2553 79.6239 14.4095 82.2064C14.4587 82.2228 14.5076 82.2393 14.5571 82.2557C17.3119 83.1509 19.255 83.0818 21.8082 84.7769C19.2233 84.2356 16.5529 84.0658 13.9434 83.645L11.9189 83.4642L12.5461 81.7232C13.6945 79.0574 14.7446 76.3544 15.9873 73.7302Z" fill="#F3D1A9"/>
<path d="M11.9189 83.464L12.5462 81.7234C13.0662 81.9631 13.6804 82.1473 13.9763 82.6654C13.9998 83.0097 13.9951 83.3038 13.9435 83.645L11.9189 83.464Z" fill="#F9AF5D"/>
<path d="M135.78 4.7906L137.778 4.87871C142.879 5.47262 147.907 6.09994 152.897 7.35612C153.637 8.96925 154.281 10.5231 154.709 12.2548C154.913 13.0811 154.938 14.038 155.222 14.8233C154.853 17.9706 154.221 21.0784 152.733 23.9113L152.715 23.9978C151.516 26.2717 150.106 28.2448 148.3 30.0797C145.567 32.8549 142.42 35.1804 139.304 37.4998C129.51 44.7908 118.938 51.0155 108.255 56.8984C103.325 59.6128 98.3546 62.4047 93.271 64.8198C90.3661 66.199 87.3864 67.5357 84.3903 68.7007C82.1382 69.5772 79.8316 70.3367 77.5903 71.2374C61.094 76.575 43.3216 81.2747 26.0009 77.3148C23.2651 76.9381 20.3932 75.691 17.8414 74.6748L17.8262 74.5852C19.12 71.7675 20.1611 69.5134 21.9962 66.9312C22.1742 66.3783 22.6133 65.7616 22.9004 65.2436C24.4383 62.4685 26.2113 59.9637 27.9716 57.3359C28.5076 58.3673 28.9178 59.4655 29.5006 60.4695C31.0792 63.19 33.9302 65.1023 36.8859 66.0638C37.8728 66.3843 38.9971 66.5529 39.9387 66.9828C42.201 67.2213 45.8636 67.8243 48.0152 67.2669C48.3961 66.1383 50.3439 63.7186 51.3724 63.2204C51.6904 63.0669 51.8012 62.9409 52.0153 62.6583C59.4862 61.2077 65.9413 57.2721 73.196 55.223C79.128 53.5476 85.3882 53.5005 91.3053 51.6216C95.7151 50.2211 99.9035 48.0855 103.805 45.6172C112.083 40.3798 126.318 28.1613 130.788 19.5108L130.862 19.4896C131.528 17.8187 132.656 15.7499 132.035 13.9195C130.858 10.4487 125.01 9.81075 121.933 9.02393C120.322 8.6123 118.686 8.11864 117.181 7.40018L117.154 7.12068C118.416 6.51766 120.892 6.31867 122.352 6.02399C123.332 6.02855 124.325 5.82045 125.305 5.73994C128.637 4.73591 132.354 5.36628 135.78 4.7906Z" fill="#F68331"/>
<path d="M102.434 53.8007C100.172 55.4169 97.3526 56.485 94.8521 57.7079C90.3503 59.9075 85.9707 62.2873 81.2564 64.0266C73.6976 66.8169 65.8837 68.7132 58.0899 70.6997C52.659 72.0845 47.2353 73.6703 41.6723 74.429C40.4089 74.602 36.9089 74.7579 35.7658 74.4972C35.5203 74.4412 35.4351 74.4083 35.2842 74.2208C39.3412 74.2938 43.0354 73.7969 46.976 72.8725C48.6218 72.7422 57.1499 70.4829 58.5991 69.7862C57.0367 69.8142 55.3178 70.2125 53.7864 70.0676C63.8984 68.2614 74.4532 66.3882 83.9415 62.3373C86.5697 61.2155 89.1825 60.0171 91.7259 58.7127C95.3047 56.8772 98.5604 55.0065 102.434 53.8007Z" fill="#EE722E"/>
<path d="M27.9715 57.3363C28.5075 58.3675 28.9177 59.4656 29.5007 60.4693C31.0793 63.1908 33.9302 65.1024 36.886 66.0642C37.8728 66.3848 38.997 66.5534 39.9386 66.9829C39.235 67.276 38.8296 67.6001 38.5533 68.3311C38.3152 68.9615 38.2062 69.6804 38.0687 70.3396L37.8839 70.5382C35.998 70.4436 33.7749 70.1733 32.0055 69.5154C31.5878 69.3598 31.0693 69.1649 30.6235 69.1888C30.8154 69.6218 31.2061 69.7845 31.6259 69.9508C33.9375 70.8623 37.0069 71.7224 39.5203 71.3361C43.4149 71.415 47.3729 71.2416 51.2502 70.8707C52.8261 70.72 54.4089 70.22 55.984 70.2319C55.8993 70.2403 55.8138 70.2439 55.7303 70.2594C55.3208 70.3372 54.9438 70.586 54.5463 70.7116C52.6079 71.3265 48.5777 71.9007 47.0389 72.7165L46.9756 72.8732C43.035 73.798 39.3407 74.2956 35.2839 74.2214C34.8629 74.0731 29.5689 73.14 29.3577 73.1998C29.1716 73.2525 28.9892 73.3171 28.7991 73.3661C28.2954 74.3686 27.7931 75.2095 27.0646 76.0649C26.711 76.4788 26.2672 76.8364 26.0009 77.3149C23.2651 76.9381 20.3931 75.6904 17.8414 74.676L17.8262 74.5851C19.12 71.7679 20.1611 69.513 21.9962 66.9314C22.1742 66.3788 22.6133 65.7615 22.9004 65.2435C24.4384 62.4682 26.2113 59.9645 27.9715 57.3363Z" fill="#F9AF5D"/>
<path d="M135.78 4.79056L137.777 4.87867C142.879 5.47258 147.906 6.0999 152.896 7.35608C153.636 8.96922 154.28 10.5231 154.708 12.2547C154.912 13.081 154.938 14.038 155.222 14.8233C154.853 17.9706 154.221 21.0784 152.732 23.9112C151.678 23.5968 150.574 23.4236 149.492 23.2368C148.705 22.9998 147.968 22.6748 147.217 22.3452C146.073 23.8201 145.406 25.4651 144.094 26.8474C138.833 32.3915 129.303 38.3732 122.745 42.526C120.167 44.1574 117.573 45.9528 114.855 47.3335L114.734 47.1589L114.852 47.5416L114.69 47.4034L114.546 47.449L114.611 47.3837L114.469 47.0768L114.695 47.291C122.741 42.2982 141.142 30.0432 145.358 21.8788C144.161 21.7877 141.683 20.9173 140.71 21.1816L140.515 21.0601C137.476 19.9893 133.996 20.1655 130.861 19.4895C131.528 17.8187 132.655 15.7498 132.034 13.9195C130.857 10.4487 125.009 9.81072 121.932 9.0239C120.321 8.61226 118.686 8.11861 117.181 7.40014L117.154 7.12064C118.415 6.51762 120.891 6.31863 122.352 6.02395C123.332 6.02851 124.325 5.82041 125.304 5.73991C128.637 4.73587 132.353 5.36624 135.78 4.79056Z" fill="#D54E2B"/>
<path d="M122.352 6.02461C123.332 6.02764 124.325 5.82039 125.305 5.74021C128.075 6.17438 138.275 10.6659 140.878 12.2846C141.577 12.7187 142.276 13.2391 142.754 13.9169C143.278 14.6627 143.357 15.7337 143.163 16.6021C142.939 17.6036 141.82 20.5036 140.875 20.9559C140.747 21.0179 140.648 21.0316 140.515 21.0603C137.476 19.9892 133.997 20.1647 130.861 19.49C131.528 17.8184 132.655 15.7504 132.034 13.9199C130.857 10.4495 125.009 9.81114 121.933 9.02449C120.321 8.61149 118.686 8.11832 117.181 7.40126L117.154 7.12139C118.416 6.51778 120.892 6.3181 122.352 6.02461Z" fill="#AE2D29"/>
<mask id="mask2_2011_2657" style="mask-type:luminance" maskUnits="userSpaceOnUse" x="48" y="19" width="93" height="49">
<path d="M130.862 19.4893C133.997 20.1649 137.477 19.9891 140.516 21.0594L140.711 21.1814C138.266 25.1184 133.673 28.1494 130.157 31.0917C126.097 34.4882 122.331 38.2013 118.087 41.3796C114.377 44.1592 110.286 46.4267 106.28 48.7407C99.3099 52.7688 91.1699 57.7988 83.2871 59.6366C79.6876 60.4758 75.9401 60.2991 72.363 61.1749C68.742 62.0621 65.28 63.5174 61.7616 64.7252C57.31 66.2538 52.7246 67.1483 48.0156 67.2671C48.3965 66.1374 50.3442 63.7184 51.3727 63.2203C51.6909 63.0665 51.8016 62.9411 52.0157 62.6587C59.4866 61.2067 65.9418 57.2714 73.1964 55.2227C79.1285 53.5469 85.3886 53.4997 91.3058 51.6212C95.7156 50.2204 99.904 48.0855 103.805 45.6169C112.083 40.3793 126.319 28.1608 130.788 19.5113L130.862 19.4893Z" fill="white"/>
</mask>
<g mask="url(#mask2_2011_2657)">
<path d="M130.862 19.4899C133.997 20.1655 137.477 19.9898 140.516 21.0597L140.71 21.1811C138.266 25.1194 133.672 28.1505 130.156 31.0917C126.097 34.4885 122.331 38.201 118.087 41.3807C114.377 44.1591 110.286 46.4274 106.28 48.7415C99.3097 52.7683 91.1697 57.7993 83.287 59.6362C79.6875 60.4762 75.9399 60.299 72.363 61.1747C68.7419 62.0632 65.2799 63.5173 61.7615 64.7258C57.3099 66.2542 52.7246 67.1484 48.0156 67.267C48.3964 66.1385 50.3441 63.7187 51.3726 63.2216C51.6909 63.0673 51.8016 62.9416 52.0157 62.6588C59.4864 61.2075 65.9417 57.2722 73.1963 55.2223C79.1284 53.5482 85.3885 53.4996 91.3057 51.6212C95.7154 50.2214 99.9039 48.0858 103.805 45.6175C112.083 40.3794 126.319 28.1605 130.788 19.5113L130.862 19.4899Z" fill="url(#paint2_linear_2011_2657)"/>
</g>
<mask id="mask3_2011_2657" style="mask-type:luminance" maskUnits="userSpaceOnUse" x="27" y="6" width="106" height="62">
<path d="M94.8909 14.5855C96.128 13.0179 103.056 10.7869 105.181 10.0674C106.574 9.59699 115.835 6.69375 116.759 6.9249C116.902 6.96072 117.023 7.05513 117.155 7.12024L117.182 7.40024C118.687 8.11811 120.322 8.61135 121.933 9.024C125.01 9.81025 130.858 10.4484 132.035 13.9197C132.656 15.7494 131.529 17.8184 130.862 19.4893L130.788 19.5113C126.319 28.1608 112.083 40.3794 103.805 45.6169C99.9038 48.0855 95.7154 50.2204 91.3056 51.6212C85.3884 53.4997 79.1282 53.5469 73.1961 55.2228C65.9415 57.2714 59.4863 61.2067 52.0155 62.6587C51.8013 62.9412 51.6906 63.0665 51.3725 63.2203C50.344 63.7185 48.3962 66.1374 48.0154 67.2671C45.8638 67.8247 42.2012 67.2216 39.9388 66.9823C38.9973 66.5533 37.873 66.384 36.8861 66.0634C33.9303 65.1021 31.0795 63.1902 29.5008 60.4693C28.9179 59.4649 28.5077 58.3669 27.9717 57.3357C29.3374 54.7629 34.6229 47.8739 37.0173 46.5993C40.4169 40.3501 51.4036 31.9049 57.3798 27.7767L56.2877 26.8285C57.5945 25.7736 59.1319 24.8661 60.55 23.9667C67.0749 19.8296 73.9256 16.3419 81.0818 13.4338C83.2185 12.5653 85.3965 11.6407 87.6128 10.9945C88.1077 11.2924 88.6416 11.5683 89.086 11.937C90.866 12.9096 92.7462 13.9547 94.6784 14.5831L94.8909 14.5855Z" fill="white"/>
</mask>
<g mask="url(#mask3_2011_2657)">
<path d="M94.8909 14.5851C96.1281 13.0177 103.056 10.7863 105.181 10.0666C106.574 9.59535 115.835 6.69396 116.759 6.92432C116.903 6.96046 117.023 7.05532 117.155 7.12006L117.182 7.40012C118.687 8.11681 120.322 8.61066 121.933 9.02321C125.01 9.81066 130.858 10.4476 132.035 13.9196C132.656 15.7489 131.529 17.8177 130.862 19.489L130.788 19.5101C126.319 28.16 112.083 40.3784 103.805 45.6165C99.9038 48.0858 95.7154 50.2208 91.3056 51.6211C85.3884 53.5001 79.1282 53.5468 73.1961 55.2226C65.9415 57.2718 59.4863 61.206 52.0154 62.659C51.8013 62.9405 51.6906 63.067 51.3725 63.2206C50.344 63.7174 48.3961 66.137 48.0153 67.2663C45.8638 67.8234 42.2011 67.2211 39.9387 66.9817C38.9973 66.5526 37.873 66.384 36.886 66.0632C33.9303 65.1011 31.0793 63.189 29.5008 60.4683C28.9178 59.464 28.5077 58.3664 27.9717 57.335C29.3373 54.7619 34.6227 47.8735 37.0173 46.5997C40.4169 40.3498 51.4035 31.9046 57.3799 27.7761L56.2877 26.8275C57.5946 25.7736 59.1319 24.8657 60.5499 23.9668C67.0749 19.8293 73.9256 16.3422 81.0818 13.4332C83.2185 12.5645 85.3966 11.64 87.6129 10.9941C88.1076 11.2922 88.6415 11.5678 89.086 11.9366C90.866 12.9093 92.7463 13.9542 94.6785 14.5821L94.8909 14.5851Z" fill="url(#paint3_linear_2011_2657)"/>
</g>
<path d="M56.2881 26.8284C57.595 25.7728 59.1323 24.8652 60.5503 23.9665C67.0753 19.8283 73.9261 16.3416 81.0822 13.4338C83.219 12.5647 85.397 11.6408 87.6133 10.9938C88.1081 11.2914 88.642 11.5682 89.0865 11.9354C86.9044 12.2922 84.907 13.456 82.8836 14.2999C76.6823 16.8879 70.641 19.6344 64.8326 23.0308C62.2799 24.5232 59.8687 26.1888 57.3803 27.776L56.2881 26.8284Z" fill="#D54E2B"/>
<path d="M48.7214 51.0226C50.8836 51.0473 52.9714 51.5969 55.113 51.6759C57.3156 51.7562 60.161 51.0362 62.235 51.7932C62.6452 51.9439 62.8208 52.1279 62.9907 52.5194C62.967 52.6602 62.9629 52.7516 62.8809 52.8837C62.1222 54.1051 59.3305 54.8264 57.992 55.2734C54.7076 56.5183 50.2942 57.305 46.9743 55.7489C46.2701 55.4192 45.6842 54.9536 45.4372 54.1928C45.1586 53.3333 45.4583 52.7849 45.8351 52.0192C46.7906 51.3894 47.5986 51.1547 48.7214 51.0226Z" fill="#F9AF5D"/>
<mask id="mask4_2011_2657" style="mask-type:luminance" maskUnits="userSpaceOnUse" x="27" y="46" width="26" height="22">
<path d="M37.0173 46.5993C35.6546 50.3385 33.5999 54.1248 35.4694 58.1106C36.4713 60.2471 38.4032 61.5893 40.5792 62.3275C44.2274 63.5663 48.2682 63.1617 52.0155 62.6587C51.8013 62.9412 51.6906 63.0665 51.3725 63.2203C50.344 63.7185 48.3962 66.1374 48.0154 67.2671C45.8638 67.8247 42.2012 67.2216 39.9388 66.9823C38.9973 66.5533 37.873 66.384 36.8861 66.0634C33.9303 65.1021 31.0795 63.1902 29.5008 60.4693C28.9179 59.4649 28.5077 58.367 27.9717 57.3357C29.3374 54.7629 34.6229 47.8739 37.0173 46.5993Z" fill="white"/>
</mask>
<g mask="url(#mask4_2011_2657)">
<path d="M37.0173 46.5994C35.6545 50.3378 33.5999 54.1242 35.4693 58.1112C36.4712 60.2467 38.4031 61.5884 40.5792 62.328C44.2274 63.5661 48.2682 63.161 52.0154 62.6587C51.8013 62.9414 51.6906 63.0663 51.3724 63.2203C50.344 63.7176 48.3962 66.1371 48.0154 67.2667C45.8637 67.8246 42.2011 67.2213 39.9388 66.9827C38.9972 66.5536 37.8729 66.3845 36.8861 66.0626C33.9303 65.1021 31.0794 63.19 29.5007 60.4689C28.9178 59.4642 28.5077 58.3674 27.9717 57.335C29.3373 54.7628 34.6228 47.8741 37.0173 46.5994Z" fill="url(#paint4_linear_2011_2657)"/>
</g>
<mask id="mask5_2011_2657" style="mask-type:luminance" maskUnits="userSpaceOnUse" x="52" y="18" width="39" height="29">
<path d="M81.775 18.3116C81.806 18.7983 80.6632 19.4983 80.3104 19.7921C76.6428 22.8476 73.4372 26.3523 72.5206 31.1487C72.5991 31.41 72.6791 31.6729 72.7781 31.9276C74.5849 36.5832 86.2223 31.3099 89.8719 33.0052C90.3017 33.2047 90.5426 33.5058 90.6622 33.9608C90.8104 34.5265 90.5735 35.1906 90.2707 35.6635C87.5685 39.8731 75.1075 43.0262 70.1756 44.2552C65.7677 45.2352 60.1316 47.1967 55.6458 46.6026C54.7855 46.4886 53.8753 46.2184 53.3542 45.468C52.9634 44.9047 52.9051 44.208 53.0563 43.5528C55.021 35.0531 74.664 22.8598 81.775 18.3116Z" fill="white"/>
</mask>
<g mask="url(#mask5_2011_2657)">
<path d="M81.775 18.3118C81.8059 18.7985 80.6631 19.4991 80.3103 19.792C76.6428 22.8471 73.4371 26.353 72.5205 31.1496C72.5991 31.4108 72.679 31.6736 72.778 31.9277C74.5847 36.5836 86.2221 31.3103 89.8718 33.0059C90.3016 33.2054 90.5425 33.5069 90.6621 33.9606C90.8103 34.5262 90.5734 35.191 90.2706 35.6633C87.5684 39.8727 75.1075 43.0268 70.1755 44.2558C65.7677 45.2363 60.1316 47.1975 55.6458 46.6031C54.7854 46.4882 53.8754 46.2198 53.3541 45.4689C52.9634 44.9047 52.9051 44.2084 53.0563 43.5537C55.021 35.0531 74.664 22.86 81.775 18.3118Z" fill="url(#paint5_linear_2011_2657)"/>
</g>
<mask id="mask6_2011_2657" style="mask-type:luminance" maskUnits="userSpaceOnUse" x="77" y="6" width="56" height="39">
<path d="M94.8907 14.5855C96.1278 13.0179 103.056 10.787 105.181 10.0675C106.574 9.59702 115.834 6.69378 116.759 6.92493C116.902 6.96075 117.023 7.05516 117.155 7.12027L117.181 7.40027C118.686 8.11814 120.322 8.61138 121.933 9.02403C125.01 9.81028 130.858 10.4484 132.035 13.9197C132.656 15.7494 131.528 17.8184 130.862 19.4894L130.788 19.5114C127.998 19.3738 125.147 19.0246 122.37 18.6999C120.79 22.7743 118.339 26.3841 115.42 29.6243C109.621 36.0624 103.505 40.3908 95.1487 42.9335C93.669 43.3844 91.9085 44.0428 90.3604 44.0664C89.8883 44.0746 89.5945 44.0005 89.264 43.666C89.2999 43.0067 89.9884 42.4956 90.4727 42.1187C92.2788 40.7139 94.5008 39.6924 96.477 38.5302C101.852 35.3673 109.311 30.5269 111.931 24.744C112.19 24.1735 112.499 23.4955 112.227 22.8761C111.815 21.9417 109.921 22.2534 109.112 22.3951C106.649 22.8273 104.217 23.6241 101.811 24.3013C95.4051 26.1033 83.9427 29.6511 77.4775 27.7083C81.5505 20.5271 88.3077 18.8969 94.6782 14.5831L94.8907 14.5855Z" fill="white"/>
</mask>
<g mask="url(#mask6_2011_2657)">
<path d="M94.8907 14.5854C96.1279 13.018 103.056 10.7866 105.181 10.0669C106.574 9.59567 115.834 6.69428 116.759 6.92464C116.902 6.96078 117.023 7.05563 117.155 7.12038L117.182 7.40044C118.686 8.11713 120.322 8.61098 121.933 9.02352C125.01 9.81098 130.858 10.4479 132.035 13.9199C132.656 15.7493 131.528 17.818 130.862 19.4893L130.788 19.5104C127.998 19.3734 125.147 19.0241 122.37 18.6988C120.79 22.7746 118.339 26.3837 115.42 29.6238C109.621 36.062 103.505 40.3907 95.1488 42.9338C93.669 43.384 91.9084 44.0434 90.3603 44.066C89.8883 44.0736 89.5946 43.9998 89.2641 43.6655C89.2999 43.0061 89.9884 42.4956 90.4727 42.1192C92.2788 40.7129 94.5009 39.6921 96.477 38.5298C101.852 35.3679 109.311 30.5272 111.931 24.744C112.19 24.1734 112.499 23.4943 112.227 22.8755C111.815 21.942 109.921 22.2537 109.112 22.3952C106.649 22.8273 104.217 23.6238 101.811 24.3014C95.405 26.1021 83.9427 29.6509 77.4775 27.7071C81.5506 20.5267 88.3077 18.8961 94.6782 14.5824L94.8907 14.5854Z" fill="url(#paint6_linear_2011_2657)"/>
</g>
<path d="M94.8906 14.5859C96.1277 13.0187 103.056 10.7869 105.181 10.0681C106.574 9.59644 115.834 6.69405 116.759 6.92462C116.902 6.96078 117.023 7.05572 117.155 7.12052L117.181 7.40082C118.686 8.11813 120.321 8.61239 121.933 9.02379C125.01 9.81041 130.858 10.4494 132.035 13.9199C132.656 15.7493 131.528 17.8183 130.862 19.4895L130.788 19.5106C127.997 19.3735 125.147 19.0254 122.37 18.6999L122.375 18.6306C118.38 18.6562 113.281 18.0805 109.336 17.3753C105.691 17.7023 98.5166 15.7116 94.8906 14.5859Z" fill="#877D61"/>
<path d="M109.336 17.3763C111.803 16.1093 117.607 14.1248 120.268 14.9855C120.662 15.1126 121.048 15.3201 121.401 15.532C122.075 16.5433 122.498 17.3836 122.375 18.6301C118.38 18.6564 113.281 18.0806 109.336 17.3763Z" fill="#D54E2B"/>
<mask id="mask7_2011_2657" style="mask-type:luminance" maskUnits="userSpaceOnUse" x="5" y="30" width="201" height="121">
<path d="M169.426 30.2542C173.764 31.7681 181.106 36.5442 184.777 39.3229L184.79 39.427C186.32 40.3175 188.028 41.1867 189.449 42.2408C190.267 42.848 191.037 43.906 191.928 44.348L191.878 44.4489C193.672 45.1774 194.995 46.9387 196.372 48.232L196.476 48.0896C196.613 48.3948 196.739 48.569 196.977 48.8042L196.987 48.9019C197.548 49.4334 198.179 49.9494 198.531 50.6485C201.96 54.3584 205.761 59.1483 205.522 64.512C205.164 72.5413 197.68 79.2032 192.119 84.2324C186.071 89.7019 178.692 92.7745 171.281 95.8991C167.465 97.5082 163.69 99.0677 160.239 101.397C155.984 104.268 152.347 108.265 148.705 111.849C146.441 114.076 144.104 116.794 141.169 118.12C136.093 120.414 129.925 119.618 124.487 120.074C118.617 120.566 112.956 121.494 107.377 123.416C100.838 125.669 94.4765 128.744 88.3827 132.009C84.3888 134.148 80.5266 136.52 76.3133 138.228C71.5917 140.141 66.6581 140.741 61.6408 141.286C59.1978 141.55 56.7546 141.75 54.373 142.392C51.5535 143.151 48.9382 144.357 46.2894 145.557C40.0849 148.367 33.7659 151.084 26.7872 150.696C20.7193 150.359 15.1892 147.89 10.5028 144.09C9.41481 143.208 8.19531 141.759 6.85131 141.357C6.04572 136.794 5.5237 132.276 5.29409 127.648C5.15343 126.579 5.07548 125.525 5.02995 124.447C5.01644 122.22 4.98903 119.967 5.2284 117.75C6.43154 118.209 7.5942 118.786 8.76155 119.329C9.48977 117.441 8.77124 112.007 8.86061 109.618C9.06417 104.182 9.99366 99.1019 10.8511 93.7561L11.0072 93.7496C12.1357 94.1793 13.351 94.5651 14.4164 95.1324C15.672 95.5459 16.9331 96.013 18.2317 96.267C34.887 99.438 53.438 96.2646 69.6234 91.8417C84.091 87.8877 98.2808 82.4776 111.884 76.1738C118.369 73.168 124.975 70.281 131.192 66.7438C140.111 61.6682 149.546 54.5179 156.579 47.0185C158.813 44.6369 160.852 42.0682 162.864 39.5011C165.187 36.5401 167.445 33.5563 169.313 30.2827L169.426 30.2542Z" fill="white"/>
</mask>
<g mask="url(#mask7_2011_2657)">
<path d="M169.426 30.2547C173.764 31.7683 181.106 36.5449 184.776 39.3228L184.789 39.4277C186.319 40.3174 188.028 41.1879 189.447 42.2411C190.266 42.8487 191.037 43.9059 191.927 44.3487L191.878 44.4495C193.671 45.1784 194.994 46.9386 196.371 48.2329L196.476 48.0899C196.612 48.395 196.738 48.5694 196.977 48.8051L196.987 48.9018C197.547 49.4332 198.178 49.9495 198.531 50.6498C201.96 54.3583 205.761 59.1485 205.521 64.5122C205.163 72.5422 197.68 79.203 192.119 84.233C186.07 89.703 178.691 92.7752 171.281 95.8992C167.465 97.5082 163.69 99.0682 160.238 101.398C155.983 104.268 152.347 108.266 148.705 111.85C146.441 114.076 144.104 116.794 141.169 118.12C136.093 120.415 129.925 119.619 124.486 120.074C118.616 120.566 112.956 121.494 107.377 123.416C100.838 125.669 94.4763 128.744 88.3826 132.009C84.3887 134.149 80.5264 136.52 76.3132 138.228C71.5915 140.142 66.6579 140.741 61.6407 141.286C59.1976 141.55 56.7546 141.751 54.373 142.392C51.5535 143.151 48.9381 144.357 46.2893 145.557C40.0849 148.368 33.7658 151.084 26.7872 150.696C20.7194 150.359 15.1892 147.89 10.5028 144.091C9.41479 143.208 8.19532 141.76 6.85131 141.358C6.04573 136.794 5.52371 132.277 5.29409 127.649C5.15344 126.579 5.07548 125.525 5.02995 124.448C5.01643 122.22 4.98903 119.967 5.22841 117.75C6.43154 118.21 7.5942 118.787 8.76156 119.329C9.48977 117.441 8.77124 112.007 8.8606 109.619C9.06418 104.183 9.99366 99.1022 10.8511 93.7562L11.0072 93.7494C12.1356 94.1799 13.351 94.5654 14.4163 95.1322C15.6719 95.5464 16.9331 96.0137 18.2316 96.2671C34.887 99.4387 53.4379 96.2644 69.6233 91.842C84.0907 87.8883 98.2805 82.4782 111.884 76.1744C118.369 73.1689 124.975 70.2806 131.191 66.7438C140.111 61.6689 149.546 54.519 156.58 47.019C158.813 44.6375 160.851 42.0694 162.864 39.5013C165.187 36.5408 167.445 33.5571 169.313 30.2833L169.426 30.2547Z" fill="url(#paint7_linear_2011_2657)"/>
</g>
<path d="M93.336 126.005C93.6909 126.073 93.8756 126.16 94.1686 126.371C94.3786 126.765 94.2899 127.112 94.2346 127.534C93.9847 127.46 93.7869 127.357 93.5558 127.237C93.2636 126.842 93.323 126.471 93.336 126.005Z" fill="#F9AF5D"/>
<path d="M49.5296 135.033C50.1363 135.036 50.9272 135.018 51.4885 135.281C51.864 135.457 51.896 135.53 52.0258 135.891C51.9364 136.318 51.6537 136.51 51.3414 136.783C50.6302 136.816 49.7347 136.936 49.1133 136.525C48.8978 136.382 48.9285 136.266 48.8711 136.033C48.992 135.591 49.2282 135.358 49.5296 135.033Z" fill="#F9AF5D"/>
<path d="M80.6037 129.028C80.5806 129.576 79.4477 131.898 79.103 132.552C77.4147 135.756 71.8768 136.857 68.6553 137.845C68.7769 137.442 70.006 136.923 70.388 136.729C71.7727 136.024 73.2617 135.502 74.6245 134.771C77.0544 133.469 78.7775 131.038 80.6037 129.028Z" fill="#C73F2A"/>
<path d="M8.96484 139.229C10.702 139.681 12.3477 140.835 13.9475 141.652C15.7195 142.557 17.5975 143.408 19.4653 144.09C27.2375 146.924 33.012 146.769 40.7833 144.006C43.6775 142.976 46.505 141.886 49.5302 141.292C48.9771 141.539 48.4074 141.751 47.8441 141.973C42.1068 144.489 35.8652 147.69 29.5468 148.318C21.2955 149.138 14.969 144.184 8.96484 139.229Z" fill="#D54E2B"/>
<path d="M196.987 48.9013C197.547 49.4329 198.179 49.9484 198.531 50.6485C196.897 54.4561 195.229 58.1652 192.904 61.6134C187.271 69.9601 175.364 79.6771 167.077 85.4516C163.382 88.0262 159.378 90.0804 155.892 92.9671C148.039 99.4679 144.722 106.281 134.416 110.399C130.799 111.844 126.894 112.572 123.09 113.339C119.455 114.073 115.776 114.838 112.201 115.829C106.841 117.317 101.822 119.778 96.6737 121.838C92.1304 123.656 87.3958 125.089 82.6571 126.299C74.9009 128.276 66.8936 129.048 58.9875 130.179C55.8202 130.633 52.6611 131.054 49.5427 131.785C43.0357 133.31 37.2247 137.171 30.5501 137.934C26.7445 138.368 22.3035 137.426 18.8263 135.908C15.7229 134.554 12.6866 132.77 9.89081 130.865C8.40172 129.849 6.97192 128.305 5.29344 127.648C5.15277 126.578 5.07482 125.525 5.0293 124.447L5.3465 124.68C18.6746 130.31 33.9335 130.653 48.1499 129.288C50.7942 129.034 53.4638 128.807 56.0854 128.377C57.5527 127.721 61.7227 127.312 63.5231 127.058C66.0734 126.256 68.7772 125.923 71.3838 125.34C76.3028 124.241 81.245 122.96 86.0676 121.498C110.677 114.037 133.963 103.623 155.321 89.243C161.887 84.8226 168.308 80.0976 174.257 74.8685C175.279 73.9238 176.273 72.9179 177.35 72.0368C177.814 71.9856 178.276 71.9245 178.739 71.8583C179.245 71.1744 180.019 70.5479 180.628 69.9389C182.019 68.5511 183.418 67.1621 184.73 65.7007C189.44 60.4553 193.373 54.9404 196.987 48.9013Z" fill="#EE722E"/>
<path d="M5.34668 124.681C18.6748 130.31 33.9336 130.653 48.15 129.288C50.7943 129.035 53.4639 128.807 56.0854 128.378L56.3095 128.49C56.1129 128.74 56.0652 128.695 55.7558 128.768C53.8037 129.228 51.6685 129.42 49.6767 129.713C37.0818 131.558 22.3625 131.772 10.2925 127.316C8.93656 126.816 7.08108 126.39 5.89556 125.568C5.50119 125.294 5.44527 125.14 5.34668 124.681Z" fill="#D54E2B"/>
<path d="M178.738 71.8595C177.844 72.7474 176.605 74.2189 175.506 74.7769C171.966 78.9088 167.056 82.0808 162.67 85.2539C158.497 88.2742 154.31 91.4263 149.95 94.172C130.335 106.528 104.799 117.284 82.4077 123.333C76.5354 124.92 70.5264 126.749 64.4379 127.231C64.0572 127.262 63.8577 127.264 63.5234 127.059C66.0738 126.257 68.7776 125.924 71.3841 125.342C76.3031 124.241 81.2454 122.96 86.0678 121.499C110.677 114.038 133.963 103.623 155.321 89.243C161.886 84.8232 168.308 80.099 174.257 74.8699C175.279 73.9244 176.273 72.9179 177.349 72.0378C177.814 71.9868 178.276 71.9259 178.738 71.8595Z" fill="#D54E2B"/>
<mask id="mask8_2011_2657" style="mask-type:luminance" maskUnits="userSpaceOnUse" x="5" y="44" width="192" height="86">
<path d="M191.878 44.4489C193.672 45.1773 194.995 46.9387 196.372 48.232L196.476 48.0895C196.613 48.3948 196.739 48.5689 196.977 48.8042L196.987 48.9018C193.372 54.9411 189.44 60.4562 184.73 65.7011C183.418 67.1629 182.019 68.5514 180.629 69.9392C180.019 70.5488 179.246 71.1739 178.739 71.8592C178.276 71.9251 177.814 71.9862 177.35 72.0366C176.273 72.9181 175.279 73.9241 174.258 74.8691C168.308 80.0985 161.887 84.8233 155.322 89.2429C133.963 103.622 110.678 114.037 86.068 121.498C81.2455 122.96 76.3033 124.241 71.3843 125.341C68.7777 125.924 66.0739 126.257 63.5236 127.058C61.7232 127.312 57.5532 127.721 56.0858 128.378C53.4644 128.807 50.7948 129.034 48.1505 129.288C33.9341 130.653 18.6752 130.31 5.34715 124.681L5.02995 124.447C5.01644 122.22 4.98903 119.967 5.2284 117.75C6.43154 118.209 7.5942 118.786 8.76155 119.329C14.3784 122.22 20.9235 123.433 27.162 124.069C29.4229 124.048 31.759 124.336 34.0313 124.399C37.2422 124.488 40.5018 124.335 43.7086 124.161C63.8918 123.067 84.3897 117.287 103.181 110.093C128.726 100.311 154.179 86.3347 174.176 67.4982C181.217 60.8664 187.902 53.3597 191.878 44.4489Z" fill="white"/>
</mask>
<g mask="url(#mask8_2011_2657)">
<path d="M191.878 44.4489C193.672 45.1784 194.994 46.9383 196.371 48.2328L196.476 48.0899C196.612 48.3948 196.739 48.5695 196.977 48.8041L196.987 48.9023C193.372 54.941 189.44 60.4555 184.73 65.7008C183.418 67.1624 182.019 68.5512 180.629 69.9387C180.019 70.5483 179.246 71.1745 178.739 71.8594C178.276 71.9257 177.814 71.9869 177.35 72.0366C176.272 72.9179 175.279 73.9241 174.257 74.8691C168.308 80.0979 161.887 84.823 155.321 89.2432C133.962 103.622 110.678 114.038 86.068 121.499C81.2455 122.96 76.3032 124.242 71.3843 125.341C68.7777 125.924 66.0739 126.257 63.5235 127.058C61.7231 127.312 57.5531 127.721 56.0858 128.378C53.4643 128.808 50.7948 129.035 48.1504 129.289C33.9341 130.654 18.6752 130.31 5.34715 124.681L5.02994 124.447C5.01644 122.219 4.98903 119.967 5.2284 117.749C6.43153 118.21 7.5942 118.786 8.76157 119.329C14.3784 122.22 20.9235 123.433 27.162 124.068C29.4229 124.048 31.759 124.336 34.0314 124.4C37.2422 124.488 40.5018 124.335 43.7086 124.162C63.8917 123.067 84.3897 117.288 103.18 110.093C128.726 100.312 154.179 86.3355 174.176 67.499C181.217 60.8661 187.902 53.3596 191.878 44.4489Z" fill="url(#paint8_linear_2011_2657)"/>
</g>
<mask id="mask9_2011_2657" style="mask-type:luminance" maskUnits="userSpaceOnUse" x="26" y="39" width="166" height="86">
<path d="M184.79 39.4271C186.32 40.3175 188.028 41.1868 189.448 42.2408C190.267 42.848 191.037 43.9061 191.928 44.3481L191.878 44.449C187.902 53.3597 181.217 60.8665 174.176 67.4983C154.179 86.3348 128.726 100.311 103.18 110.093C84.3895 117.287 63.8917 123.067 43.7084 124.161C40.5017 124.335 37.2421 124.488 34.0312 124.399C31.7589 124.336 29.4227 124.049 27.1618 124.069L26.8779 123.482C27.3619 122.848 28.2762 122.36 28.9118 121.846L37.18 115.267C37.8534 114.732 38.6136 114.374 39.1717 113.706C41.1755 114.045 43.2822 114.481 45.317 114.211C50.9464 113.464 55.4219 109.177 60.0885 106.312C63.7619 104.056 67.8938 102.324 72.1314 101.508C78.1927 100.341 83.7734 102.058 89.7622 102.505C92.4913 102.708 95.2236 102.51 97.9103 102.015C100.504 101.536 102.997 100.779 105.338 99.5447C111.225 96.4404 117.714 89.1542 121.823 83.9419C124.276 80.8311 126.547 77.5364 129.466 74.8285C131.467 72.9711 133.895 71.445 136.265 70.0923C144.668 65.2934 154.644 64.9605 163.522 61.4436C170.316 58.752 177.057 52.6622 181.098 46.5798C182.594 44.3277 183.727 41.9039 184.79 39.4271Z" fill="white"/>
</mask>
<g mask="url(#mask9_2011_2657)">
<path d="M184.79 39.4274C186.319 40.3182 188.027 41.1868 189.448 42.2408C190.267 42.8482 191.037 43.9061 191.928 44.3476L191.878 44.4495C187.902 53.3599 181.217 60.8662 174.176 67.4987C154.179 86.3343 128.726 100.311 103.18 110.093C84.3894 117.287 63.8916 123.067 43.7084 124.161C40.5016 124.335 37.242 124.488 34.0312 124.399C31.7589 124.336 29.4227 124.049 27.1618 124.069L26.8779 123.482C27.3618 122.848 28.2761 122.36 28.9118 121.846L37.18 115.268C37.8534 114.732 38.6136 114.374 39.1716 113.706C41.1754 114.045 43.2821 114.481 45.3169 114.211C50.9463 113.464 55.4219 109.177 60.0884 106.312C63.7619 104.056 67.8937 102.324 72.1314 101.508C78.1926 100.341 83.7733 102.059 89.7622 102.505C92.4912 102.708 95.2235 102.509 97.9103 102.016C100.504 101.536 102.997 100.779 105.338 99.5445C111.225 96.4412 117.714 89.1543 121.823 83.9415C124.276 80.8303 126.547 77.5363 129.466 74.8287C131.467 72.9714 133.895 71.4445 136.264 70.0927C144.668 65.2939 154.644 64.9609 163.522 61.4435C170.316 58.7516 177.056 52.6624 181.098 46.5798C182.594 44.328 183.726 41.9038 184.79 39.4274Z" fill="url(#paint9_linear_2011_2657)"/>
</g>
<path d="M169.426 30.2546C173.764 31.7682 181.106 36.5448 184.776 39.3227L184.79 39.4276C183.727 41.9045 182.595 44.3282 181.099 46.5802C177.057 52.6634 170.317 58.7519 163.521 61.444C154.644 64.9618 144.668 65.2942 136.265 70.0925C133.895 71.4454 131.467 72.9713 129.466 74.8283C126.547 77.5367 124.276 80.831 121.823 83.9427C117.714 89.1539 111.225 96.44 105.338 99.5449C102.997 100.779 100.504 101.537 97.9104 102.015C95.2236 102.51 92.4913 102.708 89.7623 102.505C83.7734 102.059 78.1928 100.341 72.1316 101.508C67.8939 102.324 63.7621 104.056 60.0887 106.312C55.4222 109.177 50.9465 113.463 45.3172 114.211C43.2824 114.481 41.1757 114.046 39.1719 113.706C38.6138 114.375 37.8537 114.733 37.1802 115.267L28.912 121.846C28.2763 122.36 27.3622 122.848 26.8782 123.482L27.162 124.069C20.9236 123.433 14.3785 122.221 8.76172 119.329C9.48992 117.441 8.77139 112.007 8.86075 109.619C9.06433 104.183 9.99382 99.1022 10.8513 93.7561L11.0074 93.7493C12.1358 94.1798 13.3511 94.5654 14.4165 95.1321C15.6721 95.5463 16.9333 96.0136 18.2318 96.267C34.8871 99.4387 53.4381 96.2643 69.6234 91.8419C84.0909 87.8882 98.2807 82.4781 111.884 76.1743C118.369 73.1689 124.975 70.2806 131.191 66.7438C140.111 61.6688 149.546 54.519 156.58 47.0189C158.813 44.6375 160.851 42.0693 162.864 39.5012C165.187 36.5407 167.445 33.5571 169.313 30.2832L169.426 30.2546Z" fill="#F68331"/>
<path d="M99.5633 85.5501C100.115 85.5276 100.674 85.4979 101.225 85.5419C101.972 85.6002 103.41 85.9871 103.822 86.681C104.039 87.0485 103.973 87.1344 103.848 87.508C103.207 88.1088 102.456 88.249 101.617 88.425C101.513 88.4394 101.41 88.4517 101.306 88.4578C100.183 88.5243 98.4091 88.4578 97.6082 87.5448C97.3104 87.205 97.325 87.1129 97.3454 86.6892C97.8744 85.9052 98.7103 85.7906 99.5633 85.5501Z" fill="#F9AF5D"/>
<path d="M84.7283 94.6671C85.9182 94.5432 87.245 94.64 88.3519 95.1085C89.0551 95.4047 89.5987 95.7784 89.8861 96.4995C89.8633 96.7841 89.891 96.8877 89.7241 97.1316C89.1528 97.967 87.7666 98.0996 86.8453 98.2681C86.0501 98.3484 85.1955 98.3842 84.4059 98.239C83.5033 98.0735 82.2645 97.6253 81.7649 96.788C81.5524 96.4318 81.5825 96.213 81.6534 95.821C82.4159 94.8423 83.5815 94.8152 84.7283 94.6671Z" fill="#F9AF5D"/>
<path d="M41.4966 102.438C42.5837 102.327 44.0848 102.441 45.0169 103.031C45.485 103.328 45.8691 103.75 45.9803 104.306C46.0706 104.758 45.9406 105.224 45.6534 105.578C44.7993 106.635 43.2684 106.684 42.0237 106.778C40.7157 106.746 39.2612 106.7 38.127 105.969C37.6812 105.682 37.2643 105.242 37.2042 104.691C37.162 104.303 37.3171 103.99 37.5523 103.693C38.3658 102.666 40.2877 102.53 41.4966 102.438Z" fill="#F9AF5D"/>
<mask id="mask10_2011_2657" style="mask-type:luminance" maskUnits="userSpaceOnUse" x="8" y="93" width="32" height="32">
<path d="M10.8513 93.7561L11.0074 93.7496C12.1358 94.1794 13.3512 94.5652 14.4166 95.1325C15.6721 95.5459 16.9333 96.0131 18.2318 96.267L17.8211 96.3411C17.67 96.661 17.6981 96.4909 17.7344 96.827C17.9325 98.6616 17.225 100.514 17.5012 102.252C20.4579 107.281 25.2088 110.385 30.7963 111.841C33.5655 112.562 36.4049 112.979 39.172 113.706C38.6139 114.374 37.8537 114.732 37.1803 115.267L28.9121 121.846C28.2765 122.36 27.3622 122.848 26.8782 123.482L27.1621 124.069C20.9237 123.433 14.3786 122.22 8.76172 119.329C9.48993 117.441 8.7714 112.007 8.86077 109.618C9.06433 104.182 9.99383 99.1019 10.8513 93.7561Z" fill="white"/>
</mask>
<g mask="url(#mask10_2011_2657)">
<path d="M10.8513 93.7569L11.0074 93.75C12.1357 94.18 13.3511 94.5653 14.4166 95.1325C15.6721 95.5459 16.9333 96.0139 18.2318 96.2678L17.8211 96.3417C17.67 96.6618 17.6981 96.4916 17.7345 96.8272C17.9324 98.662 17.225 100.514 17.5013 102.252C20.4579 107.282 25.2087 110.386 30.7963 111.841C33.5654 112.563 36.4048 112.98 39.1719 113.706C38.6139 114.375 37.8537 114.733 37.1803 115.268L28.9121 121.846C28.2765 122.36 27.3622 122.848 26.8782 123.483L27.162 124.069C20.9237 123.434 14.3786 122.221 8.76172 119.329C9.48992 117.441 8.77139 112.007 8.86076 109.618C9.06434 104.183 9.9938 99.1027 10.8513 93.7569Z" fill="url(#paint10_linear_2011_2657)"/>
</g>
<path d="M25.6664 116.719C26.087 116.725 26.536 116.729 26.9509 116.797C27.3659 116.865 27.5258 116.968 27.7649 117.301C27.6897 117.758 27.4962 117.924 27.2135 118.284C26.8773 118.299 26.5404 118.293 26.2065 118.246C25.7363 118.181 25.4993 118.045 25.2178 117.67C25.2527 117.197 25.3892 117.092 25.6664 116.719Z" fill="#F9AF5D"/>
<path d="M14.416 95.1323C15.6715 95.546 16.9328 96.0128 18.2313 96.2664L17.8206 96.3407C17.6694 96.6608 17.6976 96.4911 17.7339 96.8267C17.9319 98.6619 17.2245 100.514 17.5007 102.251C16.179 99.9841 15.2691 97.604 14.416 95.1323Z" fill="#F9AF5D"/>
<path d="M197.483 27.4773C199.174 28.6463 200.778 29.9248 202.392 31.1974L203.048 31.8136C204.95 33.4116 207.036 34.9938 208.738 36.7977C211.151 38.9543 213.615 41.0677 215.582 43.662C216.699 44.4624 217.635 45.6444 218.549 46.668C224.82 53.6863 230.529 62.4366 234.665 70.8945C233.093 74.0042 231.492 77.0865 229.766 80.1127L229.531 80.546C230.452 83.1115 230.533 87.4074 230.508 90.1759C230.52 90.7042 230.647 91.5032 230.53 92.0071C230.523 95.4537 230.334 98.9924 230.595 102.426L230.49 102.721C230.493 104.359 230.328 105.988 230.16 107.616L230.092 107.781L229.892 110.922L229.715 111.568C229.586 112.995 229.463 114.422 229.293 115.844L228.979 116.339C228.765 119.407 227.618 122.367 227.022 125.37L226.647 126.218C226.405 127.17 226.143 128.106 225.847 129.041L225.606 129.643C224.334 133.722 223.087 138.083 220.962 141.815C220.025 144.636 218.381 147.322 216.968 149.933C213.614 155.256 210.189 160.399 206.237 165.304C204.872 166.999 203.519 168.749 201.902 170.215C194.238 178.784 184.4 185.934 174.452 191.594C169.985 194.135 165.47 196.586 160.78 198.698C144.978 205.808 127.889 209.711 110.619 210.669C101.382 211.181 92.0938 210.499 82.9974 208.84L82.7036 208.799C80.177 208.156 77.6655 207.457 75.1913 206.633C72.0303 205.806 68.9624 204.442 65.9342 203.227C64.3588 202.152 62.5226 201.399 60.8241 200.536C57.8023 198.999 54.7747 197.373 51.9489 195.494L51.3127 195.378C50.2458 194.342 48.7743 193.625 47.5748 192.729L47.4785 192.752C46.8671 192.115 45.9522 191.593 45.226 191.082L44.7532 190.948C43.5252 189.922 42.1677 189.018 41.0604 187.857L40.3647 187.524C39.5361 186.528 38.4434 185.733 37.4418 184.916C35.211 183.94 32.4698 180.556 30.7513 178.731C29.813 177.834 28.9281 176.911 28.0607 175.945C26.7117 174.919 25.6205 173.605 24.5134 172.333C23.2328 171.756 18.0978 170.985 16.3191 170.542C15.4329 169.366 14.8859 167.636 14.3195 166.283C12.4379 161.786 10.8335 157.44 9.50825 152.757C9.0776 151.235 8.58022 149.736 8.26378 148.184C8.01305 147.213 7.82646 146.24 7.64895 145.252C7.33696 143.96 7.08767 142.666 6.85156 141.357C8.19557 141.759 9.41506 143.208 10.503 144.09C15.1894 147.89 20.7196 150.359 26.7875 150.696C33.7662 151.083 40.0853 148.367 46.2896 145.557C48.9385 144.356 51.5539 143.151 54.3733 142.392C56.7549 141.75 59.198 141.55 61.6411 141.285C66.6583 140.741 71.5921 140.141 76.3137 138.228C80.527 136.52 84.3892 134.148 88.3831 132.008C94.477 128.744 100.839 125.669 107.377 123.416C112.956 121.493 118.617 120.565 124.487 120.074C129.926 119.618 136.093 120.414 141.17 118.12C144.104 116.794 146.441 114.075 148.706 111.849C152.348 108.265 155.984 104.267 160.239 101.397C163.691 99.0672 167.466 97.5081 171.281 95.8985C178.692 92.7745 186.072 89.7022 192.12 84.2315C197.681 79.2028 205.165 72.5415 205.522 64.5111C205.762 59.1469 201.96 54.3586 198.532 50.6486C198.179 49.949 197.549 49.4336 196.987 48.9009L196.977 48.803C196.74 48.5683 196.613 48.3941 196.476 48.0889L196.373 48.2315C194.995 46.9386 193.672 45.1779 191.878 44.448L191.928 44.3473C193.473 41.1037 195.054 37.6802 195.975 34.1977C196.564 31.9792 196.884 29.6987 197.483 27.4773Z" fill="#891D22"/>
<path d="M87.4337 164.86C87.5688 164.884 87.7715 164.914 87.896 164.962C88.2419 165.094 88.3103 165.163 88.4153 165.487C88.2834 165.897 88.0189 166.06 87.6933 166.31C87.2978 166.212 86.9226 166.174 86.6621 165.831C86.7354 165.392 87.1195 165.143 87.4337 164.86Z" fill="#F9AF5D"/>
<path d="M68.1865 166.994C68.9643 166.675 71.0746 166.941 71.9034 167.219C71.9944 167.249 72.0782 167.298 72.1658 167.337C71.4009 167.7 70.4009 168.092 69.5388 167.953C68.8328 167.839 68.58 167.554 68.1865 166.994Z" fill="#EE722E"/>
<path d="M61.8018 162.676C62.2298 162.727 62.7901 162.785 63.168 163C63.4642 163.168 63.4798 163.262 63.5811 163.565C63.4616 163.999 63.1291 164.169 62.7817 164.415C62.3508 164.426 61.7789 164.424 61.3838 164.224C61.0817 164.071 61.0694 164.005 60.9619 163.707C61.0809 163.208 61.4274 162.987 61.8018 162.676Z" fill="#F9AF5D"/>
<path d="M39.9151 169.62C40.619 169.647 41.6007 169.777 42.0943 170.334C42.2571 170.518 42.1959 170.633 42.1889 170.862C41.8793 171.31 41.5084 171.44 41.0198 171.654C40.347 171.675 39.5273 171.625 39.0448 171.068C38.7859 170.768 38.8163 170.681 38.8538 170.315C39.1561 169.918 39.471 169.804 39.9151 169.62Z" fill="#F9AF5D"/>
<path d="M99.5007 157.604C100.398 157.582 101.006 157.512 101.73 158.135C101.871 158.476 101.969 158.633 101.796 159.001C101.475 159.68 100.54 159.911 99.889 160.076C99.1931 160.099 98.2278 160.189 97.6792 159.646C97.3943 159.365 97.4602 159.171 97.5001 158.817C98.0031 158.046 98.6779 157.892 99.5007 157.604Z" fill="#D54E2B"/>
<path d="M68.1865 166.994C68.3087 166.27 68.526 165.726 69.1494 165.293C69.8779 164.786 70.8599 164.737 71.7018 164.936C72.2516 165.065 72.8534 165.346 73.1311 165.86C73.2623 166.104 73.1978 166.24 73.17 166.502C72.9096 166.867 72.5926 167.169 72.1658 167.337C72.0782 167.298 71.9944 167.249 71.9034 167.219C71.0746 166.941 68.9643 166.675 68.1865 166.994Z" fill="#D54E2B"/>
<mask id="mask11_2011_2657" style="mask-type:luminance" maskUnits="userSpaceOnUse" x="24" y="80" width="207" height="98">
<path d="M229.53 80.547C230.451 83.1117 230.531 87.4083 230.507 90.1757C230.518 90.7047 230.646 91.504 230.529 92.0078L230.361 91.9467C229.132 93.726 228.351 95.8364 227.144 97.671C222.754 104.343 217.527 110.489 211.79 116.036C206.408 121.242 200.291 125.481 194.153 129.733C190.354 132.365 186.559 135.034 182.623 137.459C175.244 142.005 167.606 145.977 159.839 149.812C137.529 160.829 114.155 169.775 89.6121 174.271C74.5045 177.039 59.2547 177.642 43.9267 177.159C40.7884 177.061 37.6492 176.89 34.5239 176.584C32.5115 176.386 30.0539 175.735 28.0599 175.945C26.7109 174.919 25.6198 173.605 24.5127 172.333C46.1059 175.356 64.9696 173.548 86.1725 168.877C111.375 163.324 135.051 154.736 157.866 142.721C166.011 138.43 174.056 133.781 181.628 128.536C188.492 123.781 195.016 118.543 201.259 113.002C212.044 103.43 221.757 92.7159 229.53 80.547Z" fill="white"/>
</mask>
<g mask="url(#mask11_2011_2657)">
<path d="M229.531 80.547C230.451 83.1117 230.532 87.408 230.508 90.175C230.519 90.704 230.647 91.5033 230.529 92.0069L230.362 91.9461C229.133 93.7257 228.351 95.8363 227.144 97.671C222.755 104.342 217.528 110.489 211.79 116.036C206.409 121.242 200.292 125.481 194.154 129.733C190.354 132.365 186.56 135.034 182.623 137.458C175.244 142.005 167.606 145.977 159.839 149.812C137.529 160.829 114.155 169.775 89.6122 174.271C74.5046 177.039 59.2548 177.642 43.9267 177.159C40.7885 177.06 37.6493 176.89 34.5238 176.583C32.5114 176.386 30.0539 175.735 28.0599 175.945C26.7109 174.919 25.6198 173.605 24.5127 172.333C46.1059 175.356 64.9696 173.548 86.1727 168.876C111.376 163.324 135.051 154.736 157.866 142.72C166.011 138.43 174.056 133.781 181.629 128.535C188.492 123.78 195.017 118.543 201.259 113.002C212.044 103.43 221.757 92.7156 229.531 80.547Z" fill="url(#paint11_linear_2011_2657)"/>
</g>
<path d="M28.0605 175.946C30.0547 175.735 32.5121 176.386 34.5245 176.584C37.65 176.891 40.7892 177.061 43.9274 177.159C59.2554 177.642 74.5051 177.039 89.6127 174.271C114.156 169.775 137.53 160.83 159.839 149.812C167.607 145.977 175.245 142.005 182.624 137.459C186.559 135.034 190.355 132.365 194.154 129.733C200.292 125.481 206.408 121.242 211.79 116.036C217.527 110.489 222.754 104.343 227.144 97.671C228.351 95.8362 229.133 93.7269 230.361 91.9472L230.529 92.008C230.522 95.4542 230.333 98.9923 230.594 102.427L230.49 102.721C223.821 110.429 217.004 117.859 209.405 124.676C201.398 131.861 192.534 138.09 183.617 144.086C174.928 149.928 166.107 155.502 156.811 160.337C126.787 175.955 92.774 184.935 59.0638 187.35C53.0585 187.781 47.0507 187.501 41.0604 187.857L40.3646 187.524C39.5359 186.528 38.4432 185.733 37.4416 184.917C35.2109 183.94 32.4697 180.557 30.7513 178.732C29.8129 177.835 28.928 176.911 28.0605 175.946Z" fill="#A3B6A2"/>
<path d="M195.628 131.546C190.75 135.727 185.767 139.69 180.317 143.112C175.513 146.129 170.44 148.695 165.415 151.32C160.961 153.646 156.528 156.024 151.908 158.011C144.972 160.994 137.847 163.539 130.78 166.191C123.309 168.995 116.084 171.955 108.345 173.998C98.4126 176.62 88.3217 178.186 78.1314 179.407C68.1499 180.603 58.1888 182.033 48.2235 183.365C46.3414 183.617 38.537 184.405 37.4413 184.916C35.2106 183.94 32.4694 180.556 30.751 178.731C34.1891 178.551 37.5629 179.188 40.9754 179.486C45.7919 179.908 50.7416 180.043 55.5697 179.769C64.9777 179.237 74.4113 178.052 83.7303 176.674C91.8491 175.473 100.123 174.14 108.054 172.029C115.911 169.937 123.568 167.067 131.229 164.37C134.372 163.263 137.583 162.359 140.703 161.189C149.094 158.043 157.15 154.201 165.046 149.978C175.549 144.363 185.264 137.397 195.628 131.546Z" fill="#86A08B"/>
<path d="M41.0596 187.857C47.05 187.501 53.0577 187.781 59.063 187.35C92.7733 184.935 126.786 175.954 156.81 160.337C166.106 155.502 174.927 149.928 183.617 144.086C192.532 138.09 201.399 131.861 209.405 124.676C217.003 117.859 223.82 110.428 230.489 102.721C230.491 104.36 230.327 105.988 230.159 107.617L230.091 107.782L229.892 110.922L229.714 111.569C229.585 112.995 229.462 114.422 229.292 115.844L228.978 116.339C223.505 122.256 219.026 127.656 212.905 133.038C202.994 141.754 191.889 149.531 180.639 156.425C150.886 174.661 120.123 186.569 85.6596 192.341C77.737 193.668 69.6557 194.918 61.6199 195.235C58.4232 195.361 55.1232 195.207 51.9481 195.494L51.3119 195.378C50.245 194.343 48.7736 193.625 47.574 192.729L47.4776 192.752C46.8661 192.116 45.9514 191.593 45.2251 191.082L44.7524 190.948C43.5243 189.922 42.1669 189.018 41.0596 187.857Z" fill="#D54E2B"/>
<path d="M45.2256 191.082C47.5245 190.904 49.9307 191.185 52.2525 191.106C59.0247 190.877 65.7969 190.448 72.524 189.622C111.738 184.809 149.182 171.301 182.237 149.619C188.654 145.408 195.003 140.997 200.963 136.156C207.463 130.876 213.927 125.457 219.698 119.373C221.749 117.212 223.766 114.982 225.695 112.711C227.042 111.126 228.318 109.156 229.967 107.875C230.008 107.843 230.05 107.813 230.091 107.782L229.892 110.923L229.713 111.569C223.931 117.169 218.834 123.392 212.755 128.721C206.358 134.332 199.595 139.501 192.689 144.468C157.965 169.448 120.399 184.217 78.1432 190.534C71.0665 191.592 63.9396 192.261 56.7907 192.582C54.0038 192.707 50.2143 192.392 47.5743 192.729L47.4781 192.752C46.8666 192.116 45.9517 191.593 45.2256 191.082Z" fill="#F68331"/>
<path d="M47.5742 192.729C50.2142 192.393 54.0036 192.708 56.7906 192.582C63.9395 192.262 71.0664 191.592 78.143 190.534C120.399 184.217 157.965 169.448 192.688 144.468C199.594 139.501 206.357 134.332 212.755 128.721C218.832 123.392 223.931 117.17 229.713 111.569C229.585 112.996 229.462 114.423 229.292 115.845L228.977 116.339C223.504 122.257 219.025 127.656 212.905 133.039C202.993 141.755 191.889 149.531 180.639 156.426C150.886 174.661 120.123 186.569 85.6598 192.341C77.7372 193.668 69.656 194.918 61.6201 195.236C58.4236 195.362 55.1236 195.207 51.9483 195.494L51.3122 195.378C50.2452 194.343 48.7738 193.626 47.5742 192.729Z" fill="#D54E2B"/>
<path d="M7.64844 145.253C8.82961 146.202 9.72008 147.592 11.1663 148.753C18.7637 154.853 32.0989 160.935 42.0488 159.639C49.014 158.733 55.5102 155.602 61.7906 152.655C65.4617 150.932 68.9521 149.004 72.5444 147.134C75.0089 145.852 77.5648 144.709 79.9564 143.294C82.1113 142.019 84.0818 140.404 86.1508 138.993C89.185 136.926 92.5384 135.231 95.9357 133.857C107.363 129.234 117.012 128.049 128.958 125.971C136.398 124.677 143.806 123.157 151.113 121.239C155.574 120.07 159.955 118.522 164.238 116.815C167.083 115.682 171.509 112.986 174.297 112.69C172.824 114.327 170.917 115.707 169.173 117.045C166.453 119.129 163.656 121.167 161.081 123.432C159.877 124.491 158.758 125.676 157.759 126.931C157.044 127.833 156.394 128.905 155.536 129.674C153.577 131.428 151.17 132.814 149.057 134.389C146.403 136.367 144.017 138.636 141.188 140.379C134.667 144.399 127.324 146.389 119.907 148.003C116.872 148.663 113.983 149.286 110.869 149.446C107.91 149.597 104.934 149.57 101.982 149.811C93.214 150.527 84.7069 152.32 76.2547 154.71C71.5224 156.048 66.8434 157.564 62.252 159.328C53.2113 162.802 44.0669 167.635 34.0788 166.914C28.8888 166.539 24.1787 164.68 19.5465 162.444C18.0767 161.734 16.6281 160.915 15.1125 160.313C13.4284 157.882 12.007 155.26 10.7339 152.593C10.1413 151.354 9.64864 149.931 8.93914 148.765C8.76538 148.479 8.551 148.339 8.26327 148.184C8.01254 147.213 7.82594 146.24 7.64844 145.253Z" fill="#AE2D29"/>
<path d="M75.3296 146.758C75.7541 146.743 76.2116 146.699 76.6306 146.777C76.9724 146.841 77.0076 146.824 77.1986 147.127C77.0811 147.514 76.7674 147.678 76.4548 147.902C75.8513 147.945 75.2368 148.03 74.7402 147.643C74.8188 147.174 74.9986 147.087 75.3296 146.758Z" fill="#F9AF5D"/>
<path d="M197.482 27.4778C199.174 28.6476 200.777 29.925 202.391 31.1982L203.048 31.8148C204.95 33.4122 207.036 34.9944 208.738 36.7987C208.745 36.8484 208.752 36.8966 208.76 36.9463C209.305 40.2349 210.965 43.3538 211.487 46.7872C213.628 60.8602 208.784 74.2959 200.773 85.7094C199.518 87.4957 198.122 89.1662 196.676 90.7995C195.916 91.6603 194.995 92.5307 194.348 93.4742C193.777 93.5432 192.815 93.5515 192.425 94.0287C192.057 94.4771 192.167 95.033 192.284 95.5434L192.167 95.6592C190.834 96.9932 189.701 98.5147 188.382 99.8665C185.255 103.074 181.904 106.113 178.581 109.114C177.33 110.244 175.774 111.894 174.298 112.69C171.509 112.986 167.083 115.682 164.239 116.815C159.954 118.522 155.575 120.069 151.112 121.24C143.807 123.157 136.398 124.677 128.958 125.971C117.013 128.049 107.364 129.233 95.9361 133.857C92.5388 135.232 89.1854 136.926 86.1511 138.994C84.0822 140.403 82.1117 142.019 79.9567 143.294C77.5652 144.709 75.0093 145.853 72.5449 147.135C68.9526 149.004 65.4622 150.932 61.7911 152.655C55.5106 155.602 49.0145 158.733 42.0493 159.64C32.0993 160.935 18.7643 154.853 11.1669 148.753C9.7206 147.592 8.83012 146.203 7.64895 145.253C7.33696 143.96 7.08767 142.666 6.85156 141.357C8.19557 141.759 9.41505 143.208 10.503 144.09C15.1895 147.89 20.7196 150.359 26.7875 150.696C33.7662 151.084 40.0851 148.368 46.2895 145.557C48.9383 144.357 51.5537 143.151 54.3732 142.392C56.7549 141.75 59.198 141.55 61.641 141.286C66.6583 140.741 71.5918 140.141 76.3135 138.228C80.5269 136.52 84.389 134.148 88.3829 132.009C94.4767 128.744 100.838 125.669 107.377 123.416C112.956 121.494 118.617 120.566 124.487 120.074C129.925 119.618 136.093 120.414 141.169 118.12C144.105 116.794 146.441 114.076 148.705 111.85C152.347 108.265 155.983 104.268 160.239 101.398C163.691 99.0678 167.465 97.5077 171.281 95.8993C178.691 92.7748 186.071 89.7015 192.119 84.232C197.681 79.2026 205.164 72.5413 205.521 64.5116C205.761 59.1483 201.96 54.3589 198.532 50.6496C198.179 49.9489 197.548 49.4329 196.987 48.9019L196.977 48.8039C196.738 48.5694 196.613 48.3956 196.476 48.0894L196.371 48.2328C194.995 46.9389 193.672 45.1774 191.879 44.449L191.928 44.3483C193.473 41.1039 195.054 37.6802 195.976 34.1985C196.563 31.9789 196.883 29.6987 197.482 27.4778Z" fill="#C73F2A"/>
<path d="M40.26 152.366C41.0837 152.247 41.9764 152.181 42.7852 152.416C43.4932 152.622 44.4031 153.057 44.7303 153.771C44.9054 154.154 44.9321 154.509 44.7847 154.904C44.474 155.735 43.6382 156.121 42.8982 156.491C42.0856 156.63 41.2815 156.742 40.4695 156.532C39.6935 156.331 38.856 155.878 38.4655 155.148C38.2452 154.736 38.2306 154.321 38.3949 153.883C38.6963 153.079 39.5423 152.701 40.26 152.366Z" fill="#AE2D29"/>
<path d="M41.0065 153.343C41.7066 153.331 42.5034 153.39 43.034 153.923C43.3272 154.218 43.3038 154.316 43.3047 154.705C43.0442 155.118 42.8201 155.238 42.3968 155.437C41.7445 155.394 41.0768 155.361 40.4997 155.014C40.1523 154.805 40.1104 154.647 40.0381 154.266C40.2882 153.772 40.556 153.654 41.0065 153.343Z" fill="#D54E2B"/>
<path d="M228.978 116.339C228.763 119.407 227.615 122.367 227.02 125.371L226.646 126.219C226.403 127.17 226.142 128.106 225.845 129.041L225.604 129.644C224.332 133.722 223.086 138.083 220.959 141.816C220.024 144.637 218.379 147.323 216.967 149.934C213.612 155.257 210.188 160.399 206.236 165.305C204.871 166.999 203.518 168.749 201.901 170.216C194.236 178.785 184.4 185.934 174.452 191.594C169.983 194.135 165.47 196.587 160.779 198.698C144.978 205.808 127.888 209.711 110.618 210.669C101.381 211.181 92.0927 210.5 82.9964 208.84L82.7027 208.799C80.176 208.156 77.6647 207.457 75.1905 206.633C72.0293 205.807 68.9614 204.442 65.9333 203.227C64.3579 202.152 62.5218 201.399 60.8233 200.536C57.8014 198.999 54.7738 197.373 51.9482 195.494C55.1233 195.207 58.4233 195.362 61.6198 195.235C69.6557 194.918 77.7371 193.668 85.6596 192.341C120.123 186.569 150.887 174.661 180.638 156.426C191.889 149.531 202.992 141.755 212.904 133.038C219.025 127.656 223.503 122.257 228.978 116.339Z" fill="#86A08B"/>
<path d="M220.96 141.815C220.024 144.636 218.379 147.322 216.967 149.933C213.612 155.257 210.188 160.399 206.236 165.304C204.871 166.999 203.518 168.749 201.902 170.216C200.663 169.527 195.019 170.963 193.499 171.399C191.226 172.051 188.942 172.718 186.695 173.458C187.887 172.337 189.388 171.467 190.72 170.518C193.872 168.275 196.687 165.636 198.775 162.36C195.233 162.76 191.407 163.594 188.054 164.761C184.468 166.008 181.068 167.795 177.682 169.492C170.733 172.973 163.852 176.487 157.926 181.593C152.8 186.008 148.309 191.784 141.85 194.306C137.862 195.863 133.511 196.756 129.334 197.659L116.142 200.515C107.669 202.419 99.3302 204.823 90.9045 206.909C88.733 207.447 84.7667 207.536 82.9964 208.84L82.7027 208.799C80.176 208.156 77.6646 207.457 75.1904 206.633C77.2292 205.42 80.4475 204.695 82.7247 203.921C89.1603 201.735 95.657 199.943 102.334 198.646C111.938 196.783 121.742 195.736 130.861 191.963C137.111 189.376 142.645 185.511 148.188 181.696C155.326 176.785 162.548 171.499 170.066 167.21C175.452 164.136 181 161.322 186.783 159.066C190.721 157.53 194.806 156.358 198.639 154.553C206.42 150.893 213.464 145.975 220.96 141.815Z" fill="#3E999E"/>
<path d="M82.9971 208.84C84.7672 207.536 88.7336 207.447 90.9051 206.909C99.3307 204.823 107.669 202.419 116.142 200.515L129.334 197.659C133.511 196.756 137.862 195.863 141.849 194.306C148.309 191.784 152.8 186.008 157.926 181.593C163.853 176.487 170.734 172.973 177.683 169.492C181.069 167.795 184.469 166.008 188.054 164.761C191.407 163.594 195.233 162.76 198.774 162.36C196.687 165.636 193.872 168.275 190.721 170.518C189.388 171.467 187.887 172.337 186.696 173.458C188.942 172.718 191.226 172.051 193.499 171.399C195.019 170.964 200.663 169.527 201.902 170.216C194.236 178.785 184.401 185.934 174.452 191.594C169.984 194.135 165.471 196.587 160.78 198.698C144.978 205.808 127.888 209.711 110.619 210.669C101.382 211.181 92.0933 210.5 82.9971 208.84Z" fill="#5AA49D"/>
</g>
<defs>
<linearGradient id="paint0_linear_2011_2657" x1="71.4399" y1="-85.3998" x2="52.4178" y2="-96.2135" gradientUnits="userSpaceOnUse">
<stop stop-color="#F36237"/>
<stop offset="1" stop-color="#F89B4A"/>
</linearGradient>
<linearGradient id="paint1_linear_2011_2657" x1="208.701" y1="-207.39" x2="122.634" y2="-1.47091" gradientUnits="userSpaceOnUse">
<stop stop-color="#ACB398"/>
<stop offset="1" stop-color="#FBCDA3"/>
</linearGradient>
<linearGradient id="paint2_linear_2011_2657" x1="188.083" y1="-91.5844" x2="142.152" y2="-135.142" gradientUnits="userSpaceOnUse">
<stop stop-color="#DB3D24"/>
<stop offset="1" stop-color="#E37751"/>
</linearGradient>
<linearGradient id="paint3_linear_2011_2657" x1="216.516" y1="-117.628" x2="85.8347" y2="-170.514" gradientUnits="userSpaceOnUse">
<stop stop-color="#E6924C"/>
<stop offset="1" stop-color="#F9CA8A"/>
</linearGradient>
<linearGradient id="paint4_linear_2011_2657" x1="72.9653" y1="-33.9432" x2="48.8731" y2="-58.2978" gradientUnits="userSpaceOnUse">
<stop stop-color="#E37551"/>
<stop offset="1" stop-color="#EBA171"/>
</linearGradient>
<linearGradient id="paint5_linear_2011_2657" x1="158.175" y1="-126.497" x2="99.8049" y2="-140.66" gradientUnits="userSpaceOnUse">
<stop stop-color="#F68133"/>
<stop offset="1" stop-color="#F9A652"/>
</linearGradient>
<linearGradient id="paint6_linear_2011_2657" x1="226.194" y1="-170.578" x2="144.13" y2="-162.797" gradientUnits="userSpaceOnUse">
<stop stop-color="#F26F26"/>
<stop offset="1" stop-color="#F68937"/>
</linearGradient>
<linearGradient id="paint7_linear_2011_2657" x1="197.317" y1="-113.841" x2="150.148" y2="105.001" gradientUnits="userSpaceOnUse">
<stop stop-color="#D2462C"/>
<stop offset="1" stop-color="#F36127"/>
</linearGradient>
<linearGradient id="paint8_linear_2011_2657" x1="156.221" y1="-67.9476" x2="160.424" y2="56.6422" gradientUnits="userSpaceOnUse">
<stop stop-color="#E0913C"/>
<stop offset="1" stop-color="#FABA5C"/>
</linearGradient>
<linearGradient id="paint9_linear_2011_2657" x1="202.653" y1="16.7126" x2="155.477" y2="-43.3021" gradientUnits="userSpaceOnUse">
<stop stop-color="#A91D22"/>
<stop offset="1" stop-color="#CA4F3D"/>
</linearGradient>
<linearGradient id="paint10_linear_2011_2657" x1="34.0237" y1="96.8865" x2="9.71537" y2="65.7364" gradientUnits="userSpaceOnUse">
<stop stop-color="#CA4E3D"/>
<stop offset="1" stop-color="#E3774E"/>
</linearGradient>
<linearGradient id="paint11_linear_2011_2657" x1="216.247" y1="21.0381" x2="241.473" y2="90.7349" gradientUnits="userSpaceOnUse">
<stop stop-color="#939682"/>
<stop offset="1" stop-color="#89AB96"/>
</linearGradient>
<clipPath id="clip0_2011_2657">
<rect width="252.174" height="252.326" fill="white"/>
</clipPath>
</defs>
</svg>
