<svg width="317" height="438" viewBox="0 0 317 438" fill="none" xmlns="http://www.w3.org/2000/svg">
<path d="M71.7027 286.025C74.513 285.866 77.2628 285.37 80.0566 285.065C84.145 284.62 88.2483 284.34 92.3349 283.872C92.6038 284.225 92.5208 284.309 92.512 284.737C93.9028 284.857 95.5782 284.201 96.9963 284.075C99.9179 283.815 102.939 284.528 105.793 285.071L106.583 285.11C108.866 285.451 110.868 286.011 112.968 286.984L113.108 287.094C116.516 288.56 120.109 291.527 122.507 294.356C123.663 295.718 124.651 297.234 125.855 298.553C129.647 302.712 131.746 303.707 134.028 309.335C137.535 317.985 134.959 325.534 135.048 334.186C138.99 329.816 139.207 323.753 141.812 318.728C141.763 317.972 141.724 317.281 141.837 316.53C147.336 328.549 147.051 337.905 147.112 350.759C147.133 355.128 147.037 359.674 148.011 363.955C147.411 368.534 147.191 373.096 146.751 377.682C146.342 381.938 145.729 386.167 145.538 390.444C144.834 386.47 144.053 382.51 143.194 378.565C142.047 384.32 139.369 388.811 136.059 393.575C128.199 404.888 117.623 410.595 104.575 414.24C99.1733 415.748 93.7582 416.886 88.6039 419.183C80.9964 422.579 74.067 428.029 67.9681 433.611C69.0955 430.971 70.3704 428.378 71.5596 425.764C72.5694 423.544 73.4384 421.198 74.74 419.132C75.8169 417.418 77.0843 416.04 78.3437 414.476C70.4069 420.015 63.4393 421.802 54.3079 424.038C49.484 425.22 44.7014 426.385 39.8402 427.418C36.9417 428.032 31.9724 428.581 29.5175 430.111C28.2371 430.911 26.1842 431.398 25.2391 432.542C24.8653 432.996 25.1247 432.851 24.6467 432.993C25.4289 428.592 27.4698 424.322 27.7903 419.859C28.1413 414.964 27.8385 409.915 27.7055 405.013C27.6131 400.491 27.5791 395.968 27.6033 391.444C27.6028 386.289 27.6386 381.268 28.8071 376.21C29.4328 373.598 30.1976 371.028 31.1013 368.5C32.0049 365.97 33.0424 363.496 34.2137 361.079C35.5713 358.254 37.1975 355.501 38.3281 352.579L38.4523 352.253C35.9638 353.823 33.8203 356.031 31.5544 357.903C23.8974 364.226 15.9414 369.866 5.96964 371.6C13.1161 367.202 17.9 364.816 23.1943 357.811C29.3585 349.654 30.1092 341.241 32.7385 331.875C34.036 327.254 35.9181 323.124 38.0358 318.842C42.9834 308.836 48.302 300.579 56.6008 292.971C51.9554 294.16 49.0462 297.233 44.9003 298.557C48.709 296.051 51.8228 292.626 55.7036 290.193C61.1206 289.727 66.022 286.429 71.5524 286.057L71.7027 286.025Z" fill="#FE9500"/>
<path d="M135.048 334.186C138.99 329.816 139.206 323.753 141.812 318.729C142.301 328.112 137.906 335.304 133.411 343.182C134.099 340.27 134.805 337.438 134.99 334.441L135.048 334.186Z" fill="#A75C00"/>
<path d="M114.471 367.409L114.725 367.65C114.776 369.528 114.301 371.537 114.086 373.42C113.786 376.037 113.477 378.597 112.648 381.116C108.372 394.097 95.2259 402.387 86.71 412.449L86.4981 412.263C86.0976 410.822 86.4074 408.699 86.7292 407.266C88.2454 400.486 92.2116 397.046 97.1519 392.582C99.9025 390.096 102.562 387.568 104.953 384.728C105.485 384.092 106.002 383.444 106.503 382.785C107.003 382.123 107.487 381.451 107.955 380.769C108.423 380.084 108.874 379.388 109.308 378.68C109.742 377.975 110.159 377.26 110.558 376.534C110.957 375.806 111.338 375.071 111.701 374.327C112.065 373.582 112.41 372.829 112.737 372.068C113.063 371.304 113.371 370.535 113.661 369.759C113.95 368.983 114.22 368.2 114.471 367.409Z" fill="#FECD00"/>
<path d="M71.7026 286.025C74.5129 285.867 77.2627 285.37 80.0565 285.065C84.1449 284.62 88.2482 284.34 92.3348 283.872C92.6037 284.226 92.5207 284.309 92.5118 284.737C93.9027 284.857 95.5781 284.201 96.9962 284.075C99.9178 283.815 102.939 284.528 105.793 285.071L106.583 285.11C108.866 285.451 110.868 286.011 112.968 286.984L113.108 287.094C116.516 288.56 120.109 291.527 122.507 294.356C123.662 295.718 124.651 297.234 125.855 298.553C129.647 302.712 131.746 303.707 134.028 309.335C137.535 317.985 134.959 325.534 135.048 334.186L134.99 334.441C130.998 340.405 126.411 345.931 121.008 350.695C118.284 353.097 114.704 355.34 112.483 358.175C109.762 361.648 107.895 366.374 106.409 370.492C107.043 363.873 107.154 357.076 105.568 350.59C105.534 350.664 105.499 350.737 105.465 350.811L105.302 351.183C104.384 353.24 104.258 355.367 103.65 357.507C102.835 360.38 100.832 363.656 99.2269 366.156C97.7877 368.396 96.3708 370.836 94.6623 372.883C93.2763 374.544 91.5585 376.004 89.9463 377.449C83.0653 383.611 76.1553 388.183 68.0896 392.645C73.5691 386.56 76.5143 380.276 80.0597 373.023C82.3401 368.33 84.6559 363.656 87.0072 358.998C79.8415 366.843 72.0892 374.221 62.8368 379.575C58.1809 382.269 53.2976 384.119 48.9629 387.407C57.7748 375.52 59.256 364.222 61.975 350.265C62.9478 345.272 64.2559 340.386 64.7278 335.301C65.2763 329.39 65.029 323.513 65.3688 317.614C65.7891 310.316 68.6646 303.507 71.5752 296.925C72.4366 294.977 73.2169 292.874 74.3947 291.092C75.6578 289.181 77.2474 287.661 78.9555 286.153C75.4209 287.23 71.9659 288.168 68.7039 289.94L71.5522 286.058L71.7026 286.025Z" fill="#FECD00"/>
<path d="M105.793 285.071L106.583 285.11C108.866 285.451 110.868 286.011 112.967 286.984L113.107 287.094C114.198 291.051 116.147 294.5 117.497 298.333C120.714 307.474 121.288 311.436 119.634 320.904C118.947 324.84 118.132 328.147 116.386 331.768C116.238 328.11 115.759 324.669 115.052 321.079C114.891 321.635 114.72 322.188 114.54 322.738C114.361 323.289 114.172 323.836 113.975 324.38C113.778 324.924 113.572 325.465 113.357 326.003C113.142 326.54 112.919 327.074 112.687 327.605C112.455 328.135 112.215 328.661 111.966 329.184C111.717 329.707 111.46 330.225 111.194 330.739C110.928 331.254 110.655 331.763 110.373 332.269C110.09 332.774 109.8 333.275 109.502 333.771C109.204 334.267 108.897 334.758 108.583 335.244C108.269 335.731 107.947 336.212 107.618 336.687C107.288 337.163 106.951 337.634 106.606 338.099C106.261 338.564 105.909 339.023 105.549 339.476C105.189 339.929 104.822 340.377 104.448 340.819C104.074 341.261 103.693 341.696 103.305 342.125C102.916 342.555 102.521 342.978 102.119 343.394C101.718 343.811 101.309 344.221 100.894 344.625C102.497 338.784 103.467 332.082 102.794 326.033C99.183 335.587 96.5673 341.218 87.9811 347.214C85.4399 348.989 82.6438 350.502 80.3598 352.613C77.7665 355.01 76.5716 358.3 74.2613 360.803C74.4217 360.395 74.57 359.983 74.7253 359.573C75.5881 357.298 75.5588 354.916 76.235 352.623C76.8294 350.607 78.3689 348.931 78.9025 346.872C80.2623 341.628 81.1744 335.75 81.441 330.325C81.6539 326.001 81.566 321.746 81.9213 317.406C80.5697 319.909 79.1154 322.348 77.6639 324.794C78.1276 321.903 78.0268 318.939 78.1493 316.019C78.3519 311.184 79.6077 306.06 81.8845 301.779C87.7816 290.693 94.5933 288.472 105.793 285.071Z" fill="#FEDD2B"/>
<path d="M140.434 27.7896C143.378 21.8412 144.382 14.58 144.253 7.97215C144.224 6.50477 143.541 4.45822 143.744 3.10061C143.86 2.32355 144.146 1.70766 144.807 1.26302C145.564 1.23076 145.946 1.3765 146.523 1.87953C152.058 6.70465 154.382 18.1694 154.663 25.1882C154.838 29.5332 154.032 33.9205 151.741 37.6754C156.136 43.0377 160.784 48.5245 164.351 54.4894C168.638 61.6611 171.072 70.0121 173.507 77.95C174.669 81.739 175.926 85.5336 176.845 89.3904C185.063 88.6032 193.509 88.1126 201.639 86.7043C207.128 85.7537 212.418 84.0253 217.918 83.1295C218.162 78.3585 218.414 75.9786 222.081 72.6362C225.963 69.0985 230.571 66.1537 235 63.3556C236.119 62.6395 237.245 61.9372 238.38 61.2487C239.516 60.5601 240.66 59.8855 241.811 59.2249C242.963 58.5641 244.123 57.9175 245.29 57.2852C246.458 56.6527 247.633 56.0346 248.816 55.4309C249.998 54.827 251.188 54.2376 252.385 53.6629C253.582 53.0881 254.786 52.5279 255.996 51.9824C257.207 51.4371 258.424 50.9066 259.648 50.3908C260.871 49.8751 262.101 49.3742 263.337 48.8883C264.573 48.4027 265.814 47.9321 267.061 47.4765C268.309 47.021 269.561 46.5807 270.819 46.1557C272.077 45.7306 273.341 45.3209 274.609 44.9265C275.875 44.5326 277.148 44.1539 278.427 43.7906C279.703 43.4274 280.985 43.0799 282.271 42.748C283.557 42.4158 284.846 42.0996 286.137 41.7994C287.431 41.4987 288.728 41.2139 290.029 40.9449C291.33 40.6759 292.634 40.4229 293.94 40.1858C298.153 39.4524 302.639 38.6413 306.92 38.8307C309.264 38.9345 311.503 39.4898 313.207 41.2022C318.334 57.5456 317.339 94.9297 315.153 112.148C314.614 116.374 313.919 120.574 313.069 124.748C312.216 128.922 311.21 133.059 310.052 137.158C309.222 140.117 308.492 143.537 307.105 146.285C306.487 147.515 305.482 147.982 304.195 148.364C302.357 148.912 300.471 149.32 298.643 149.91C296.441 155.133 294.373 160.466 291.702 165.471C287.612 173.14 282.374 180.342 277.604 187.615C263.827 208.224 249.642 228.549 235.048 248.588C231.272 253.87 227.374 259.061 223.354 264.159C221.963 265.923 218.637 269.352 217.716 271.062C216.827 272.153 215.967 273.319 215.005 274.343C211.331 278.963 207.681 283.632 203.81 288.089C199.019 293.606 193.954 298.9 188.971 304.245C186.368 307.052 183.75 309.844 181.115 312.622C178.707 315.129 176.188 317.549 174.049 320.299C175.488 324.547 176.732 329.441 174.536 333.683C173.194 336.276 170.767 337.96 168.017 338.795C164.293 339.925 159.955 339.773 156.168 339.048C155.32 342.062 153.884 344.783 152.885 347.724C151.968 350.425 151.476 353.275 150.669 356.011C149.879 358.689 148.801 361.284 148.012 363.956C147.038 359.674 147.133 355.128 147.113 350.759C147.051 337.905 147.337 328.55 141.838 316.53C141.725 317.281 141.764 317.973 141.812 318.729C139.207 323.753 138.991 329.816 135.049 334.186C134.959 325.535 137.536 317.985 134.028 309.335C131.747 303.708 129.647 302.713 125.855 298.554C124.652 297.234 123.663 295.719 122.507 294.356C120.11 291.528 116.516 288.56 113.108 287.095L112.968 286.984C110.869 286.011 108.867 285.451 106.584 285.111L105.793 285.071C102.94 284.529 99.9183 283.815 96.9967 284.075C95.5786 284.201 93.9032 284.858 92.5124 284.737C92.5212 284.31 92.6042 284.226 92.3353 283.872C88.2487 284.341 84.1454 284.62 80.057 285.066C77.2632 285.37 74.5134 285.867 71.7031 286.025L71.5528 286.058C66.0224 286.429 61.121 289.727 55.704 290.194C58.9471 286.963 62.363 283.893 65.5512 280.61C67.5881 278.512 69.3938 276.197 71.4688 274.141C70.1165 269.823 68.8295 264.928 71.1507 260.672C72.6057 258.004 75.2034 256.442 78.061 255.646C79.6593 255.2 81.3812 254.957 83.0332 254.81C95.6999 235.328 108.931 216.236 122.727 197.536C107.939 204.935 88.8137 204.405 73.3802 199.279C70.7307 198.4 68.0982 197.418 65.6623 196.041C56.6721 190.957 48.6977 181.452 44.166 172.366C35.7019 155.397 32.3747 134.149 33.8735 115.335C34.7713 104.067 37.7304 91.2176 41.3193 80.5004C43.1033 75.2319 45.1149 70.052 47.3542 64.9605C49.5937 59.8691 52.0522 54.8857 54.7296 50.0103C51.4079 39.1098 51.819 27.9323 55.4318 17.1722C56.0294 15.3927 56.567 13.3313 57.4657 11.6974C57.9193 10.8734 58.5478 10.0912 59.4603 9.78477C59.9884 9.86743 60.1659 9.89702 60.5069 10.3668C60.8059 10.7785 60.8911 11.2826 60.9268 11.777C61.0219 13.0972 60.852 14.4406 60.8521 15.7642C60.8522 18.6521 61.2604 21.7227 62.0642 24.4986C62.9888 27.6928 64.7765 30.4183 66.579 33.1739C76.6097 22.3129 89.875 16.0846 104.664 15.4519C117.163 14.9171 130.46 20.4567 140.434 27.7896Z" fill="black"/>
<path d="M131.736 250.141C134.021 249.999 136.303 249.827 138.583 249.624C138.294 251.616 138.07 253.564 137.988 255.577C137.373 253.703 136.881 251.973 136.682 250.005C135.06 250.122 133.352 250.37 131.736 250.141Z" fill="#615D6E"/>
<path d="M68.1886 34.7891C69.5136 36.2993 71.0411 37.7439 72.5409 39.0823L72.6113 39.2315C72.1899 39.7175 71.7786 40.2363 71.3318 40.698C70.2657 39.1488 69.0879 37.5009 68.2699 35.8131C68.029 35.3161 68.0027 35.2807 68.1886 34.7891Z" fill="#859D7A"/>
<path d="M227.201 76.5401C228.66 75.6003 231.378 73.2908 233.02 72.9563C233.345 74.5356 233.751 76.1392 233.974 77.7341C231.724 77.296 229.466 76.8981 227.201 76.5401Z" fill="#8A2025"/>
<path d="M193.178 90.1351C199.285 89.1674 205.174 88.533 211.192 86.9836C210.923 87.4325 210.666 87.895 210.367 88.3255L210.073 88.4203C204.166 89.7127 198.195 91.2925 192.241 92.301C192.529 91.571 192.864 90.8548 193.178 90.1351Z" fill="#CCFEA3"/>
<path d="M285.303 125.645L285.622 125.518C289.424 128.452 293.664 136.758 296.001 141.119C296.814 142.631 297.852 145.596 299.198 146.591C299.593 146.883 299.603 146.864 300.107 146.775C300.358 146.508 300.467 146.335 300.566 145.979C300.987 144.449 302.137 143.873 302.596 142.503C302.336 139.03 296.662 128.792 294.622 125.474C293.193 123.179 291.657 120.958 290.016 118.811L290.125 118.387C296.139 125.481 301.593 136.915 304.494 145.703C302.552 146.238 300.58 146.729 298.664 147.359C295.821 140.382 290.196 131.323 285.303 125.645Z" fill="#EF493D"/>
<path d="M183 145.702C185.785 143.902 189.521 143.553 192.613 142.347C194.755 141.511 196.581 139.911 198.748 139.223C199.036 139.267 199.278 139.223 199.478 139.462C200.034 140.123 199.834 141.073 199.717 141.85C195.296 143.976 191.078 145.225 186.185 145.647C185.187 145.733 183.979 145.935 183 145.702Z" fill="#CCFEA3"/>
<path d="M222.055 76.0951C224.595 73.6257 227.273 71.5641 230.153 69.5227C231.548 70.3727 232.236 71.0981 232.99 72.5445L233.019 72.9562C231.377 73.2907 228.66 75.6002 227.201 76.54L222.055 76.0951Z" fill="#97312A"/>
<path d="M177.35 91.7718C182.634 91.2989 187.91 90.7533 193.179 90.135C192.864 90.8547 192.53 91.571 192.241 92.301L192.141 92.4177C187.314 93.1198 182.762 94.1651 177.851 94.1948L177.35 91.7718Z" fill="#859D7A"/>
<path d="M169.614 322.55C168.977 319.763 167.561 316.929 166.276 314.39C165.41 312.68 160.868 305.667 160.93 304.521L161.054 304.518L161.106 304.23C166.372 310.575 174.192 321.107 173.234 329.671C173.121 330.679 172.855 331.557 172.447 332.481C172.145 331.492 172.065 330.387 171.894 329.366C171.465 326.823 170.801 324.843 169.614 322.55Z" fill="#F85D5C"/>
<path d="M145.738 19.9396C147.183 22.7376 147.903 27.261 149.507 29.496C149.974 30.1459 150.877 30.8005 151.551 31.237C151.07 32.7387 150.514 34.22 149.984 35.7055C147.605 33.3281 145.07 31.2171 142.397 29.1834C144.161 26.274 145.186 23.2857 145.738 19.9396Z" fill="#597848"/>
<path d="M217.028 164.626C216.845 163.706 217.22 163.131 217.157 162.281C216.988 160.038 197.712 153.942 194.649 151.367L195.023 151.086C200.921 152.289 215.955 155.828 219.337 160.864C219.684 161.382 219.894 161.972 219.785 162.604C219.657 163.346 219.233 163.96 218.557 164.3C218.09 164.535 217.54 164.58 217.028 164.626Z" fill="#CCFEA3"/>
<path d="M146.86 12.0471C148.164 13.7133 149.415 15.9753 150.903 17.4156C152.034 21.4233 152.384 27.1713 151.551 31.2369C150.877 30.8005 149.974 30.1458 149.507 29.4959C147.903 27.261 147.183 22.7375 145.738 19.9395C146.282 17.3385 146.56 14.6848 146.86 12.0471Z" fill="#86C260"/>
<path d="M216.135 86.0036C216.626 85.8207 216.953 85.6396 217.481 85.7667C217.24 86.9139 214.173 89.1433 213.235 89.9829C208.283 94.4135 203.72 99.4284 199.13 104.235L193.973 104.679C198.921 98.9481 204.738 93.8002 210.074 88.4204L210.367 88.3255C210.666 87.895 210.923 87.4325 211.193 86.9836C212.669 86.3333 214.541 86.1761 216.135 86.0036Z" fill="#597848"/>
<path d="M211.192 86.9835C212.668 86.3332 214.541 86.176 216.135 86.0035C215.896 86.5984 215.504 86.6532 214.927 86.9004C213.506 87.5086 211.891 88.0537 210.367 88.3255C210.665 87.895 210.923 87.4325 211.192 86.9835Z" fill="#859D7A"/>
<path d="M220.633 78.0278C221.879 77.9774 223.119 78.0356 224.364 78.0848C227.831 78.2996 231.336 78.2311 234.79 78.4858L234.208 78.7185C233.9 80.3396 235.639 86.1231 236.078 87.968C230.956 85.9343 226.051 83.7334 220.471 83.4539L220.59 80.5306L220.633 78.0278Z" fill="#8A2025"/>
<path d="M220.633 78.0278C221.879 77.9774 223.119 78.0357 224.364 78.0848L224.467 78.5813C223.691 79.7314 222.97 80.9646 221.724 81.6521L221.092 81.6896C220.639 81.2647 220.71 81.1181 220.59 80.5306L220.633 78.0278Z" fill="#97312A"/>
<path d="M61.208 29.3661C64.3892 34.2612 69.2454 43.3766 73.3755 47.0442C72.1732 51.1741 69.9102 55.4867 66.0567 57.7371C67.2203 52.4052 65.6804 43.9852 64.088 38.7625C63.16 35.7187 61.8816 32.7636 61.259 29.6332L61.208 29.3661Z" fill="#597848"/>
<path d="M63.9989 58.3138C61.1543 56.9428 58.7605 53.543 57.5828 50.6929C53.5072 40.8322 54.0753 26.9801 58.1801 17.1816C58.4155 19.0396 58.7428 20.894 59.0257 22.746C57.9384 29.2084 57.2126 37.871 58.5518 44.2578C59.0687 46.7245 60.0191 49.1064 60.9633 51.4364C61.5748 52.944 63.8962 57.0057 63.9989 58.3138Z" fill="#CCFEA3"/>
<path d="M177.851 94.1949C182.762 94.1652 187.314 93.1199 192.141 92.4178C190.361 96.8578 188.25 100.862 185.972 105.05C183.662 105.191 181.388 105.308 179.071 105.229C178.828 101.533 178.421 97.8547 177.851 94.1949Z" fill="#597848"/>
<path d="M63.998 58.3138C63.8954 57.0057 61.574 52.944 60.9624 51.4365C60.0182 49.1064 59.0678 46.7245 58.5509 44.2578C57.2117 37.871 57.9375 29.2084 59.0249 22.746C59.6171 25.02 60.2453 27.2183 61.2073 29.3661L61.2583 29.6333C61.8809 32.7636 63.1594 35.7187 64.0873 38.7625C65.6797 43.9852 67.2196 52.4052 66.0561 57.7371C65.4035 57.9967 64.7132 58.3761 63.998 58.3138Z" fill="#86C260"/>
<path d="M192.241 92.301C198.194 91.2925 204.166 89.7127 210.073 88.4203C204.738 93.8001 198.92 98.948 193.972 104.679C191.307 104.846 188.643 105.046 185.972 105.05C188.25 100.862 190.361 96.8578 192.141 92.4178L192.241 92.301Z" fill="#86C260"/>
<path d="M179.198 107.693C185.153 107.694 191.087 107.345 197.001 106.647C193.571 110.608 190.119 114.549 186.644 118.47C183.762 121.679 180.898 124.904 178.054 128.145C179.253 121.514 179.524 114.423 179.198 107.693Z" fill="#333577"/>
<path d="M311.23 66.3548C311.702 61.9068 310.419 50.0008 311.617 46.5593C311.728 46.8739 311.64 46.7059 311.982 47.0658C312.081 47.1683 312.18 47.2684 312.279 47.3697C316.554 72.7832 315.838 105.941 309.283 130.864C308.506 133.817 307.76 136.874 306.703 139.74C305.953 138.511 307.843 129.22 308.101 127.192C308.883 121.111 309.258 114.935 309.722 108.822C310.922 94.6907 311.425 80.5351 311.23 66.3548Z" fill="#F85D5C"/>
<path d="M176.166 116.51L176.824 114.769C176.961 117.114 176.648 119.543 176.414 121.877C175.415 131.837 172.748 140.731 168.258 149.638C162.136 150.126 155.609 150.836 149.471 150.587C151.535 148.907 153.453 147.014 155.399 145.199C163.15 137.97 170.564 130.189 174.606 120.216C175.089 119.026 175.921 117.762 176.166 116.51Z" fill="#597848"/>
<path d="M221.022 85.8257C226.201 86.4178 230.979 88.5554 235.765 90.4973C234.847 92.8378 233.808 95.1482 232.955 97.5095C231.266 102.185 229.811 106.915 227.994 111.549C221.575 106.966 214.399 102.553 207.086 99.5704C209.34 97.2677 211.578 94.9204 213.938 92.7275C216.332 90.5032 219.041 88.4375 221.022 85.8257Z" fill="#615D6E"/>
<path d="M159.658 168.17C162.134 167.603 170.084 165.983 172.177 167.193C174.303 168.421 175.96 170.828 178.025 172.266C184.07 176.477 195.622 181.663 202.741 182.927C197.114 186.085 190.517 183.615 184.687 182.556C179.46 181.606 173.134 181.282 168.555 184.457C163.484 181.393 158.132 178.723 152.767 176.212C155.259 173.663 157.51 171.017 159.658 168.17Z" fill="#615D6E"/>
<path d="M39.3137 151.625C37.8011 146.638 37.1849 141.085 36.6742 135.913C35.2948 121.942 36.369 110.838 39.3938 97.1852C42.8625 81.528 48.5284 67.2152 55.8593 52.9683C56.7604 54.4766 57.6823 55.8474 58.8043 57.2034C54.1076 68.9778 49.7288 80.7124 45.9342 92.8101C44.4174 97.6464 42.7654 102.544 41.7537 107.511C40.4745 113.792 39.9127 120.467 39.5465 126.86C39.2718 131.654 39.1105 136.518 39.2981 141.318C39.416 144.33 39.8766 147.47 39.7893 150.47C39.7709 151.113 39.7274 151.165 39.3137 151.625Z" fill="#CCFEA3"/>
<path d="M230.152 69.5228C242.82 60.941 255.812 53.9454 270.324 49.0278C281.304 45.307 293.645 41.7275 305.306 41.3404C306.678 41.2948 308.744 41.0944 309.972 41.7849C311.586 42.6919 311.951 45.73 312.278 47.3699C312.179 47.2686 312.08 47.1684 311.981 47.066C311.639 46.7061 311.727 46.874 311.616 46.5595C310.419 50.0009 311.701 61.907 311.229 66.3549C310.922 59.1475 308.695 52.3537 307.335 45.3383C288.989 47.3147 271.618 53.1615 254.991 61.0231C249.675 63.5369 244.368 66.2237 239.229 69.0784C237.849 69.8451 234.294 72.3795 232.99 72.5447C232.235 71.0983 231.547 70.3729 230.152 69.5228Z" fill="#EF493D"/>
<path d="M72.4482 264.359C73.0319 262.102 73.924 260.353 75.9968 259.103C81.1499 255.993 89.5709 257.705 94.9777 259.192C116.145 265.01 138.826 280.623 153.981 296.248C156.434 298.777 159.043 301.363 161.106 304.229L161.054 304.518L160.93 304.521C160.868 305.667 165.41 312.68 166.276 314.39C167.561 316.929 168.978 319.763 169.614 322.549C167.749 320.389 166.146 317.97 164.381 315.721C161.414 311.941 158.17 308.224 154.912 304.69C146.386 295.44 137.039 288.138 127.149 280.496C123.539 277.707 120.009 274.629 116.173 272.166C112.836 270.024 109.097 268.173 105.422 266.685C97.9151 263.644 90.6085 260.903 82.4184 261.242C80.8047 261.308 79.1847 261.342 77.6367 261.86C75.7474 262.492 74.5012 263.926 72.7773 264.657L72.4482 264.359Z" fill="#D53433"/>
<path d="M68.1892 34.789C75.8092 27.0444 83.0644 22.0484 93.7395 19.4056C97.7749 18.4065 101.829 17.7909 105.994 17.7512C120.676 17.6109 136.63 26.4701 146.836 36.6143C151.484 41.2329 159.379 51.4267 162.487 57.0204C165.896 63.1577 168.255 69.8917 170.393 76.5553C174.525 89.4387 176.972 98.4621 176.92 112.168C176.922 113.036 176.89 113.903 176.824 114.769L176.167 116.51C174.904 114.748 173.813 99.658 173.39 96.4394C172.265 87.8992 169.311 79.4411 166.01 71.5087C164.581 68.0755 160.876 61.9376 160.55 58.6828C160 57.1074 159.341 56.4557 158.049 55.4503C156.95 53.7529 155.881 52.0378 154.84 50.305C155.089 49.5927 155.203 49.4258 155.029 48.6701C154.42 47.9651 153.495 47.7038 152.652 47.3571C148.206 41.4362 142.029 36.1688 135.828 32.2029C129.006 27.84 115.758 21.0793 107.814 20.3299C104.986 20.063 101.936 20.6215 99.1865 21.2358C87.7671 23.7887 78.9467 29.0233 72.5414 39.0822C71.0416 37.7438 69.5142 36.2992 68.1892 34.789Z" fill="#CCFEA3"/>
<path d="M171.384 314.673C176.456 306.767 183.032 300.189 189.487 293.418C197.442 285.133 205.33 276.785 213.15 268.372C217.032 264.168 221.175 259.978 224.707 255.478C226.634 253.023 228.213 250.173 229.875 247.531C232.664 243.084 235.502 238.669 238.389 234.286C244.711 224.772 289.498 159.617 292.431 158.152C292.113 158.902 291.81 159.658 291.409 160.369C288.763 167.318 282.993 174.946 278.852 181.243C274.655 187.624 270.53 194.047 266.2 200.341C259.682 209.681 253.098 218.976 246.45 228.225L239.692 237.898C238.54 239.555 237.347 241.657 235.919 243.061C230.75 251.385 223.05 260.633 216.795 268.34C209.7 277.083 202.737 285.85 195.075 294.112L181.12 309.054C178.389 311.95 175.538 314.718 172.97 317.765L171.384 314.673Z" fill="#EFEFEF"/>
<path d="M235.92 243.06C235.914 242.92 235.892 242.779 235.903 242.639C236.019 241.162 287.812 163.408 291.409 160.369C288.763 167.318 282.993 174.946 278.852 181.243C274.656 187.624 270.53 194.047 266.2 200.341C259.682 209.681 253.099 218.976 246.451 228.225L239.693 237.898C238.54 239.555 237.348 241.657 235.92 243.06Z" fill="#AAA9A9"/>
<path d="M127.497 195.305C135.02 197.383 142.708 200.204 149.185 204.626C148.707 207.513 139.167 247.643 138.549 248.511C137.851 248.786 137.235 248.841 136.49 248.895C135.847 242.904 136.708 236.453 137.044 230.451C137.222 227.265 137.664 223.732 136.765 220.621C136.114 218.37 134.867 216.562 133.508 214.688C122.747 210.965 116.387 223.117 110.103 229.5C106.725 232.931 101.603 236.68 97.0269 238.312C106.753 223.671 116.909 209.336 127.497 195.305Z" fill="#615D6E"/>
<path d="M235.765 90.4972C244.79 94.5451 252.985 99.8394 260.857 105.805C262.602 107.127 264.699 108.5 266.237 110.054C265.035 112.755 265.456 117.486 264.637 120.57C263.039 126.588 259.83 132.498 258.344 138.37C249.714 128.417 238.811 119.064 227.994 111.549C229.811 106.915 231.266 102.185 232.955 97.5094C233.808 95.1481 234.848 92.8378 235.765 90.4972Z" fill="#979597"/>
<path d="M158.997 202.766C157.31 199.376 157.635 196.075 157.942 192.419C158.091 190.635 158.489 188.307 159.985 187.134C161.749 185.75 164.576 186.003 166.678 186.176C168.034 186.999 169.38 187.841 170.492 188.987C171.073 189.694 171.691 190.389 172.185 191.161C172.415 198.489 169.401 208.898 167.788 216.223C166.671 221.441 165.767 226.695 165.077 231.986C165.038 236.394 166.143 239.55 168.087 243.479C170.696 247.546 173.529 250.8 177.532 253.59C179.168 254.73 180.942 255.738 182.494 256.985C180.659 257.429 179.107 257.599 177.212 257.369L176.935 257.355C174.908 257.24 171.272 256.153 169.455 256.949C169.061 257.434 168.939 257.549 168.953 258.21C169.003 260.528 176.964 269.363 178.976 271.614C175.344 270.93 171.772 270.067 168.271 268.869C165.862 268.045 163.473 266.993 161.02 266.324C160.309 266.131 159.679 265.954 158.943 266.112C158.414 266.492 158.223 266.557 158.09 267.233C157.743 268.996 160.013 273.901 160.606 275.829C156.79 272.85 152.502 270.377 149.03 266.978C147.287 259.913 149.051 251.083 150.265 244.001C151.407 237.338 152.475 230.678 153.979 224.082C155.602 216.963 157.657 209.947 158.997 202.766Z" fill="#86C260"/>
<path d="M164.082 238.776C165.247 240.395 166.451 242.298 168.088 243.479C170.697 247.546 173.53 250.8 177.533 253.59C179.168 254.73 180.943 255.738 182.495 256.984C180.659 257.429 179.108 257.599 177.213 257.368C169.944 252.025 166.194 247.432 164.082 238.776Z" fill="#CCFEA3"/>
<path d="M165.077 231.986L164.836 232.355L164.449 232.242C164.334 232.051 164.273 231.975 164.221 231.731C163.352 227.576 167.664 198.024 168.969 192.684C169.29 191.368 169.616 190.051 170.492 188.987C171.074 189.694 171.691 190.389 172.185 191.161C172.415 198.489 169.401 208.898 167.788 216.223C166.671 221.441 165.768 226.695 165.077 231.986Z" fill="#CCFEA3"/>
<path d="M206.332 100.346C213.128 102.688 221.703 108.03 227.605 112.216C225.407 117.384 222.58 122.287 219.861 127.195C216.785 132.749 213.707 138.377 210.871 144.057C209.614 146.574 209.098 149.408 207.916 151.938C203.696 150.613 199.515 149.488 195.182 148.587C196.497 147.873 197.931 147.149 199.13 146.255C201.349 144.603 202.067 142.767 202.462 140.142C202.28 139.707 202.096 139.269 201.885 138.847C201.292 137.666 200.721 137.064 199.472 136.63C196.551 137.35 194.033 139.08 191.277 140.216C184.025 143.207 181.175 142.075 175.58 148.868L171.233 149.193C172.708 146.122 174.011 142.979 175.141 139.764C175.926 137.497 176.372 134.512 177.599 132.48C179.207 129.819 184.352 124.736 186.664 122.158C193.209 114.859 199.544 107.427 206.332 100.346Z" fill="#615D6E"/>
<path d="M74.9698 126.461C80.097 136.161 86.0055 144.996 92.5532 153.771C95.9423 158.313 99.4185 163.092 103.827 166.716C105.491 168.084 107.371 169.217 109.432 169.867C119.135 172.929 129.315 171.424 139.191 170.534C144.833 170.025 150.468 169.587 156.081 168.796C154.323 170.988 152.482 173.062 150.467 175.024C149.204 174.305 146.294 172.048 144.943 172.325C144.562 172.844 144.538 172.964 144.463 173.609C144.977 175.265 148.342 176.628 149.853 177.425C155.42 180.365 161.374 182.763 166.678 186.176C164.576 186.003 161.749 185.75 159.985 187.134C158.489 188.307 158.092 190.635 157.942 192.419C157.635 196.075 157.31 199.376 158.997 202.766C157.657 209.947 155.603 216.963 153.979 224.082C152.475 230.678 151.407 237.338 150.265 244.001C149.051 251.083 147.287 259.913 149.031 266.978C145.805 264.685 141.477 259.917 140.623 255.92C139.809 252.11 142.307 243.679 143.305 239.674C145.305 231.918 147.242 224.147 149.118 216.361C149.951 212.853 151.079 209.17 151.45 205.595C151.551 204.617 151.594 203.785 151.22 202.865C150.142 201.835 148.521 201.193 147.206 200.489C140.069 196.669 130.564 192.633 122.453 192.042C120.782 191.92 118.623 191.907 117.286 193.052L117.346 193.432C118.96 194.624 121.225 194.427 123.139 194.502C122.76 194.74 122.366 194.951 121.972 195.162C108.91 202.139 90.4695 201.965 76.4942 197.702C73.2841 196.723 70.0203 195.644 67.078 194.013C61.2476 190.782 52.8218 182.942 49.7111 177.091C51.7238 178.193 53.4094 180.397 55.2795 181.805C63.3666 187.897 71.5189 191.823 81.7463 192.676C87.7022 193.172 98.1755 193.181 103.736 191.255C106.9 190.16 109.812 188.42 112.819 186.968C115.966 185.449 119.375 184.05 122.045 181.754C123.103 180.846 124.21 179.879 124.329 178.418C124.19 178.067 124.195 177.836 123.843 177.643C122.993 177.178 121.726 177.228 120.773 176.948C119.19 176.484 117.711 175.717 116.104 175.312C112.388 174.376 108.569 174.167 104.947 172.781C101.034 171.284 97.2429 168.888 94.0977 166.132C85.236 158.37 78.0474 147.838 75.8284 136.106C75.2361 132.973 75.1809 129.643 74.9698 126.461Z" fill="#597848"/>
<path d="M97.0262 238.312C101.602 236.68 106.725 232.931 110.103 229.5C116.386 223.117 122.746 210.965 133.507 214.688C134.867 216.562 136.113 218.37 136.764 220.62C137.664 223.732 137.222 227.265 137.043 230.451C136.707 236.453 135.846 242.904 136.489 248.895C131.573 249.213 126.651 249.334 121.725 249.257C116.799 249.181 111.883 248.907 106.979 248.437C104.324 248.195 101.711 247.666 99.0667 247.418C96.8221 247.207 94.5681 247.137 92.3226 246.914C95.0223 248.356 98.6555 248.383 101.652 248.715C111.685 249.827 121.632 250.413 131.736 250.14C133.352 250.37 135.059 250.122 136.682 250.005C136.881 251.973 137.373 253.703 137.988 255.577C139.828 264.645 150.105 271.246 157.133 276.302C159.122 277.733 161.014 279.437 163.082 280.737C163.634 281.083 164.12 281.225 164.758 281.322C165.392 281.117 165.399 281.065 165.789 280.517C165.35 278.414 163.745 276.375 162.843 274.433C161.999 272.612 161.401 270.639 160.757 268.738C167.759 271.425 175.486 274.251 183.055 274.577C181.556 275.55 180.246 277.311 178.968 278.581C176.852 280.685 174.665 282.754 172.379 284.673C171.071 285.771 169.708 286.881 168.258 287.789C164.192 290.334 159.991 292.071 157.096 296.104C139.304 278.07 111.522 258.221 85.8431 254.965C89.4465 249.402 92.9488 243.534 97.0262 238.312Z" fill="#979597"/>
<path d="M72.448 264.359L72.7771 264.657C74.5011 263.926 75.7472 262.492 77.6366 261.86C79.1846 261.342 80.8046 261.309 82.4183 261.242C90.6084 260.903 97.9149 263.644 105.422 266.685C109.097 268.173 112.836 270.024 116.173 272.166C120.009 274.629 123.539 277.707 127.148 280.496C137.038 288.138 146.385 295.44 154.912 304.69C158.169 308.224 161.414 311.941 164.381 315.721C166.146 317.97 167.749 320.389 169.614 322.55C170.801 324.843 171.465 326.823 171.894 329.366C172.065 330.387 172.145 331.492 172.447 332.481C171.331 334.566 169.576 335.786 167.336 336.467C163.848 337.527 160.11 337.225 156.559 336.706C156.428 337.477 156.242 338.271 156.168 339.048C155.319 342.062 153.883 344.783 152.885 347.724C151.968 350.425 151.476 353.274 150.669 356.011C149.879 358.689 148.8 361.283 148.011 363.955C147.037 359.674 147.133 355.128 147.112 350.759C147.051 337.905 147.336 328.549 141.837 316.53C141.724 317.281 141.763 317.972 141.812 318.729C139.207 323.753 138.99 329.816 135.048 334.186C134.959 325.534 137.535 317.985 134.028 309.335C131.746 303.707 129.647 302.712 125.855 298.553C124.651 297.234 123.663 295.718 122.507 294.356C120.109 291.527 116.516 288.56 113.108 287.094L112.968 286.984C110.868 286.011 108.866 285.451 106.583 285.11L105.793 285.071C102.939 284.528 99.9178 283.815 96.9962 284.075C95.5782 284.201 93.9028 284.857 92.5119 284.737C92.5207 284.309 92.6037 284.226 92.3349 283.872C88.2482 284.34 84.1449 284.62 80.0565 285.065C77.2628 285.37 74.5129 285.867 71.7027 286.025L71.5523 286.058C66.022 286.429 61.1206 289.727 55.7036 290.193C58.9467 286.962 62.3625 283.893 65.5507 280.61C67.5876 278.512 69.3933 276.197 71.4683 274.14L73.5506 272.626C72.6639 269.93 72.1322 267.2 72.448 264.359Z" fill="#8A2025"/>
<path d="M79.3386 269.079C80.2919 267.143 81.1372 265.74 83.3237 265.035C90.2104 262.813 103.509 270.365 109.619 273.709C114.702 276.491 119.626 279.84 124.464 283.031C138.127 292.043 161.772 308.14 166.41 324.349C166.869 325.951 167.246 328.142 166.362 329.667C165.25 331.587 162.77 332.809 160.692 333.318C160.037 333.479 159.533 333.55 158.872 333.423L158.723 333.189L158.999 332.675C161.138 331.46 163.388 329.751 164.627 327.617C164.524 327.1 164.408 326.586 164.279 326.074C159.736 308.098 129.479 288.613 113.879 279.237C110.118 276.658 106.188 274.568 102.081 272.609C97.2742 270.119 89.9729 266.219 84.4622 267.255C82.7845 267.57 81.3063 268.595 79.6632 269.003C79.5555 269.029 79.4468 269.054 79.3386 269.079Z" fill="black"/>
<path d="M113.879 279.237C129.479 288.612 159.735 308.097 164.279 326.074C164.407 326.585 164.523 327.099 164.627 327.616C163.388 329.75 161.138 331.46 158.998 332.675C158.052 332.97 157.48 333.647 157.039 334.514C156.696 335.188 156.439 335.947 156.559 336.705C156.428 337.476 156.242 338.271 156.168 339.048C155.319 342.062 153.883 344.783 152.885 347.724C151.968 350.424 151.475 353.274 150.668 356.011C149.878 358.689 148.8 361.283 148.011 363.955C147.037 359.674 147.133 355.128 147.112 350.759C147.051 337.905 147.336 328.549 141.837 316.53C142.725 313.879 141.132 310.154 140.664 307.539C140.366 305.873 140.764 303.542 139.951 302.039C139.705 301.584 139.367 301.494 138.885 301.348C138.208 301.144 134.144 295.999 133.265 295.102C130.177 291.954 127.039 288.603 123.456 286.012C121.096 284.306 115.184 281.29 113.879 279.237Z" fill="#A75C00"/>
<path d="M79.3382 269.079C79.4464 269.053 79.5551 269.029 79.6628 269.002C81.3059 268.595 82.7841 267.57 84.4618 267.255C89.9725 266.219 97.2738 270.118 102.081 272.609C106.187 274.567 110.118 276.657 113.879 279.237C115.184 281.29 121.096 284.306 123.456 286.012C127.039 288.603 130.177 291.954 133.265 295.102C134.144 295.999 138.208 301.144 138.885 301.348C139.368 301.494 139.705 301.584 139.951 302.039C140.764 303.542 140.366 305.873 140.665 307.539C141.133 310.154 142.725 313.879 141.837 316.53C141.724 317.281 141.763 317.972 141.812 318.728C139.207 323.753 138.99 329.815 135.048 334.186C134.959 325.534 137.535 317.985 134.028 309.335C131.746 303.707 129.647 302.712 125.855 298.553C124.651 297.234 123.663 295.718 122.507 294.356C120.109 291.527 116.516 288.56 113.108 287.094L112.968 286.984C110.868 286.011 108.866 285.451 106.583 285.11L105.793 285.071C102.939 284.528 99.9178 283.815 96.9962 284.075C95.5781 284.201 93.9028 284.857 92.5119 284.737C92.5207 284.309 92.6037 284.225 92.3348 283.871C88.2482 284.34 84.1449 284.62 80.0565 285.065C77.2627 285.37 74.5129 285.866 71.7026 286.025L71.5523 286.057C66.0219 286.429 61.1206 289.727 55.7035 290.193C58.9466 286.962 62.3625 283.893 65.5507 280.609C67.5876 278.512 69.3933 276.197 71.4683 274.14L73.5505 272.626C75.3258 271.093 77.0169 269.688 79.3382 269.079Z" fill="#A77E00"/>
<path d="M79.3382 269.079C79.4464 269.053 79.5551 269.029 79.6628 269.002C81.3059 268.595 82.7841 267.57 84.4618 267.255C89.9725 266.219 97.2738 270.118 102.081 272.609C102 272.615 101.92 272.622 101.84 272.627C99.6815 272.746 97.588 272.063 95.4432 272.079C93.4804 272.093 91.4788 272.485 89.5683 272.898C82.2943 274.472 79.2782 277.558 74.3852 282.881C73.4532 283.896 72.559 284.944 71.7026 286.025L71.5523 286.057C66.0219 286.429 61.1206 289.727 55.7035 290.193C58.9466 286.962 62.3625 283.893 65.5507 280.609C67.5876 278.512 69.3933 276.197 71.4683 274.14L73.5505 272.626C75.3258 271.093 77.0169 269.688 79.3382 269.079Z" fill="#A75C00"/>
<path d="M232.991 72.5445C234.295 72.3794 237.85 69.8449 239.23 69.0782C244.369 66.2236 249.675 63.5367 254.992 61.0229C271.619 53.1613 288.99 47.3146 307.336 45.3381C308.695 52.3536 310.923 59.1473 311.23 66.3548C311.425 80.5351 310.922 94.6907 309.722 108.822C309.258 114.935 308.883 121.111 308.101 127.192C307.843 129.22 305.953 138.511 306.703 139.74C306.515 140.965 306.072 142.09 305.655 143.25C298.522 127.444 294.142 119.836 281.64 107.534C278.698 104.639 275.765 101.697 272.661 98.9749C272.751 99.5241 288.005 115.256 290.126 118.387L290.016 118.811C291.658 120.958 293.194 123.179 294.623 125.474C296.662 128.792 302.337 139.03 302.597 142.502C302.138 143.873 300.988 144.449 300.567 145.979C300.468 146.335 300.359 146.508 300.108 146.775C299.604 146.864 299.594 146.883 299.199 146.591C297.853 145.596 296.815 142.631 296.002 141.119C293.665 136.758 289.424 128.452 285.622 125.518L285.304 125.645C284.145 124.711 283.087 123.329 282.065 122.231C279.545 119.534 277.067 116.782 274.422 114.211C263.397 103.494 250.169 94.1761 236.078 87.968C235.639 86.1231 233.901 80.3396 234.208 78.7185L234.79 78.4858C235.678 78.5941 236.469 78.6954 237.358 78.5642C236.373 78.0578 235.062 77.9442 233.975 77.734C233.751 76.1391 233.345 74.5356 233.02 72.9562L232.991 72.5445Z" fill="#D53433"/>
<path d="M309.084 73.1225C309.35 74.5565 305.343 83.5694 304.55 85.5152C305.456 86.4355 306.356 87.361 307.25 88.2918C306.193 87.652 305.209 86.9088 304.214 86.1801L303.247 88.5118L306.327 91.1224C305.116 90.6022 303.992 90.0479 302.864 89.3631C300.102 95.6226 296.855 102.644 292.452 107.931C291.885 108.464 291.324 108.906 290.673 109.33L290.393 109.21C290.282 107.548 292.6 106.634 293.397 105.303C295.016 102.604 301.763 91.6984 302.083 89.0594C302.14 88.5923 301.378 88.2377 301.325 87.571L301.607 87.2564C302.011 87.5098 302.227 87.6595 302.715 87.6563C303.178 87.2168 303.273 86.903 303.462 86.313C303.422 85.821 303.349 85.6057 303.036 85.2375C302.785 84.9443 302.616 84.7118 302.452 84.3554L302.675 84.0166C303.324 84.136 303.62 84.5318 304.108 84.9553C305.87 81.0511 307.452 77.0818 309.084 73.1225Z" fill="black"/>
<path d="M266.237 110.054C270.968 114.058 275.239 118.481 279.47 122.999C282.001 125.7 284.615 128.391 286.838 131.354C289.775 135.265 294.766 144.039 296.548 148.62C295.702 150.582 293.42 156.997 292.431 158.152C289.498 159.617 244.712 224.772 238.39 234.286C235.503 238.669 232.664 243.084 229.875 247.531C228.213 250.173 226.634 253.023 224.707 255.478C221.176 259.977 217.032 264.168 213.15 268.372C205.33 276.785 197.442 285.133 189.487 293.418C183.032 300.189 176.457 306.767 171.384 314.673C170.141 312.426 168.737 310.304 167.277 308.196C169.963 306.102 172.287 303.382 174.624 300.906C179.885 295.328 185.009 289.628 189.998 283.805C207.85 263.403 224.864 242.324 241.039 220.567C242.238 221.289 243.515 221.815 244.797 222.366C243.979 221.207 243.109 220.125 242.189 219.044L244.077 216.536L247.919 218.139L244.924 215.389L266.927 185.479C270.099 181.126 274.453 175.843 277.094 171.274C275.388 172.963 274.032 175.11 272.603 177.039L265.322 186.793C258.345 196.113 251.097 205.258 244.258 214.676C243.428 213.999 242.596 213.13 241.442 213.237C241.056 213.272 241.06 213.392 240.826 213.662C240.85 213.898 240.854 214.06 240.944 214.291C241.245 215.063 242.517 215.623 243.199 216.025L241.35 218.386C240.755 217.85 240.162 217.199 239.508 216.745C239.058 216.432 238.605 216.346 238.075 216.472L237.838 216.882C238.079 218.355 239.16 218.966 240.247 219.839C234.439 227.99 228.017 235.88 221.741 243.686C209.248 259.156 196.353 274.283 183.054 289.066C179.661 292.809 176.228 296.514 172.754 300.181C170.667 302.386 168.59 304.818 166.186 306.676C163.322 302.97 160.317 299.503 157.097 296.104C159.992 292.071 164.193 290.334 168.259 287.789C169.709 286.881 171.072 285.771 172.38 284.673C174.666 282.754 176.853 280.685 178.969 278.581C180.247 277.311 181.556 275.55 183.056 274.577C183.761 274.126 184.034 273.827 184.408 273.08C185.118 271.699 187.722 269.299 188.877 267.963C191.343 265.111 193.775 262.172 196.064 259.176C206.035 246.12 214.642 232.054 223.121 218.011C224.493 215.739 228.053 210.895 228.276 208.614C230.899 203.32 236.976 197.224 238.812 191.754L237.751 189.224C239.091 186.261 240.187 183.193 241.467 180.204L247.162 166.685C248.354 163.842 250.148 160.5 250.642 157.453C252.044 155.473 260.098 145.719 260.443 144.276C260.497 144.053 260.425 143.819 260.416 143.591L260.049 143.607C258.522 145.082 255.814 149.154 254.325 151.052C253.676 149.496 255.673 145.969 255.976 144.161C256.064 143.748 256.258 143.316 256.396 142.914C257.162 141.855 257.262 140.436 258.136 139.449C259.128 140.645 260.089 141.871 261.237 142.923C260.35 141.33 259.421 139.843 258.344 138.37C259.83 132.498 263.039 126.588 264.637 120.57C265.456 117.486 265.036 112.755 266.237 110.054Z" fill="#AAA9A9"/>
<path d="M227.605 112.216C229.756 113.706 231.87 115.246 233.948 116.836C236.026 118.426 238.065 120.064 240.066 121.75C242.066 123.437 244.026 125.169 245.945 126.947C247.864 128.726 249.74 130.549 251.573 132.416C253.82 134.671 256.158 136.949 258.136 139.449C257.262 140.436 257.161 141.855 256.396 142.914C256.257 143.316 256.064 143.748 255.975 144.161C255.672 145.968 253.676 149.496 254.325 151.052C255.813 149.154 258.522 145.082 260.048 143.607L260.415 143.591C260.424 143.819 260.496 144.053 260.443 144.276C260.097 145.719 252.043 155.472 250.641 157.453C250.147 160.5 248.354 163.842 247.161 166.685L241.467 180.204C240.186 183.193 239.091 186.261 237.75 189.224L238.811 191.754C236.976 197.224 230.898 203.32 228.275 208.614C228.052 210.894 224.493 215.739 223.121 218.011C214.641 232.053 206.035 246.12 196.063 259.176C193.774 262.172 191.342 265.111 188.877 267.963C187.721 269.299 185.118 271.699 184.408 273.08C183.431 271.392 181.341 270.567 180.051 269.131C177.256 266.019 174.399 262.595 171.924 259.224C175.696 259.821 180.612 260.599 184.255 258.971C185.079 258.603 185.474 258.181 185.801 257.346C185.35 255.335 177.929 250.917 176.091 249.302C174.062 247.52 172.402 245.683 170.953 243.408C174.427 242.969 177.934 242.756 181.395 242.217C186.725 241.385 207.608 237.318 210.913 234.182L210.763 233.919C209.148 233.864 206.798 235.201 205.21 235.708C201.042 237.038 196.788 238.058 192.523 239.025C185.103 240.706 177.952 241.793 170.378 242.455C169.09 240.1 167.851 237.585 167.607 234.872C166.756 225.388 176.724 194.861 174.626 189.721C174.051 188.31 169.909 185.307 168.554 184.457C173.134 181.282 179.46 181.606 184.687 182.556C190.517 183.615 197.114 186.085 202.741 182.927C202.861 182.949 202.982 182.972 203.102 182.991C205.417 183.36 208.269 183.465 210.233 181.98C211.005 181.396 211.548 180.588 211.615 179.606C211.737 177.818 210.564 176.59 209.478 175.343C209.666 175.359 209.854 175.373 210.043 175.386C212.255 175.534 214.84 175.187 216.525 173.602C217.169 172.997 217.596 172.207 217.613 171.312C217.649 169.315 215.997 167.91 214.694 166.632C216.243 166.89 217.93 167.262 219.436 166.619C220.631 166.109 221.606 164.912 222.066 163.716C222.508 162.569 222.388 161.398 221.834 160.313C219.527 155.788 212.384 153.504 207.916 151.938C209.098 149.408 209.614 146.574 210.871 144.057C213.707 138.377 216.785 132.749 219.861 127.195C222.58 122.287 225.407 117.384 227.605 112.216Z" fill="#979597"/>
<path d="M255.975 144.161C255.672 144.421 255.358 144.701 254.988 144.864C254.39 145.127 253.599 145.107 252.999 144.867C252.619 144.714 252.736 144.76 252.59 144.339L252.801 144.014C253.231 144.015 253.676 144.03 254.103 143.984C254.693 143.922 254.945 143.829 255.329 143.387C255.308 142.704 255.131 142.461 254.761 141.917C253.457 141.247 253.348 142.685 252.248 142.973C252.035 142.562 252.008 142.22 252.21 141.786C252.49 141.189 252.687 141.082 253.239 140.789C253.762 140.776 254.16 140.793 254.654 140.985C255.676 141.382 255.967 141.965 256.396 142.914C256.257 143.316 256.064 143.748 255.975 144.161Z" fill="black"/>
<path d="M248.956 146.334C249.898 146.417 250.847 146.577 251.426 147.424C251.776 147.938 251.811 148.604 251.673 149.192C251.529 149.8 251.186 150.269 250.612 150.544C249.918 150.875 249.211 150.838 248.516 150.555L248.423 150.25C248.961 149.829 249.44 149.854 250.092 149.82L250.373 149.809C250.63 149.287 250.78 148.978 250.797 148.383C250.535 147.827 250.351 147.59 249.853 147.229C248.45 147.396 248.408 148.98 247.54 149.875C247.45 149.603 247.393 149.324 247.367 149.038C247.341 148.753 247.348 148.469 247.387 148.185C247.508 147.253 248.236 146.802 248.956 146.334Z" fill="black"/>
<path d="M254.325 151.052C255.814 149.154 258.522 145.082 260.048 143.607L260.415 143.591C260.424 143.819 260.496 144.054 260.443 144.276C260.097 145.719 252.043 155.473 250.641 157.453C246.458 162.665 242.397 167.969 238.456 173.366C237.399 174.811 235.845 176.455 235.1 178.055C234.853 178.586 234.911 179.098 234.975 179.661C235.319 182.724 236.831 186.233 237.75 189.224L238.811 191.754C236.976 197.224 230.898 203.32 228.275 208.614C226.419 210.771 224.871 213.494 223.274 215.861C219.074 222.09 215.039 228.582 210.515 234.575C213.292 228.542 217.126 223.31 220.849 217.848L231.489 202.011C233.662 198.746 236.192 195.41 237.853 191.861C236.491 188.804 234.546 183.274 234.086 179.972C233.965 179.1 233.924 178.323 234.336 177.519C235.444 175.356 237.413 173.23 238.87 171.264C243.921 164.451 249.306 157.884 254.325 151.052Z" fill="black"/>
<path d="M250.641 157.453C250.148 160.5 248.354 163.842 247.161 166.685L241.467 180.204C240.186 183.193 239.091 186.261 237.75 189.224C236.831 186.233 235.319 182.724 234.975 179.661C234.912 179.098 234.853 178.586 235.1 178.055C235.846 176.455 237.399 174.811 238.456 173.366C242.397 167.969 246.459 162.665 250.641 157.453Z" fill="#979597"/>
<path d="M72.5408 39.0822C78.9461 29.0233 87.7665 23.7887 99.1859 21.2358C101.935 20.6215 104.986 20.063 107.814 20.3299C115.758 21.0793 129.005 27.84 135.827 32.2029C142.029 36.1688 148.206 41.4362 152.651 47.3571C153.494 47.7038 154.419 47.9652 155.028 48.6701C155.202 49.4258 155.088 49.5927 154.839 50.305C155.88 52.0378 156.95 53.7529 158.048 55.4503C159.34 56.4557 160 57.1074 160.55 58.6828C160.875 61.9376 164.581 68.0755 166.009 71.5087C169.31 79.4411 172.265 87.8992 173.389 96.4394C173.813 99.658 174.903 114.748 176.166 116.51C175.921 117.762 175.088 119.025 174.606 120.216C170.564 130.189 163.15 137.97 155.399 145.199C153.453 147.014 151.535 148.907 149.47 150.587C145.296 150.807 141.123 150.615 136.948 150.711C129.932 150.872 123.962 151.494 116.779 150.703C109.398 144.28 101.726 132.667 96.386 124.334C94.6761 121.666 93.1296 118.873 91.2684 116.303C90.6117 115.397 89.5921 113.993 88.5045 113.65C88.0547 113.508 87.5986 113.59 87.2574 113.929C86.8005 114.383 86.8805 114.873 86.8675 115.452C89.7505 117.08 95.0443 126.791 97.1223 129.976C100.128 134.582 111.629 151.507 116.558 152.916C121.562 154.346 131.412 153.356 136.906 153.148C139.51 153.049 142.137 153.122 144.741 153.166C149.931 152.656 155.32 152.888 160.546 152.614C165.923 152.332 171.24 151.564 176.607 151.267C178.324 149.26 180.486 146.714 182.999 145.702C183.979 145.935 185.187 145.733 186.185 145.646C191.078 145.225 195.295 143.976 199.717 141.85C197.924 145.546 190.383 146.975 190.064 149.295C190.454 149.97 191.28 150.217 191.994 150.402C192.966 150.654 194.097 150.734 195.023 151.086L194.649 151.367C197.712 153.942 216.988 160.038 217.157 162.281C217.221 163.131 216.845 163.705 217.028 164.626C214.687 163.733 211.948 163.293 209.52 162.523C206.48 161.559 203.386 160.001 200.278 159.373C199.616 159.239 198.832 159.147 198.215 159.476C197.917 159.635 197.948 159.781 197.851 160.074C199.818 163.127 214.352 166.276 215.211 171.229C214.557 172.215 213.869 172.718 212.685 172.928C208.103 173.741 198.244 168.456 196.993 169.387C196.836 169.858 196.94 170.169 197.175 170.597C198.667 173.317 209.504 174.925 208.895 179.717C208.368 180.434 207.727 180.632 206.869 180.74C201.697 181.389 185.357 174.656 181.069 171.23C177.99 169.485 174.257 164.915 171.791 164.183C169.615 163.536 158.645 165.88 155.712 166.348C150.417 167.192 145.048 167.55 139.712 168.029C130.542 168.852 118.032 170.626 109.258 167.215C107.373 166.483 105.613 165.086 104.152 163.711C99.0347 158.892 86.346 142.491 83.5654 136.223C81.9986 133.547 80.2629 130.985 78.7557 128.27C77.5883 126.169 76.6542 123.89 75.4066 121.843C74.9852 121.151 74.6923 120.899 73.9073 120.722C73.5968 120.919 73.4075 120.956 73.2618 121.317C72.6871 122.735 74.3603 125.18 74.9696 126.461C75.1808 129.643 75.2359 132.973 75.8283 136.106C78.0473 147.838 85.2359 158.37 94.0976 166.132C97.2428 168.888 101.034 171.284 104.946 172.781C108.569 174.166 112.388 174.376 116.104 175.311C117.711 175.716 119.189 176.484 120.773 176.948C121.726 177.228 122.993 177.177 123.843 177.643C124.195 177.836 124.19 178.066 124.329 178.418C124.21 179.879 123.103 180.846 122.045 181.754C119.375 184.05 115.966 185.449 112.819 186.968C109.812 188.419 106.9 190.16 103.736 191.255C98.1754 193.181 87.7021 193.172 81.7461 192.676C71.5188 191.823 63.3665 187.897 55.2793 181.805C53.4093 180.397 51.7237 178.193 49.711 177.091C45.9324 172.46 40.0138 157.699 39.3135 151.625C39.7272 151.165 39.7707 151.113 39.7891 150.47C39.8764 147.47 39.4158 144.33 39.298 141.318C39.1103 136.518 39.2717 131.654 39.5463 126.86C39.9125 120.467 40.4743 113.792 41.7535 107.511C42.7652 102.544 44.4173 97.6463 45.934 92.81C49.7286 80.7123 54.1074 68.9777 58.8041 57.2033C59.5542 57.9454 60.2988 58.68 61.0024 59.4671C61.73 60.2807 62.6624 60.937 63.7804 61.0104C65.7078 61.1364 68.0074 59.4011 69.4229 58.2138C69.5916 58.1005 69.7586 57.9849 69.9239 57.867C73.5633 55.2559 75.2599 50.6879 75.939 46.4225C74.4587 44.4611 72.7535 42.729 71.3317 40.6979C71.7786 40.2362 72.1899 39.7174 72.6113 39.2314L72.5408 39.0822Z" fill="url(#paint0_linear_2011_3079)"/>
<path d="M72.6118 39.2314C75.1188 41.4965 77.7575 43.9092 77.8616 47.5515C77.9455 50.4857 76.4939 53.7885 74.4672 55.895C73.0849 57.3321 71.4305 58.1488 69.4235 58.2138C69.5921 58.1005 69.7591 57.9849 69.9245 57.8671C73.5639 55.256 75.2604 50.688 75.9395 46.4225C74.4593 44.4612 72.754 42.7291 71.3323 40.6979C71.7791 40.2363 72.1904 39.7174 72.6118 39.2314Z" fill="#597848"/>
<path d="M92.7898 69.0987C92.6684 68.7709 92.5684 68.4532 92.5199 68.1051C92.2183 65.9334 93.0597 63.9825 94.3664 62.2961C98.9205 56.4183 106.78 53.2311 114.102 54.1579C115.19 54.2955 118.18 55.2641 118.972 55.0891C119.042 55.0737 119.106 55.0381 119.173 55.0126L119.416 55.8162L119.207 56.0518C117.984 55.9443 116.83 55.624 115.592 55.5907C109.109 55.4167 101.505 57.3849 96.4603 61.6154C94.0256 63.6575 93.1728 66.0417 92.7898 69.0987Z" fill="#597848"/>
<path d="M144.741 153.166C145.16 153.256 145.603 153.286 146.029 153.339L145.672 153.516L146.318 153.371L146.325 153.458C145.342 154.155 141.632 154.707 140.341 154.953C128.896 157.135 119.096 157.802 109.039 150.852C105.977 148.736 103.31 145.702 101.055 142.768C98.563 139.524 86.8086 120.358 86.3927 117.153C86.3047 116.477 86.4574 115.996 86.8676 115.452C89.7507 117.08 95.0444 126.791 97.1224 129.976C100.128 134.582 111.629 151.507 116.558 152.916C121.562 154.346 131.412 153.356 136.906 153.148C139.51 153.049 142.137 153.122 144.741 153.166Z" fill="#CCFEA3"/>
<path d="M109.436 108.935C110.796 112.59 112.606 115.073 116.238 116.727C125.559 120.972 138.91 118.958 148.169 115.411C151.043 114.31 153.666 112.908 156.15 111.09C157.013 110.458 157.8 109.685 158.678 109.088C158.019 112.04 155.006 115.594 152.763 117.543C146.206 123.238 136.177 126.529 127.524 125.812C122.786 125.42 116.892 123.691 113.737 119.931C111.372 117.112 109.085 112.652 109.436 108.935Z" fill="#597848"/>
<path d="M83.5654 136.223C83.6132 136.261 83.6624 136.298 83.7091 136.337C85.5436 137.874 86.7042 140.486 88.0684 142.446C89.3692 144.314 90.7492 146.141 92.1363 147.946C94.562 151.102 97.4382 154.451 100.552 156.933C105.348 160.755 117.028 166.125 123.016 166.999C124.861 167.268 127.064 167.179 128.926 167.048C129.728 166.991 130.469 166.875 131.243 166.646C131.285 166.586 131.325 166.524 131.369 166.465C131.495 166.293 131.707 166.019 131.9 165.915C132.905 165.376 140.209 164.638 141.822 164.43C143.871 164.167 145.939 164.046 147.984 163.754C152.252 163.144 171.25 159.796 173.633 160.598C174.513 161.438 180.442 169.937 181.069 171.23C177.99 169.485 174.257 164.915 171.791 164.183C169.615 163.537 158.645 165.88 155.712 166.348C150.417 167.192 145.048 167.55 139.712 168.029C130.542 168.853 118.032 170.626 109.258 167.216C107.373 166.483 105.613 165.086 104.152 163.711C99.0347 158.892 86.3461 142.491 83.5654 136.223Z" fill="#597848"/>
<path d="M121.34 89.3511C120.165 89.365 119.019 89.3482 117.955 88.785C116.738 88.1406 115.744 87.083 115.341 85.7513C114.847 84.1177 115.241 82.4189 116.096 80.9784C117.463 78.6759 119.466 78.1929 121.367 76.551C123.509 74.7 124.803 71.8535 127.786 71.143C130.892 70.4037 133.493 72.4206 135.957 74.0008C138.76 74.2607 142.789 72.7068 145.238 74.2613C146.265 74.9126 146.818 76.0046 147.01 77.1812C147.328 79.1372 146.401 80.996 145.292 82.5331C143.58 86.1835 139.984 89.4517 136.194 90.8481C131.752 92.4855 125.97 91.4798 121.762 89.5699C121.618 89.5044 121.479 89.4258 121.34 89.3511Z" fill="black"/>
<path d="M117.532 82.2403C119.564 81.8428 121.549 80.9305 123.588 80.6432C125.777 80.335 127.96 80.8919 130.145 80.3264C133.105 79.56 135.652 77.5162 138.626 76.684C140.51 76.1572 142.374 76.3115 144.274 76.1032L144.676 76.0564C144.956 76.7695 145.166 77.3423 145.201 78.1121C144.732 78.1936 144.959 78.229 144.544 78.0044C143.24 77.2977 142.155 77.0386 140.685 77.4931C136.592 78.7576 136.454 83.6221 131.919 83.9151C127.838 84.1785 121.504 79.4839 119.511 83.9313C119.037 84.9893 119.246 86.1924 118.827 87.2465C118.293 87.1974 118.036 87.203 117.668 86.7459C117.061 85.9943 116.863 84.3321 117.102 83.4159C117.199 83.0445 117.313 82.5578 117.532 82.2403Z" fill="#597848"/>
<path d="M117.532 82.2403C118.934 80.005 121.126 79.3586 123.01 77.6852C124.701 76.1826 125.945 73.5204 128.283 72.968C131.322 72.2496 133.978 75.7276 136.992 76.0146C139.501 76.2536 142.358 74.6235 144.675 76.0563L144.273 76.1031C142.374 76.3115 140.509 76.1572 138.626 76.684C135.651 77.5162 133.105 79.56 130.144 80.3264C127.959 80.8918 125.777 80.335 123.588 80.6432C121.548 80.9305 119.563 81.8428 117.532 82.2403Z" fill="#86C260"/>
<path d="M138.79 80.5192C140.057 80.0062 142.033 78.9314 143.359 79.4471C143.772 80.967 142.067 81.2166 141.895 82.5248C142.18 83.0106 142.267 83.0571 142.766 83.3309C143.678 83.3764 144.478 82.8994 145.292 82.533C143.58 86.1835 139.985 89.4516 136.195 90.848C131.752 92.4854 125.97 91.4797 121.762 89.5698C121.618 89.5043 121.479 89.4257 121.34 89.351C121.714 89.2022 121.929 89.098 122.227 88.8127C122.546 88.5068 122.457 88.4528 122.473 88.042C121.978 87.2689 121.071 86.805 120.316 86.3085C120.694 85.7347 121.428 84.4463 122.009 84.0918C124.071 82.8332 130.098 87.0976 134.725 85.2768C137.003 84.3801 137.887 82.6247 138.79 80.5192Z" fill="#597848"/>
<path d="M160.55 58.683C160.563 59.3405 160.574 60.0053 160.505 60.6604C160.193 63.6601 158.333 66.4314 156.015 68.2843C152.706 70.9297 148.643 71.8475 144.48 71.3312C140.192 70.7997 135.284 68.8352 132.624 65.2799C131.216 63.4 130.801 61.3517 131.165 59.0494C131.742 55.4045 133.799 51.4085 136.839 49.2612C141.466 45.9928 147.37 46.3516 152.651 47.3573C153.494 47.704 154.419 47.9653 155.029 48.6702C155.202 49.426 155.088 49.5929 154.839 50.3051C155.88 52.038 156.95 53.7531 158.048 55.4505C159.341 56.4559 160 57.1076 160.55 58.683Z" fill="black"/>
<path d="M150.112 58.4863C150.902 58.5073 151.475 58.6993 152.032 59.2735C152.194 59.6468 152.312 59.9113 152.242 60.3318C152.083 61.2962 151.448 61.7632 150.702 62.2793C150.045 62.1465 149.283 62.0441 148.849 61.4661C148.515 61.0221 148.453 60.5428 148.622 60.0193C148.856 59.2968 149.52 58.8904 150.112 58.4863Z" fill="#EFEFEF"/>
<path d="M142.899 57.3144C143.473 57.2354 144.051 57.1597 144.632 57.225C145.356 57.3065 146.033 57.6806 146.436 58.2968C146.912 59.0256 146.882 59.9377 146.647 60.7415C146.169 62.3794 145.187 63.1838 143.728 63.9381C142.981 64.0408 142.385 64.1187 141.662 63.8569C141.002 63.6176 140.416 63.0508 140.128 62.4151C139.715 61.5029 139.836 60.4476 140.218 59.5469C140.736 58.3237 141.739 57.8168 142.899 57.3144Z" fill="#EFEFEF"/>
<path d="M134.519 55.661C134.911 54.894 135.305 54.1216 135.811 53.4224C139.144 48.8194 145.396 48.3886 150.51 49.5453C151.595 49.7907 153.438 50.6039 154.503 50.3863C154.616 50.3631 154.727 50.332 154.839 50.305C155.88 52.0379 156.95 53.753 158.048 55.4504C157.831 55.3403 157.613 55.2298 157.393 55.1257C149.952 51.6037 141.991 52.9595 134.519 55.661Z" fill="#86C260"/>
<path d="M119.173 55.0125C118.171 53.0567 117.272 52.0817 115.158 51.3982C110.181 49.7902 103.424 50.5805 98.8197 52.9976C97.3931 53.7464 94.7653 56.0988 93.2983 56.124C92.7697 55.7774 92.7873 55.6949 92.5708 55.0902C92.7363 54.1673 93.3126 53.7563 94.0412 53.2507C100.54 48.7422 107.232 47.3291 115.066 48.7865C115.196 48.8095 115.325 48.8357 115.453 48.8651C115.581 48.8945 115.708 48.927 115.835 48.9627C115.961 48.9983 116.087 49.037 116.211 49.0789C116.336 49.1208 116.46 49.1656 116.582 49.2135C116.704 49.2614 116.826 49.3121 116.945 49.3658C117.065 49.4197 117.184 49.4763 117.301 49.5357C117.418 49.5954 117.534 49.6579 117.648 49.7232C117.762 49.7884 117.874 49.8565 117.985 49.9273C118.096 49.9981 118.205 50.0716 118.312 50.1478C118.419 50.2237 118.524 50.3023 118.628 50.3836C118.731 50.4649 118.832 50.5487 118.932 50.6352C119.031 50.7213 119.128 50.8099 119.222 50.901C119.317 50.992 119.41 51.0853 119.5 51.1807C119.59 51.2762 119.678 51.3739 119.764 51.4737C119.849 51.5736 119.932 51.6756 120.013 51.7796C120.093 51.8834 120.171 51.9892 120.247 52.0969C122.642 55.5343 122.873 61.2842 122.072 65.2439C121.226 69.4265 118.161 73.533 114.628 75.8726C111.14 78.1814 106.842 78.4459 102.836 77.6151C99.3414 76.891 95.8094 75.1881 93.8636 72.0757C93.2925 71.1626 92.9478 70.1627 92.7901 69.0987C93.173 66.0416 94.0259 63.6574 96.4606 61.6153C101.505 57.3848 109.109 55.4167 115.592 55.5907C116.83 55.624 117.985 55.9442 119.208 56.0517L119.416 55.8161L119.173 55.0125Z" fill="black"/>
<path d="M111.675 62.252C112.261 62.221 112.883 62.1629 113.392 62.535C113.865 62.8815 113.996 63.2891 114.011 63.8545C114.031 64.547 113.468 65.2 113.053 65.6921C112.431 65.7258 111.67 65.7495 111.188 65.2737C110.921 65.0107 110.776 64.7135 110.745 64.347C110.662 63.3956 111.089 62.9164 111.675 62.252Z" fill="#EFEFEF"/>
<path d="M103.086 62.7048C103.749 62.6396 104.415 62.5794 105.066 62.7657C106.021 63.0389 106.865 63.8922 107.32 64.7495C107.963 65.9603 108.052 67.4424 107.612 68.7346C107.147 70.0971 106.306 70.6991 105.07 71.3337C104.644 71.3258 104.261 71.3144 103.849 71.1947C102.447 70.7872 101.221 69.9281 100.578 68.5913C100.075 67.5474 99.9892 66.323 100.404 65.2361C100.905 63.9254 101.824 63.2216 103.086 62.7048Z" fill="#EFEFEF"/>
<path d="M109.436 108.935C108.916 106.929 109.996 103.275 111.026 101.516C112.516 98.972 115.189 97.6972 117.961 97.0572C121.383 96.2667 125.031 96.0395 128.507 95.5144C132.521 94.9081 136.934 93.5599 140.654 91.8996C144.902 90.0034 150.884 85.0388 154.512 84.0022C156.591 83.4084 158.649 83.7374 160.455 84.9241C160.602 85.0197 160.745 85.119 160.886 85.2219C161.028 85.3248 161.166 85.4311 161.302 85.541C161.437 85.6509 161.57 85.7642 161.7 85.8808C161.83 85.9975 161.957 86.1173 162.081 86.2402C162.205 86.3634 162.326 86.4895 162.443 86.6186C162.561 86.7478 162.675 86.8799 162.786 87.0147C162.897 87.1495 163.004 87.2872 163.109 87.4276C163.212 87.568 163.313 87.7109 163.409 87.8561C163.506 88.0017 163.599 88.1495 163.688 88.2997C163.777 88.4498 163.863 88.602 163.944 88.7563C164.026 88.9108 164.103 89.0673 164.177 89.2257C164.251 89.3841 164.32 89.5442 164.386 89.706C164.451 89.8678 164.513 90.0313 164.57 90.1965C164.627 90.3615 164.68 90.5278 164.729 90.6954C164.778 90.863 164.823 91.0318 164.863 91.2018C164.903 91.3718 164.939 91.5427 164.971 91.7143C165.835 96.4885 163.48 102.788 160.729 106.631C160.112 107.494 159.397 108.309 158.678 109.088C157.801 109.685 157.013 110.458 156.15 111.09C153.666 112.908 151.043 114.31 148.169 115.411C138.91 118.959 125.559 120.972 116.238 116.727C112.606 115.073 110.796 112.591 109.436 108.935Z" fill="black"/>
<path d="M145.054 114.373C146.089 113.304 148.491 112.484 149.832 111.687C151.714 110.567 153.551 109.323 155.346 108.069C157.436 106.609 158.63 104.183 160.806 102.794C158.56 107.951 153.102 111.452 148.04 113.44C147.071 113.82 146.077 114.174 145.054 114.373Z" fill="#97312A"/>
<path d="M111.717 109.61C116.994 114.174 123.294 115.99 130.218 116.317C132.171 116.244 134.129 116.175 136.05 116.577C134.296 116.92 132.509 117.016 130.731 117.149C126.28 117.484 120.851 116.888 116.771 114.968C114.259 113.786 112.678 112.221 111.717 109.61Z" fill="#97312A"/>
<path d="M111.717 109.61C111.64 109.446 111.563 109.281 111.496 109.113C110.823 107.44 111.518 104.853 112.244 103.281C114.872 97.5895 124.745 98.0377 130.125 97.0556C131.841 96.7374 133.537 96.3325 135.212 95.8409C136.886 95.3495 138.532 94.7738 140.148 94.1138C142.55 93.1531 144.847 91.9841 147.037 90.6068C149.509 89.0444 152.304 86.6571 155.085 85.7428C156.375 85.3188 157.848 85.5184 159.044 86.1244C160.911 87.0696 162.389 89.0912 162.967 91.0768C164.042 94.7682 162.519 99.5117 160.806 102.794C158.63 104.183 157.436 106.609 155.346 108.069C153.551 109.323 151.714 110.567 149.832 111.687C148.491 112.484 146.089 113.304 145.054 114.373C142.067 115.431 139.16 116.049 136.049 116.577C134.129 116.175 132.171 116.244 130.218 116.318C123.294 115.99 116.993 114.174 111.717 109.61Z" fill="#EF493D"/>
<path d="M119.12 111.911C118.647 111.869 118.161 111.794 117.729 111.587C115.834 110.678 114.751 109.442 114.182 107.431C113.807 106.109 113.894 104.749 114.643 103.573C115.566 102.125 117.255 101.073 118.855 100.534C121.077 99.7863 123.583 99.7412 125.899 99.4523C131.545 98.7484 138.046 98.0131 143.304 95.8691C146.871 94.4148 151.9 89.4036 155.111 88.9091C156.034 88.7667 157.215 88.9409 157.954 89.5509C159.17 90.5548 159.223 92.5399 159.343 93.9935C158.948 92.9793 158.575 92.0809 157.522 91.6133C156.84 91.3101 155.876 91.2128 155.17 91.4767C153.057 92.267 150.959 94.0972 148.991 95.2517C142.95 98.7971 134.938 101.637 127.941 101.96C124.754 102.107 117.336 101.338 115.97 105.102C115.536 106.299 115.579 107.711 116.171 108.844C116.772 109.994 118.152 111.07 119.12 111.911Z" fill="#97312A"/>
<path d="M119.12 111.912C118.151 111.07 116.772 109.994 116.171 108.844C115.579 107.711 115.535 106.299 115.97 105.102C117.336 101.338 124.754 102.107 127.94 101.96C134.938 101.638 142.95 98.7972 148.991 95.2518C150.958 94.0973 153.056 92.2671 155.169 91.4768C155.875 91.2129 156.839 91.3102 157.522 91.6134C158.574 92.081 158.948 92.9794 159.342 93.9935C159.835 97.015 159.401 99.8861 157.54 102.389C152.858 108.688 141.461 113.464 133.887 114.415C128.532 115.087 123.937 114.363 119.12 111.912Z" fill="black"/>
<path d="M134.354 112.454C132.881 113.374 127.94 112.873 126.188 112.579C123.693 112.16 118.966 110.377 117.691 108.036C117.325 107.364 117.458 106.543 117.743 105.861C118.181 104.814 119.212 104.369 120.254 104.147C122.421 103.685 124.839 103.961 127.056 103.843C132.158 103.572 137.304 102.327 142.079 100.541C144.498 99.6367 147.232 98.5521 149.467 97.2624C151.468 96.1081 153.596 93.9964 155.768 93.334C156.384 93.146 156.59 93.2029 157.142 93.5047C157.892 94.7113 157.764 96.0513 157.695 97.4114C156.698 101.74 153.221 104.368 149.602 106.627C145.1 109.439 139.636 111.728 134.354 112.454Z" fill="#280A01"/>
<path d="M155.511 96.9072L157.695 97.4114C156.698 101.74 153.221 104.368 149.602 106.627C145.099 109.439 139.636 111.728 134.353 112.454C133.349 112.381 132.133 112.598 131.107 112.656C135.039 111.122 137.556 108.63 140.766 105.992C145.223 102.329 150.039 98.8548 155.511 96.9072Z" fill="#3D1101"/>
<defs>
<linearGradient id="paint0_linear_2011_3079" x1="155.084" y1="209.035" x2="61.5874" y2="39.6617" gradientUnits="userSpaceOnUse">
<stop stop-color="#7DB95B"/>
<stop offset="1" stop-color="#9EDA70"/>
</linearGradient>
</defs>
</svg>
