<svg width="1888" height="568" viewBox="0 0 1888 568" fill="none" xmlns="http://www.w3.org/2000/svg">
<path d="M289.094 284.633C289.654 284.954 290.113 285.192 290.341 285.843C290.566 286.485 290.434 287.301 290.098 287.873C289.749 288.466 289.183 288.92 288.491 289.036C287.871 289.139 287.348 288.949 286.878 288.557C286.58 288.308 286.363 288.029 286.148 287.705C287.183 286.754 288.127 285.655 289.094 284.633Z" fill="#EFEFEF"/>
<path d="M12.3706 229.492C13.0921 229.431 13.9999 229.664 14.5902 230.096C15.0215 230.411 15.0042 230.708 15.0799 231.189C14.7921 231.926 14.562 232.671 14.3338 233.428C13.36 233.471 12.3533 233.515 11.5952 232.785C11.1987 232.404 10.972 232.039 11.0226 231.47C11.102 230.577 11.7387 230.033 12.3706 229.492Z" fill="#FEE9E5"/>
<path d="M11.0271 293.697C11.3563 293.764 11.7528 293.821 12.0577 293.961C12.5911 294.204 13.0197 294.624 13.2261 295.181C13.4059 295.665 13.296 296.17 13.1006 296.628C12.7092 297.545 11.9729 297.658 11.128 298.004C10.9342 297.987 10.7978 297.988 10.6072 297.907C10.0826 297.683 9.63941 297.231 9.426 296.704C9.19929 296.143 9.27335 295.437 9.50717 294.886C9.80288 294.189 10.3833 293.991 11.0271 293.697Z" fill="#EFEFEF"/>
<path d="M66.1724 261.147C66.9233 261.061 67.6753 260.941 68.4 261.223C68.8024 261.378 69.2208 261.675 69.3686 262.089C69.7402 263.129 69.201 263.949 68.7412 264.86C68.142 265.077 67.2923 265.208 66.6824 265.005C66.283 264.872 65.9703 264.461 65.8198 264.082C65.3691 262.948 65.7157 262.202 66.1724 261.147Z" fill="#FEE9E5"/>
<path d="M23.2271 213.24L23.3312 213.277C23.585 213.672 23.479 213.54 23.7153 213.817C23.9536 214.097 24.2314 214.369 24.3135 214.741C24.4385 215.309 24.1961 215.839 23.859 216.275C23.1647 217.174 22.4131 217.197 21.3578 217.313C20.5838 216.707 20.124 216.198 19.9404 215.224C20.029 214.745 20.1228 214.442 20.4607 214.089C21.2917 213.221 22.0874 213.286 23.2271 213.24Z" fill="#EFEFEF"/>
<path d="M340.861 0.679349C341.978 0.601031 343.197 0.568123 344.041 1.4574C344.295 1.7253 344.482 2.0589 344.482 2.43081C344.483 3.3753 343.861 4.06435 343.195 4.65654C342.731 4.75489 342.301 4.86782 341.833 4.72152C341.115 4.49736 340.624 4.19598 340.342 3.466C340.014 2.61971 340.578 1.48768 340.861 0.679349Z" fill="#FEE9E5"/>
<path d="M339.229 27.6207C339.692 27.6401 340.131 27.6382 340.565 27.8293C341.194 28.1064 341.551 28.6809 341.738 29.3178C341.956 30.063 341.719 30.6535 341.374 31.3124C341.224 31.6001 341.06 31.5625 340.763 31.6567C340.134 31.7734 339.655 31.8326 339.009 31.7764C338.483 31.5058 338.049 31.1787 337.807 30.6197C337.57 30.0687 337.538 29.4668 337.773 28.9078C338.143 28.0254 338.389 27.9517 339.229 27.6207Z" fill="#FEE9E5"/>
<path d="M388.866 51.1758C389.242 51.1803 389.778 51.1507 390.135 51.2807C390.747 51.5022 391.583 52.4381 391.746 53.0739C391.891 53.6321 391.754 54.0486 391.503 54.5388C390.956 54.8223 390.458 55.17 389.949 55.5192C389.671 55.599 389.451 55.6488 389.158 55.5868C388.642 55.4766 388.129 55.1103 387.84 54.6668C387.475 54.101 387.384 53.2681 387.528 52.6171C387.688 51.8826 388.284 51.5436 388.866 51.1758Z" fill="#EFEFEF"/>
<path d="M406.296 135.465L406.9 135.931C407.136 136.109 407.425 136.281 407.618 136.506C408.044 137.003 408.105 137.325 408.09 137.961C407.736 138.683 407.402 139.308 406.611 139.615C406.144 139.798 405.753 139.976 405.3 140.209L405.205 140.298C404.818 139.955 403.875 138.714 403.727 138.217C403.628 137.889 403.594 137.552 403.746 137.239C404.225 136.263 405.361 135.866 406.296 135.465Z" fill="#FEE9E5"/>
<path d="M2.31155 415.01C3.0378 415.059 3.70239 414.976 4.31552 415.382C4.83277 417.734 4.83034 416.435 6.17702 417.518C5.13582 418.255 5.33027 417.358 3.84097 418.901C3.55088 419.239 3.42141 419.315 3.03511 419.509C2.43243 419.414 1.90685 419.251 1.47695 418.795C0.983942 418.27 0.639205 417.537 0.751913 416.8C0.889245 415.899 1.60957 415.451 2.31155 415.01Z" fill="#FEE9E5"/>
<path d="M55.9638 79.2901C57.0518 79.211 58.1887 79.281 59.0924 79.9764C59.3523 80.1766 59.6202 80.598 59.6487 80.9188C59.7247 81.7817 59.1372 82.6276 58.631 83.2786C58.1078 83.4389 57.6985 83.475 57.1585 83.4914C56.4274 83.1216 55.2468 82.7188 54.8721 81.9687C55.3144 81.0939 55.6465 80.2165 55.9638 79.2901Z" fill="#FEE9E5"/>
<path d="M472.143 208.705C473.231 208.626 474.368 208.696 475.272 209.391C475.532 209.591 475.8 210.013 475.828 210.333C475.904 211.196 475.317 212.042 474.811 212.693C474.287 212.854 473.878 212.89 473.338 212.906C472.607 212.536 471.426 212.133 471.052 211.383C471.494 210.509 471.826 209.631 472.143 208.705Z" fill="#FEE9E5"/>
<path d="M994.143 134.705C995.231 134.626 996.368 134.696 997.272 135.391C997.532 135.591 997.8 136.013 997.828 136.333C997.904 137.196 997.317 138.042 996.811 138.693C996.287 138.854 995.878 138.89 995.338 138.906C994.607 138.536 993.426 138.133 993.052 137.383C993.494 136.509 993.826 135.631 994.143 134.705Z" fill="#FEE9E5"/>
<path d="M1539.14 183.705C1540.23 183.626 1541.37 183.696 1542.27 184.391C1542.53 184.591 1542.8 185.013 1542.83 185.333C1542.9 186.196 1542.32 187.042 1541.81 187.693C1541.29 187.854 1540.88 187.89 1540.34 187.906C1539.61 187.536 1538.43 187.133 1538.05 186.383C1538.49 185.509 1538.83 184.631 1539.14 183.705Z" fill="#FEE9E5"/>
<path d="M401.375 171.171C401.74 171.365 401.611 171.342 401.941 171.389C402.466 171.464 402.853 171.535 403.328 171.79C403.75 172.015 404.404 172.409 404.495 172.91C404.712 174.072 403.708 175.138 403.123 176.051C402.622 175.752 402.067 175.668 401.527 175.479C400.851 175.241 400.509 174.833 400.231 174.197C400.334 173.511 400.459 173.018 400.767 172.396L401.375 171.171Z" fill="#FCD8E1"/>
<path d="M817.554 300.585C817.919 300.78 817.79 300.757 818.12 300.804C818.645 300.879 819.032 300.95 819.507 301.205C819.929 301.43 820.583 301.824 820.674 302.324C820.89 303.487 819.887 304.553 819.302 305.466C818.8 305.167 818.246 305.083 817.706 304.894C817.03 304.655 816.688 304.247 816.41 303.611C816.513 302.925 816.638 302.432 816.946 301.811L817.554 300.585Z" fill="#FCD8E1"/>
<path d="M1339.55 226.585C1339.92 226.78 1339.79 226.757 1340.12 226.804C1340.64 226.879 1341.03 226.95 1341.51 227.205C1341.93 227.43 1342.58 227.824 1342.67 228.324C1342.89 229.487 1341.89 230.553 1341.3 231.466C1340.8 231.167 1340.25 231.083 1339.71 230.894C1339.03 230.655 1338.69 230.247 1338.41 229.611C1338.51 228.925 1338.64 228.432 1338.95 227.811L1339.55 226.585Z" fill="#FCD8E1"/>
<path d="M1884.55 275.585C1884.92 275.78 1884.79 275.757 1885.12 275.804C1885.64 275.879 1886.03 275.95 1886.51 276.205C1886.93 276.43 1887.58 276.824 1887.67 277.324C1887.89 278.487 1886.89 279.553 1886.3 280.466C1885.8 280.167 1885.25 280.083 1884.71 279.894C1884.03 279.655 1883.69 279.247 1883.41 278.611C1883.51 277.925 1883.64 277.432 1883.95 276.811L1884.55 275.585Z" fill="#FCD8E1"/>
<path d="M70.5137 50.9204C70.5874 50.9124 70.6603 50.8972 70.7341 50.8961C71.3979 50.8866 72.1902 51.297 72.6409 51.7811C73.1581 52.3363 73.2626 53.1225 73.1037 53.8426C72.902 54.7588 72.1154 55.1399 71.3801 55.5861C71.2516 55.5785 71.1228 55.5735 70.994 55.5629C70.3389 55.5074 69.949 55.3463 69.534 54.8344C69.0153 54.1949 68.3119 53.3209 68.4028 52.4594C69.2866 52.1718 69.8559 51.5436 70.5137 50.9204Z" fill="#FEE9E5"/>
<path d="M486.693 180.335C486.767 180.327 486.84 180.312 486.913 180.311C487.577 180.301 488.37 180.712 488.82 181.196C489.338 181.751 489.442 182.537 489.283 183.257C489.081 184.173 488.295 184.555 487.559 185.001C487.431 184.993 487.302 184.988 487.173 184.977C486.518 184.922 486.128 184.761 485.713 184.249C485.195 183.609 484.491 182.735 484.582 181.874C485.466 181.586 486.035 180.958 486.693 180.335Z" fill="#FEE9E5"/>
<path d="M1008.69 106.335C1008.77 106.327 1008.84 106.312 1008.91 106.311C1009.58 106.301 1010.37 106.712 1010.82 107.196C1011.34 107.751 1011.44 108.537 1011.28 109.257C1011.08 110.173 1010.29 110.555 1009.56 111.001C1009.43 110.993 1009.3 110.988 1009.17 110.977C1008.52 110.922 1008.13 110.761 1007.71 110.249C1007.19 109.609 1006.49 108.735 1006.58 107.874C1007.47 107.586 1008.04 106.958 1008.69 106.335Z" fill="#FEE9E5"/>
<path d="M1553.69 155.335C1553.77 155.327 1553.84 155.312 1553.91 155.311C1554.58 155.301 1555.37 155.712 1555.82 156.196C1556.34 156.751 1556.44 157.537 1556.28 158.257C1556.08 159.173 1555.29 159.555 1554.56 160.001C1554.43 159.993 1554.3 159.988 1554.17 159.977C1553.52 159.922 1553.13 159.761 1552.71 159.249C1552.19 158.609 1551.49 157.735 1551.58 156.874C1552.47 156.586 1553.04 155.958 1553.69 155.335Z" fill="#FEE9E5"/>
<path d="M9.32977 398.225C9.43598 398.233 9.54279 398.237 9.64836 398.248C10.1959 398.32 10.6431 398.518 10.9546 398.997C11.3088 399.54 11.2733 400.129 11.1058 400.726C10.7724 401.911 10.3304 402.246 9.24803 402.812C8.80753 402.69 8.37494 402.584 7.97799 402.348C7.37075 401.987 6.86619 401.197 6.82496 400.475C6.82022 400.401 6.81911 400.328 6.82162 400.254C6.82415 400.178 6.8303 400.104 6.84008 400.03C6.84986 399.957 6.86321 399.885 6.88013 399.814C6.89706 399.743 6.91746 399.672 6.94135 399.601C6.96527 399.53 6.99256 399.461 7.02324 399.396C7.0539 399.327 7.08779 399.261 7.12493 399.198C7.16207 399.132 7.20225 399.07 7.24547 399.012C7.28871 398.951 7.33479 398.893 7.38371 398.837C7.98749 398.161 8.4753 398.297 9.32977 398.225Z" fill="#FEE9E5"/>
<path d="M425.509 527.64C425.616 527.647 425.722 527.651 425.828 527.663C426.376 527.735 426.823 527.932 427.134 528.411C427.488 528.955 427.453 529.544 427.285 530.14C426.952 531.326 426.51 531.66 425.428 532.226C424.987 532.105 424.555 531.998 424.158 531.763C423.55 531.402 423.046 530.611 423.005 529.889C423 529.816 422.999 529.742 423.001 529.669C423.004 529.593 423.01 529.518 423.02 529.445C423.03 529.371 423.043 529.299 423.06 529.228C423.077 529.157 423.097 529.086 423.121 529.015C423.145 528.944 423.172 528.876 423.203 528.81C423.234 528.742 423.267 528.676 423.305 528.613C423.342 528.547 423.382 528.485 423.425 528.426C423.468 528.366 423.514 528.307 423.563 528.252C424.167 527.575 424.655 527.712 425.509 527.64Z" fill="#FEE9E5"/>
<path d="M947.509 453.64C947.616 453.647 947.722 453.651 947.828 453.663C948.376 453.735 948.823 453.932 949.134 454.411C949.488 454.955 949.453 455.544 949.285 456.14C948.952 457.326 948.51 457.66 947.428 458.226C946.987 458.105 946.555 457.998 946.158 457.763C945.55 457.402 945.046 456.611 945.005 455.889C945 455.816 944.999 455.742 945.001 455.669C945.004 455.593 945.01 455.518 945.02 455.445C945.03 455.371 945.043 455.299 945.06 455.228C945.077 455.157 945.097 455.086 945.121 455.015C945.145 454.944 945.172 454.876 945.203 454.81C945.234 454.742 945.267 454.676 945.305 454.613C945.342 454.547 945.382 454.485 945.425 454.426C945.468 454.366 945.514 454.307 945.563 454.252C946.167 453.575 946.655 453.712 947.509 453.64Z" fill="#FEE9E5"/>
<path d="M1492.51 502.64C1492.62 502.647 1492.72 502.651 1492.83 502.663C1493.38 502.735 1493.82 502.932 1494.13 503.411C1494.49 503.955 1494.45 504.544 1494.29 505.14C1493.95 506.326 1493.51 506.66 1492.43 507.226C1491.99 507.105 1491.55 506.998 1491.16 506.763C1490.55 506.402 1490.05 505.611 1490 504.889C1490 504.816 1490 504.742 1490 504.669C1490 504.593 1490.01 504.518 1490.02 504.445C1490.03 504.371 1490.04 504.299 1490.06 504.228C1490.08 504.157 1490.1 504.086 1490.12 504.015C1490.14 503.944 1490.17 503.876 1490.2 503.81C1490.23 503.742 1490.27 503.676 1490.3 503.613C1490.34 503.547 1490.38 503.485 1490.43 503.426C1490.47 503.366 1490.51 503.307 1490.56 503.252C1491.17 502.575 1491.65 502.712 1492.51 502.64Z" fill="#FEE9E5"/>
<path d="M30.3799 403.131C30.5906 403.106 30.8018 403.085 31.0133 403.07C31.9907 403.002 33.03 403.196 33.7216 403.975C34.1092 404.408 34.2543 404.761 34.2065 405.346C34.1571 405.947 33.6057 406.498 33.2067 406.893C32.9148 407.045 32.5732 407.25 32.2529 407.334C31.529 407.516 30.3791 406.809 29.7209 406.502C29.6685 405.187 29.5222 404.222 30.3799 403.131Z" fill="#EFEFEF"/>
<path d="M446.56 532.546C446.77 532.52 446.981 532.5 447.193 532.485C448.17 532.416 449.21 532.61 449.901 533.389C450.289 533.822 450.434 534.176 450.386 534.761C450.337 535.361 449.785 535.912 449.386 536.308C449.095 536.46 448.753 536.665 448.433 536.748C447.709 536.931 446.559 536.224 445.901 535.916C445.848 534.601 445.702 533.636 446.56 532.546Z" fill="#EFEFEF"/>
<path d="M968.56 458.546C968.77 458.52 968.981 458.5 969.193 458.485C970.17 458.416 971.21 458.61 971.901 459.389C972.289 459.822 972.434 460.176 972.386 460.761C972.337 461.361 971.785 461.912 971.386 462.308C971.095 462.46 970.753 462.665 970.433 462.748C969.709 462.931 968.559 462.224 967.901 461.916C967.848 460.601 967.702 459.636 968.56 458.546Z" fill="#EFEFEF"/>
<path d="M1513.56 507.546C1513.77 507.52 1513.98 507.5 1514.19 507.485C1515.17 507.416 1516.21 507.61 1516.9 508.389C1517.29 508.822 1517.43 509.176 1517.39 509.761C1517.34 510.361 1516.79 510.912 1516.39 511.308C1516.09 511.46 1515.75 511.665 1515.43 511.748C1514.71 511.931 1513.56 511.224 1512.9 510.916C1512.85 509.601 1512.7 508.636 1513.56 507.546Z" fill="#EFEFEF"/>
<path d="M352.249 266.612C352.345 266.637 352.439 266.678 352.538 266.687C353.519 266.781 354.032 266.684 354.898 267.255C355.263 267.496 355.583 267.842 355.639 268.287C355.772 269.337 355.147 270.059 354.567 270.859C354.478 271.074 354.552 270.95 354.268 271.173C353.599 271.179 352.746 271.147 352.162 270.783C351.683 270.484 351.376 269.922 351.287 269.374C351.12 268.345 351.756 267.453 352.249 266.612Z" fill="#FCD8E1"/>
<path d="M768.429 396.026C768.525 396.051 768.619 396.092 768.718 396.102C769.698 396.195 770.211 396.099 771.078 396.67C771.443 396.911 771.763 397.256 771.819 397.701C771.952 398.752 771.327 399.474 770.747 400.274C770.658 400.488 770.731 400.364 770.447 400.588C769.779 400.594 768.926 400.562 768.341 400.197C767.863 399.899 767.556 399.336 767.467 398.789C767.299 397.759 767.935 396.867 768.429 396.026Z" fill="#FCD8E1"/>
<path d="M1835.43 371.026C1835.53 371.051 1835.62 371.092 1835.72 371.102C1836.7 371.195 1837.21 371.099 1838.08 371.67C1838.44 371.911 1838.76 372.256 1838.82 372.701C1838.95 373.752 1838.33 374.474 1837.75 375.274C1837.66 375.488 1837.73 375.364 1837.45 375.588C1836.78 375.594 1835.93 375.562 1835.34 375.197C1834.86 374.899 1834.56 374.336 1834.47 373.789C1834.3 372.759 1834.94 371.867 1835.43 371.026Z" fill="#FCD8E1"/>
<path d="M309.615 263.929C311.085 263.712 311.818 264.177 313.094 264.81C313.035 266.077 313.145 267.095 312.154 268.028C311.134 268.236 310.137 268.276 309.268 267.601C308.825 267.256 308.584 266.779 308.551 266.221C308.493 265.226 309.01 264.635 309.615 263.929Z" fill="#FEE9E5"/>
<path d="M725.795 393.344C727.265 393.127 727.998 393.591 729.274 394.225C729.215 395.492 729.325 396.51 728.334 397.443C727.314 397.65 726.317 397.691 725.448 397.015C725.005 396.671 724.764 396.194 724.731 395.635C724.673 394.64 725.19 394.05 725.795 393.344Z" fill="#FEE9E5"/>
<path d="M1792.79 368.344C1794.26 368.127 1795 368.591 1796.27 369.225C1796.21 370.492 1796.32 371.51 1795.33 372.443C1794.31 372.65 1793.32 372.691 1792.45 372.015C1792 371.671 1791.76 371.194 1791.73 370.635C1791.67 369.64 1792.19 369.05 1792.79 368.344Z" fill="#FEE9E5"/>
<path d="M63.7481 418.456C64.5811 418.51 65.4319 418.776 66.2458 418.966C66.4153 419.893 66.6699 420.782 66.4214 421.713C66.0087 422.359 65.4965 422.526 64.8227 422.811C64.3569 422.773 63.7986 422.769 63.3518 422.636C62.8593 422.492 62.3626 421.952 62.17 421.474C61.9226 420.862 61.9689 420.315 62.2365 419.722C62.564 419 63.0447 418.753 63.7481 418.456Z" fill="#EFEFEF"/>
<path d="M479.928 547.871C480.761 547.924 481.612 548.19 482.426 548.38C482.595 549.307 482.85 550.197 482.601 551.128C482.188 551.774 481.676 551.941 481.002 552.226C480.537 552.188 479.978 552.184 479.531 552.051C479.039 551.907 478.542 551.367 478.35 550.888C478.102 550.276 478.149 549.729 478.416 549.136C478.744 548.414 479.224 548.167 479.928 547.871Z" fill="#EFEFEF"/>
<path d="M1001.93 473.871C1002.76 473.924 1003.61 474.19 1004.43 474.38C1004.6 475.307 1004.85 476.197 1004.6 477.128C1004.19 477.774 1003.68 477.941 1003 478.226C1002.54 478.188 1001.98 478.184 1001.53 478.051C1001.04 477.907 1000.54 477.367 1000.35 476.888C1000.1 476.276 1000.15 475.729 1000.42 475.136C1000.74 474.414 1001.22 474.167 1001.93 473.871Z" fill="#EFEFEF"/>
<path d="M1546.93 522.871C1547.76 522.924 1548.61 523.19 1549.43 523.38C1549.6 524.307 1549.85 525.197 1549.6 526.128C1549.19 526.774 1548.68 526.941 1548 527.226C1547.54 527.188 1546.98 527.184 1546.53 527.051C1546.04 526.907 1545.54 526.367 1545.35 525.888C1545.1 525.276 1545.15 524.729 1545.42 524.136C1545.74 523.414 1546.22 523.167 1546.93 522.871Z" fill="#EFEFEF"/>
<path d="M79.2501 13.5854C79.7908 13.6741 80.3095 13.5399 80.8662 13.699C81.6205 13.9146 82.1483 14.2903 82.5329 14.9782C82.7237 16.3392 82.0948 17.0597 81.3382 18.0884C80.6838 18.0288 79.9022 17.9953 79.2892 17.7462C78.777 17.5381 78.2955 17.1126 78.145 16.5675C77.8437 15.4772 78.6554 14.4027 79.2501 13.5854Z" fill="#EFEFEF"/>
<path d="M495.43 143C495.971 143.089 496.489 142.954 497.046 143.114C497.8 143.329 498.328 143.705 498.713 144.393C498.904 145.754 498.275 146.474 497.518 147.503C496.864 147.443 496.082 147.41 495.469 147.161C494.957 146.953 494.475 146.527 494.325 145.982C494.024 144.892 494.835 143.817 495.43 143Z" fill="#EFEFEF"/>
<path d="M1017.43 69C1017.97 69.0887 1018.49 68.9544 1019.05 69.1136C1019.8 69.3292 1020.33 69.7049 1020.71 70.3927C1020.9 71.7537 1020.27 72.4743 1019.52 73.5029C1018.86 73.4433 1018.08 73.4099 1017.47 73.1607C1016.96 72.9526 1016.48 72.5272 1016.32 71.982C1016.02 70.8918 1016.84 69.8172 1017.43 69Z" fill="#EFEFEF"/>
<path d="M1723.17 23C1723.71 23.0887 1724.23 22.9544 1724.79 23.1136C1725.54 23.3292 1726.07 23.7049 1726.45 24.3927C1726.64 25.7537 1726.01 26.4743 1725.26 27.5029C1724.6 27.4433 1723.82 27.4099 1723.21 27.1607C1722.7 26.9526 1722.22 26.5272 1722.06 25.982C1721.76 24.8918 1722.58 23.8172 1723.17 23Z" fill="#EFEFEF"/>
<path d="M339.78 271.113C340.105 271.188 340.418 271.271 340.737 271.368C341.517 271.605 341.908 271.756 342.284 272.512C342.579 273.105 342.504 273.7 342.275 274.295C341.94 275.166 341.392 275.362 340.593 275.693C340.099 275.643 339.545 275.543 339.08 275.372C338.533 275.171 338.05 274.555 337.893 273.999C337.727 273.415 337.834 272.858 338.115 272.33C338.502 271.602 339.031 271.371 339.78 271.113Z" fill="#FEE9E5"/>
<path d="M755.96 400.527C756.285 400.602 756.598 400.685 756.917 400.782C757.697 401.02 758.088 401.17 758.464 401.926C758.759 402.52 758.684 403.114 758.455 403.71C758.12 404.58 757.572 404.777 756.773 405.107C756.279 405.057 755.725 404.958 755.26 404.787C754.713 404.586 754.23 403.969 754.072 403.413C753.907 402.829 754.014 402.272 754.295 401.745C754.682 401.016 755.211 400.785 755.96 400.527Z" fill="#FEE9E5"/>
<path d="M1466.97 36C1467.29 36.0749 1467.6 36.1577 1467.92 36.2546C1468.7 36.4921 1469.09 36.6426 1469.47 37.3988C1469.77 37.9924 1469.69 38.5867 1469.46 39.1821C1469.13 40.0527 1468.58 40.2495 1467.78 40.5798C1467.28 40.53 1466.73 40.4304 1466.27 40.259C1465.72 40.0584 1465.24 39.4417 1465.08 38.8857C1464.91 38.3017 1465.02 37.745 1465.3 37.2175C1465.69 36.4887 1466.22 36.258 1466.97 36Z" fill="#FEE9E5"/>
<path d="M291.087 362.678C291.406 362.704 291.676 362.749 291.972 362.886C292.498 363.13 293.048 363.634 293.242 364.195C293.476 364.873 293.425 365.571 293.115 366.215C292.734 367.003 292.008 367.202 291.245 367.46C290.544 367.341 290.11 367.283 289.638 366.683C289.09 365.986 288.648 364.826 288.816 363.95C289.416 363.366 290.336 363.038 291.087 362.678Z" fill="#EFEFEF"/>
<path d="M707.266 492.093C707.586 492.118 707.856 492.163 708.152 492.301C708.677 492.544 709.228 493.048 709.422 493.61C709.656 494.287 709.605 494.986 709.294 495.629C708.914 496.417 708.188 496.617 707.425 496.875C706.724 496.756 706.29 496.697 705.818 496.098C705.269 495.401 704.828 494.241 704.996 493.364C705.596 492.78 706.516 492.452 707.266 492.093Z" fill="#EFEFEF"/>
<path d="M1774.27 467.093C1774.59 467.118 1774.86 467.163 1775.15 467.301C1775.68 467.544 1776.23 468.048 1776.42 468.61C1776.66 469.287 1776.6 469.986 1776.29 470.629C1775.91 471.417 1775.19 471.617 1774.43 471.875C1773.72 471.756 1773.29 471.697 1772.82 471.098C1772.27 470.401 1771.83 469.241 1772 468.364C1772.6 467.78 1773.52 467.452 1774.27 467.093Z" fill="#EFEFEF"/>
<path d="M310.121 431.981C310.403 432 310.68 432.015 310.958 432.068C311.765 432.216 312.665 432.611 313.091 433.36C313.376 433.862 313.484 434.325 313.302 434.888C313.01 435.784 312.356 436.172 311.578 436.586C311.489 436.601 311.401 436.62 311.312 436.628C310.319 436.715 309.356 435.758 308.599 435.195C308.748 434.534 308.803 433.846 308.985 433.193C309.163 432.551 309.575 432.285 310.121 431.981Z" fill="#EFEFEF"/>
<path d="M726.3 561.395C726.582 561.414 726.859 561.429 727.137 561.483C727.943 561.631 728.843 562.026 729.269 562.775C729.555 563.276 729.663 563.74 729.48 564.302C729.189 565.199 728.535 565.587 727.757 566.001C727.668 566.016 727.58 566.035 727.491 566.043C726.497 566.13 725.535 565.172 724.777 564.61C724.927 563.949 724.982 563.261 725.164 562.607C725.342 561.965 725.754 561.699 726.3 561.395Z" fill="#EFEFEF"/>
<path d="M1248.3 487.395C1248.58 487.414 1248.86 487.429 1249.14 487.483C1249.94 487.631 1250.84 488.026 1251.27 488.775C1251.56 489.276 1251.66 489.74 1251.48 490.302C1251.19 491.199 1250.53 491.587 1249.76 492.001C1249.67 492.016 1249.58 492.035 1249.49 492.043C1248.5 492.13 1247.53 491.172 1246.78 490.61C1246.93 489.949 1246.98 489.261 1247.16 488.607C1247.34 487.965 1247.75 487.699 1248.3 487.395Z" fill="#EFEFEF"/>
<path d="M1793.3 536.395C1793.58 536.414 1793.86 536.429 1794.14 536.483C1794.94 536.631 1795.84 537.026 1796.27 537.775C1796.56 538.276 1796.66 538.74 1796.48 539.302C1796.19 540.199 1795.53 540.587 1794.76 541.001C1794.67 541.016 1794.58 541.035 1794.49 541.043C1793.5 541.13 1792.53 540.172 1791.78 539.61C1791.93 538.949 1791.98 538.261 1792.16 537.607C1792.34 536.965 1792.75 536.699 1793.3 536.395Z" fill="#EFEFEF"/>
<path d="M276.287 433.432C277.041 433.626 277.743 433.808 278.415 434.215C278.875 434.884 279.227 435.397 279.017 436.256C278.781 437.225 278.28 437.567 277.469 438.015C276.955 438.015 276.361 438.038 275.87 437.867C275.178 437.631 274.72 437.213 274.438 436.544C274.195 435.967 274.277 435.401 274.519 434.846C274.895 433.979 275.433 433.736 276.287 433.432Z" fill="#FEE9E5"/>
<path d="M692.467 562.847C693.221 563.04 693.923 563.223 694.595 563.63C695.055 564.298 695.407 564.811 695.197 565.67C694.961 566.639 694.46 566.981 693.649 567.43C693.135 567.43 692.541 567.452 692.05 567.281C691.358 567.046 690.9 566.628 690.618 565.959C690.375 565.381 690.457 564.815 690.699 564.26C691.075 563.394 691.613 563.151 692.467 562.847Z" fill="#FEE9E5"/>
<path d="M1214.47 488.847C1215.22 489.04 1215.92 489.223 1216.59 489.63C1217.05 490.298 1217.41 490.811 1217.2 491.67C1216.96 492.639 1216.46 492.981 1215.65 493.43C1215.13 493.43 1214.54 493.452 1214.05 493.281C1213.36 493.046 1212.9 492.628 1212.62 491.959C1212.37 491.381 1212.46 490.815 1212.7 490.26C1213.07 489.394 1213.61 489.151 1214.47 488.847Z" fill="#FEE9E5"/>
<path d="M1759.47 537.847C1760.22 538.04 1760.92 538.223 1761.59 538.63C1762.05 539.298 1762.41 539.811 1762.2 540.67C1761.96 541.639 1761.46 541.981 1760.65 542.43C1760.13 542.43 1759.54 542.452 1759.05 542.281C1758.36 542.046 1757.9 541.628 1757.62 540.959C1757.37 540.381 1757.46 539.815 1757.7 539.26C1758.07 538.394 1758.61 538.151 1759.47 537.847Z" fill="#FEE9E5"/>
<path d="M237.914 16.0026C239.825 18.9139 240.805 23.3224 241.124 26.7577C239.747 25.2119 238.665 22.864 237.488 21.1063C237.684 19.4096 237.826 17.7083 237.914 16.0026Z" fill="#CCFEA3"/>
</svg>
